<?xml version="1.0" encoding="utf-8" standalone="no"?>
<!DOCTYPE svg PUBLIC "-//W3C//DTD SVG 1.1//EN"
  "http://www.w3.org/Graphics/SVG/1.1/DTD/svg11.dtd">
<svg xmlns:xlink="http://www.w3.org/1999/xlink" width="494.215312pt" height="439.989375pt" viewBox="0 0 494.215312 439.989375" xmlns="http://www.w3.org/2000/svg" version="1.1">
 <metadata>
  <rdf:RDF xmlns:dc="http://purl.org/dc/elements/1.1/" xmlns:cc="http://creativecommons.org/ns#" xmlns:rdf="http://www.w3.org/1999/02/22-rdf-syntax-ns#">
   <cc:Work>
    <dc:type rdf:resource="http://purl.org/dc/dcmitype/StillImage"/>
    <dc:date>2024-01-01T14:24:51.884545</dc:date>
    <dc:format>image/svg+xml</dc:format>
    <dc:creator>
     <cc:Agent>
      <dc:title>Matplotlib v3.8.0, https://matplotlib.org/</dc:title>
     </cc:Agent>
    </dc:creator>
   </cc:Work>
  </rdf:RDF>
 </metadata>
 <defs>
  <style type="text/css">*{stroke-linejoin: round; stroke-linecap: butt}</style>
 </defs>
 <g id="figure_1">
  <g id="patch_1">
   <path d="M 0 439.989375 
L 494.215312 439.989375 
L 494.215312 -0 
L 0 -0 
z
" style="fill: #ffffff"/>
  </g>
  <g id="axes_1">
   <g id="patch_2">
    <path d="M 399.016094 219.994688 
C 399.016094 199.571988 394.993267 179.347874 387.177839 160.47976 
C 379.36241 141.611646 367.90637 124.46647 353.46534 110.025441 
C 339.024311 95.584412 321.879135 84.128371 303.011021 76.312943 
C 284.142907 68.497514 263.918793 64.474688 243.496094 64.474688 
C 223.073394 64.474688 202.84928 68.497514 183.981166 76.312943 
C 165.113052 84.128371 147.967876 95.584412 133.526847 110.025441 
C 119.085818 124.46647 107.629778 141.611646 99.814349 160.47976 
C 91.99892 179.347874 87.976094 199.571988 87.976094 219.994688 
C 87.976094 240.417387 91.99892 260.641501 99.814349 279.509615 
C 107.629778 298.377729 119.085818 315.522905 133.526847 329.963934 
C 147.967876 344.404963 165.113052 355.861004 183.981166 363.676432 
C 202.84928 371.491861 223.073394 375.514688 243.496094 375.514688 
C 263.918793 375.514688 284.142907 371.491861 303.011021 363.676432 
C 321.879135 355.861004 339.024311 344.404963 353.46534 329.963934 
C 367.90637 315.522905 379.36241 298.377729 387.177839 279.509615 
C 394.993267 260.641501 399.016094 240.417387 399.016094 219.994688 
M 243.496094 219.994688 
C 243.496094 219.994688 243.496094 219.994688 243.496094 219.994688 
C 243.496094 219.994688 243.496094 219.994688 243.496094 219.994688 
C 243.496094 219.994688 243.496094 219.994688 243.496094 219.994688 
C 243.496094 219.994688 243.496094 219.994688 243.496094 219.994688 
C 243.496094 219.994688 243.496094 219.994688 243.496094 219.994688 
C 243.496094 219.994688 243.496094 219.994688 243.496094 219.994688 
C 243.496094 219.994688 243.496094 219.994688 243.496094 219.994688 
C 243.496094 219.994688 243.496094 219.994688 243.496094 219.994688 
C 243.496094 219.994688 243.496094 219.994688 243.496094 219.994688 
C 243.496094 219.994688 243.496094 219.994688 243.496094 219.994688 
C 243.496094 219.994688 243.496094 219.994688 243.496094 219.994688 
C 243.496094 219.994688 243.496094 219.994688 243.496094 219.994688 
C 243.496094 219.994688 243.496094 219.994688 243.496094 219.994688 
C 243.496094 219.994688 243.496094 219.994688 243.496094 219.994688 
C 243.496094 219.994688 243.496094 219.994688 243.496094 219.994688 
C 243.496094 219.994688 243.496094 219.994688 243.496094 219.994688 
z
" style="fill: #ffffff"/>
   </g>
   <g id="patch_3">
    <path d="M 329.564696 219.994688 
L 243.496094 122.325443 
L 182.140258 219.994688 
L 243.496094 350.06609 
z
" clip-path="url(#p6ac3b6a701)" style="fill: #0000ff; opacity: 0.2; stroke: #0000ff; stroke-width: 2; stroke-linejoin: miter"/>
   </g>
   <g id="patch_4">
    <path d="M 329.564696 219.994688 
L 243.496094 120.450325 
L 193.218395 219.994688 
L 243.496094 328.739175 
z
" clip-path="url(#p6ac3b6a701)" style="fill: #ff0000; opacity: 0.2; stroke: #ff0000; stroke-width: 2; stroke-linejoin: miter"/>
   </g>
   <g id="patch_5">
    <path d="M 307.834505 219.994688 
L 243.496094 150.073424 
L 208.131272 219.994688 
L 243.496094 318.515291 
z
" clip-path="url(#p6ac3b6a701)" style="fill: #008000; opacity: 0.2; stroke: #008000; stroke-width: 2; stroke-linejoin: miter"/>
   </g>
   <g id="matplotlib.axis_1">
    <g id="xtick_1">
     <g id="line2d_1">
      <path d="M 243.496094 219.994688 
L 399.016094 219.994688 
" clip-path="url(#p6ac3b6a701)" style="fill: none; stroke: #b0b0b0; stroke-width: 0.8; stroke-linecap: square"/>
     </g>
     <g id="text_1">
      <!-- Endurance -->
      <g transform="translate(412.016875 223.857813) scale(0.14 -0.14)">
       <defs>
        <path id="DejaVuSans-45" d="M 628 4666 
L 3578 4666 
L 3578 4134 
L 1259 4134 
L 1259 2753 
L 3481 2753 
L 3481 2222 
L 1259 2222 
L 1259 531 
L 3634 531 
L 3634 0 
L 628 0 
L 628 4666 
z
" transform="scale(0.015625)"/>
        <path id="DejaVuSans-6e" d="M 3513 2113 
L 3513 0 
L 2938 0 
L 2938 2094 
Q 2938 2591 2744 2837 
Q 2550 3084 2163 3084 
Q 1697 3084 1428 2787 
Q 1159 2491 1159 1978 
L 1159 0 
L 581 0 
L 581 3500 
L 1159 3500 
L 1159 2956 
Q 1366 3272 1645 3428 
Q 1925 3584 2291 3584 
Q 2894 3584 3203 3211 
Q 3513 2838 3513 2113 
z
" transform="scale(0.015625)"/>
        <path id="DejaVuSans-64" d="M 2906 2969 
L 2906 4863 
L 3481 4863 
L 3481 0 
L 2906 0 
L 2906 525 
Q 2725 213 2448 61 
Q 2172 -91 1784 -91 
Q 1150 -91 751 415 
Q 353 922 353 1747 
Q 353 2572 751 3078 
Q 1150 3584 1784 3584 
Q 2172 3584 2448 3432 
Q 2725 3281 2906 2969 
z
M 947 1747 
Q 947 1113 1208 752 
Q 1469 391 1925 391 
Q 2381 391 2643 752 
Q 2906 1113 2906 1747 
Q 2906 2381 2643 2742 
Q 2381 3103 1925 3103 
Q 1469 3103 1208 2742 
Q 947 2381 947 1747 
z
" transform="scale(0.015625)"/>
        <path id="DejaVuSans-75" d="M 544 1381 
L 544 3500 
L 1119 3500 
L 1119 1403 
Q 1119 906 1312 657 
Q 1506 409 1894 409 
Q 2359 409 2629 706 
Q 2900 1003 2900 1516 
L 2900 3500 
L 3475 3500 
L 3475 0 
L 2900 0 
L 2900 538 
Q 2691 219 2414 64 
Q 2138 -91 1772 -91 
Q 1169 -91 856 284 
Q 544 659 544 1381 
z
M 1991 3584 
L 1991 3584 
z
" transform="scale(0.015625)"/>
        <path id="DejaVuSans-72" d="M 2631 2963 
Q 2534 3019 2420 3045 
Q 2306 3072 2169 3072 
Q 1681 3072 1420 2755 
Q 1159 2438 1159 1844 
L 1159 0 
L 581 0 
L 581 3500 
L 1159 3500 
L 1159 2956 
Q 1341 3275 1631 3429 
Q 1922 3584 2338 3584 
Q 2397 3584 2469 3576 
Q 2541 3569 2628 3553 
L 2631 2963 
z
" transform="scale(0.015625)"/>
        <path id="DejaVuSans-61" d="M 2194 1759 
Q 1497 1759 1228 1600 
Q 959 1441 959 1056 
Q 959 750 1161 570 
Q 1363 391 1709 391 
Q 2188 391 2477 730 
Q 2766 1069 2766 1631 
L 2766 1759 
L 2194 1759 
z
M 3341 1997 
L 3341 0 
L 2766 0 
L 2766 531 
Q 2569 213 2275 61 
Q 1981 -91 1556 -91 
Q 1019 -91 701 211 
Q 384 513 384 1019 
Q 384 1609 779 1909 
Q 1175 2209 1959 2209 
L 2766 2209 
L 2766 2266 
Q 2766 2663 2505 2880 
Q 2244 3097 1772 3097 
Q 1472 3097 1187 3025 
Q 903 2953 641 2809 
L 641 3341 
Q 956 3463 1253 3523 
Q 1550 3584 1831 3584 
Q 2591 3584 2966 3190 
Q 3341 2797 3341 1997 
z
" transform="scale(0.015625)"/>
        <path id="DejaVuSans-63" d="M 3122 3366 
L 3122 2828 
Q 2878 2963 2633 3030 
Q 2388 3097 2138 3097 
Q 1578 3097 1268 2742 
Q 959 2388 959 1747 
Q 959 1106 1268 751 
Q 1578 397 2138 397 
Q 2388 397 2633 464 
Q 2878 531 3122 666 
L 3122 134 
Q 2881 22 2623 -34 
Q 2366 -91 2075 -91 
Q 1284 -91 818 406 
Q 353 903 353 1747 
Q 353 2603 823 3093 
Q 1294 3584 2113 3584 
Q 2378 3584 2631 3529 
Q 2884 3475 3122 3366 
z
" transform="scale(0.015625)"/>
        <path id="DejaVuSans-65" d="M 3597 1894 
L 3597 1613 
L 953 1613 
Q 991 1019 1311 708 
Q 1631 397 2203 397 
Q 2534 397 2845 478 
Q 3156 559 3463 722 
L 3463 178 
Q 3153 47 2828 -22 
Q 2503 -91 2169 -91 
Q 1331 -91 842 396 
Q 353 884 353 1716 
Q 353 2575 817 3079 
Q 1281 3584 2069 3584 
Q 2775 3584 3186 3129 
Q 3597 2675 3597 1894 
z
M 3022 2063 
Q 3016 2534 2758 2815 
Q 2500 3097 2075 3097 
Q 1594 3097 1305 2825 
Q 1016 2553 972 2059 
L 3022 2063 
z
" transform="scale(0.015625)"/>
       </defs>
       <use xlink:href="#DejaVuSans-45"/>
       <use xlink:href="#DejaVuSans-6e" x="63.183594"/>
       <use xlink:href="#DejaVuSans-64" x="126.5625"/>
       <use xlink:href="#DejaVuSans-75" x="190.039062"/>
       <use xlink:href="#DejaVuSans-72" x="253.417969"/>
       <use xlink:href="#DejaVuSans-61" x="294.53125"/>
       <use xlink:href="#DejaVuSans-6e" x="355.810547"/>
       <use xlink:href="#DejaVuSans-63" x="419.189453"/>
       <use xlink:href="#DejaVuSans-65" x="474.169922"/>
      </g>
     </g>
    </g>
    <g id="xtick_2">
     <g id="line2d_2">
      <path d="M 243.496094 219.994688 
L 243.496094 64.474688 
" clip-path="url(#p6ac3b6a701)" style="fill: none; stroke: #b0b0b0; stroke-width: 0.8; stroke-linecap: square"/>
     </g>
     <g id="text_2">
      <!-- Variety -->
      <g transform="translate(218.943594 17.837813) scale(0.14 -0.14)">
       <defs>
        <path id="DejaVuSans-56" d="M 1831 0 
L 50 4666 
L 709 4666 
L 2188 738 
L 3669 4666 
L 4325 4666 
L 2547 0 
L 1831 0 
z
" transform="scale(0.015625)"/>
        <path id="DejaVuSans-69" d="M 603 3500 
L 1178 3500 
L 1178 0 
L 603 0 
L 603 3500 
z
M 603 4863 
L 1178 4863 
L 1178 4134 
L 603 4134 
L 603 4863 
z
" transform="scale(0.015625)"/>
        <path id="DejaVuSans-74" d="M 1172 4494 
L 1172 3500 
L 2356 3500 
L 2356 3053 
L 1172 3053 
L 1172 1153 
Q 1172 725 1289 603 
Q 1406 481 1766 481 
L 2356 481 
L 2356 0 
L 1766 0 
Q 1100 0 847 248 
Q 594 497 594 1153 
L 594 3053 
L 172 3053 
L 172 3500 
L 594 3500 
L 594 4494 
L 1172 4494 
z
" transform="scale(0.015625)"/>
        <path id="DejaVuSans-79" d="M 2059 -325 
Q 1816 -950 1584 -1140 
Q 1353 -1331 966 -1331 
L 506 -1331 
L 506 -850 
L 844 -850 
Q 1081 -850 1212 -737 
Q 1344 -625 1503 -206 
L 1606 56 
L 191 3500 
L 800 3500 
L 1894 763 
L 2988 3500 
L 3597 3500 
L 2059 -325 
z
" transform="scale(0.015625)"/>
       </defs>
       <use xlink:href="#DejaVuSans-56"/>
       <use xlink:href="#DejaVuSans-61" x="60.658203"/>
       <use xlink:href="#DejaVuSans-72" x="121.9375"/>
       <use xlink:href="#DejaVuSans-69" x="163.050781"/>
       <use xlink:href="#DejaVuSans-65" x="190.833984"/>
       <use xlink:href="#DejaVuSans-74" x="252.357422"/>
       <use xlink:href="#DejaVuSans-79" x="291.566406"/>
      </g>
     </g>
    </g>
    <g id="xtick_3">
     <g id="line2d_3">
      <path d="M 243.496094 219.994688 
L 87.976094 219.994687 
" clip-path="url(#p6ac3b6a701)" style="fill: none; stroke: #b0b0b0; stroke-width: 0.8; stroke-linecap: square"/>
     </g>
     <g id="text_3">
      <!-- Strength -->
      <g transform="translate(7.2 223.857812) scale(0.14 -0.14)">
       <defs>
        <path id="DejaVuSans-53" d="M 3425 4513 
L 3425 3897 
Q 3066 4069 2747 4153 
Q 2428 4238 2131 4238 
Q 1616 4238 1336 4038 
Q 1056 3838 1056 3469 
Q 1056 3159 1242 3001 
Q 1428 2844 1947 2747 
L 2328 2669 
Q 3034 2534 3370 2195 
Q 3706 1856 3706 1288 
Q 3706 609 3251 259 
Q 2797 -91 1919 -91 
Q 1588 -91 1214 -16 
Q 841 59 441 206 
L 441 856 
Q 825 641 1194 531 
Q 1563 422 1919 422 
Q 2459 422 2753 634 
Q 3047 847 3047 1241 
Q 3047 1584 2836 1778 
Q 2625 1972 2144 2069 
L 1759 2144 
Q 1053 2284 737 2584 
Q 422 2884 422 3419 
Q 422 4038 858 4394 
Q 1294 4750 2059 4750 
Q 2388 4750 2728 4690 
Q 3069 4631 3425 4513 
z
" transform="scale(0.015625)"/>
        <path id="DejaVuSans-67" d="M 2906 1791 
Q 2906 2416 2648 2759 
Q 2391 3103 1925 3103 
Q 1463 3103 1205 2759 
Q 947 2416 947 1791 
Q 947 1169 1205 825 
Q 1463 481 1925 481 
Q 2391 481 2648 825 
Q 2906 1169 2906 1791 
z
M 3481 434 
Q 3481 -459 3084 -895 
Q 2688 -1331 1869 -1331 
Q 1566 -1331 1297 -1286 
Q 1028 -1241 775 -1147 
L 775 -588 
Q 1028 -725 1275 -790 
Q 1522 -856 1778 -856 
Q 2344 -856 2625 -561 
Q 2906 -266 2906 331 
L 2906 616 
Q 2728 306 2450 153 
Q 2172 0 1784 0 
Q 1141 0 747 490 
Q 353 981 353 1791 
Q 353 2603 747 3093 
Q 1141 3584 1784 3584 
Q 2172 3584 2450 3431 
Q 2728 3278 2906 2969 
L 2906 3500 
L 3481 3500 
L 3481 434 
z
" transform="scale(0.015625)"/>
        <path id="DejaVuSans-68" d="M 3513 2113 
L 3513 0 
L 2938 0 
L 2938 2094 
Q 2938 2591 2744 2837 
Q 2550 3084 2163 3084 
Q 1697 3084 1428 2787 
Q 1159 2491 1159 1978 
L 1159 0 
L 581 0 
L 581 4863 
L 1159 4863 
L 1159 2956 
Q 1366 3272 1645 3428 
Q 1925 3584 2291 3584 
Q 2894 3584 3203 3211 
Q 3513 2838 3513 2113 
z
" transform="scale(0.015625)"/>
       </defs>
       <use xlink:href="#DejaVuSans-53"/>
       <use xlink:href="#DejaVuSans-74" x="63.476562"/>
       <use xlink:href="#DejaVuSans-72" x="102.685547"/>
       <use xlink:href="#DejaVuSans-65" x="141.548828"/>
       <use xlink:href="#DejaVuSans-6e" x="203.072266"/>
       <use xlink:href="#DejaVuSans-67" x="266.451172"/>
       <use xlink:href="#DejaVuSans-74" x="329.927734"/>
       <use xlink:href="#DejaVuSans-68" x="369.136719"/>
      </g>
     </g>
    </g>
    <g id="xtick_4">
     <g id="line2d_4">
      <path d="M 243.496094 219.994688 
L 243.496094 375.514688 
" clip-path="url(#p6ac3b6a701)" style="fill: none; stroke: #b0b0b0; stroke-width: 0.8; stroke-linecap: square"/>
     </g>
     <g id="text_4">
      <!-- Consistency -->
      <g transform="translate(201.17125 429.877813) scale(0.14 -0.14)">
       <defs>
        <path id="DejaVuSans-43" d="M 4122 4306 
L 4122 3641 
Q 3803 3938 3442 4084 
Q 3081 4231 2675 4231 
Q 1875 4231 1450 3742 
Q 1025 3253 1025 2328 
Q 1025 1406 1450 917 
Q 1875 428 2675 428 
Q 3081 428 3442 575 
Q 3803 722 4122 1019 
L 4122 359 
Q 3791 134 3420 21 
Q 3050 -91 2638 -91 
Q 1578 -91 968 557 
Q 359 1206 359 2328 
Q 359 3453 968 4101 
Q 1578 4750 2638 4750 
Q 3056 4750 3426 4639 
Q 3797 4528 4122 4306 
z
" transform="scale(0.015625)"/>
        <path id="DejaVuSans-6f" d="M 1959 3097 
Q 1497 3097 1228 2736 
Q 959 2375 959 1747 
Q 959 1119 1226 758 
Q 1494 397 1959 397 
Q 2419 397 2687 759 
Q 2956 1122 2956 1747 
Q 2956 2369 2687 2733 
Q 2419 3097 1959 3097 
z
M 1959 3584 
Q 2709 3584 3137 3096 
Q 3566 2609 3566 1747 
Q 3566 888 3137 398 
Q 2709 -91 1959 -91 
Q 1206 -91 779 398 
Q 353 888 353 1747 
Q 353 2609 779 3096 
Q 1206 3584 1959 3584 
z
" transform="scale(0.015625)"/>
        <path id="DejaVuSans-73" d="M 2834 3397 
L 2834 2853 
Q 2591 2978 2328 3040 
Q 2066 3103 1784 3103 
Q 1356 3103 1142 2972 
Q 928 2841 928 2578 
Q 928 2378 1081 2264 
Q 1234 2150 1697 2047 
L 1894 2003 
Q 2506 1872 2764 1633 
Q 3022 1394 3022 966 
Q 3022 478 2636 193 
Q 2250 -91 1575 -91 
Q 1294 -91 989 -36 
Q 684 19 347 128 
L 347 722 
Q 666 556 975 473 
Q 1284 391 1588 391 
Q 1994 391 2212 530 
Q 2431 669 2431 922 
Q 2431 1156 2273 1281 
Q 2116 1406 1581 1522 
L 1381 1569 
Q 847 1681 609 1914 
Q 372 2147 372 2553 
Q 372 3047 722 3315 
Q 1072 3584 1716 3584 
Q 2034 3584 2315 3537 
Q 2597 3491 2834 3397 
z
" transform="scale(0.015625)"/>
       </defs>
       <use xlink:href="#DejaVuSans-43"/>
       <use xlink:href="#DejaVuSans-6f" x="69.824219"/>
       <use xlink:href="#DejaVuSans-6e" x="131.005859"/>
       <use xlink:href="#DejaVuSans-73" x="194.384766"/>
       <use xlink:href="#DejaVuSans-69" x="246.484375"/>
       <use xlink:href="#DejaVuSans-73" x="274.267578"/>
       <use xlink:href="#DejaVuSans-74" x="326.367188"/>
       <use xlink:href="#DejaVuSans-65" x="365.576172"/>
       <use xlink:href="#DejaVuSans-6e" x="427.099609"/>
       <use xlink:href="#DejaVuSans-63" x="490.478516"/>
       <use xlink:href="#DejaVuSans-79" x="545.458984"/>
      </g>
     </g>
    </g>
   </g>
   <g id="matplotlib.axis_2">
    <g id="ytick_1">
     <g id="line2d_5">
      <path d="M 251.272094 219.994688 
C 251.272094 218.973553 251.070952 217.962347 250.680181 217.018941 
C 250.28941 216.075535 249.716608 215.218277 248.994556 214.496225 
C 248.272505 213.774174 247.415246 213.201372 246.47184 212.8106 
C 245.528434 212.419829 244.517229 212.218688 243.496094 212.218688 
C 242.474959 212.218688 241.463753 212.419829 240.520347 212.8106 
C 239.576942 213.201372 238.719683 213.774174 237.997631 214.496225 
C 237.27558 215.218277 236.702778 216.075535 236.312007 217.018941 
C 235.921235 217.962347 235.720094 218.973553 235.720094 219.994688 
C 235.720094 221.015822 235.921235 222.027028 236.312007 222.970434 
C 236.702778 223.91384 237.27558 224.771098 237.997631 225.49315 
C 238.719683 226.215201 239.576942 226.788003 240.520347 227.178775 
C 241.463753 227.569546 242.474959 227.770688 243.496094 227.770688 
C 244.517229 227.770688 245.528434 227.569546 246.47184 227.178775 
C 247.415246 226.788003 248.272505 226.215201 248.994556 225.49315 
C 249.716608 224.771098 250.28941 223.91384 250.680181 222.970434 
C 251.070952 222.027028 251.272094 221.015822 251.272094 219.994688 
" clip-path="url(#p6ac3b6a701)" style="fill: none; stroke: #b0b0b0; stroke-width: 0.8; stroke-linecap: square"/>
     </g>
     <g id="text_5">
      <!-- 0 -->
      <g transform="translate(251.272094 217.915) scale(0.1 -0.1)">
       <defs>
        <path id="DejaVuSans-30" d="M 2034 4250 
Q 1547 4250 1301 3770 
Q 1056 3291 1056 2328 
Q 1056 1369 1301 889 
Q 1547 409 2034 409 
Q 2525 409 2770 889 
Q 3016 1369 3016 2328 
Q 3016 3291 2770 3770 
Q 2525 4250 2034 4250 
z
M 2034 4750 
Q 2819 4750 3233 4129 
Q 3647 3509 3647 2328 
Q 3647 1150 3233 529 
Q 2819 -91 2034 -91 
Q 1250 -91 836 529 
Q 422 1150 422 2328 
Q 422 3509 836 4129 
Q 1250 4750 2034 4750 
z
" transform="scale(0.015625)"/>
       </defs>
       <use xlink:href="#DejaVuSans-30"/>
      </g>
     </g>
    </g>
    <g id="ytick_2">
     <g id="line2d_6">
      <path d="M 282.376094 219.994688 
C 282.376094 214.889013 281.370387 209.832984 279.41653 205.115956 
C 277.462673 200.398927 274.598663 196.112633 270.988405 192.502376 
C 267.378148 188.892119 263.091854 186.028108 258.374826 184.074251 
C 253.657797 182.120394 248.601769 181.114688 243.496094 181.114688 
C 238.390419 181.114688 233.33439 182.120394 228.617362 184.074251 
C 223.900333 186.028108 219.614039 188.892119 216.003782 192.502376 
C 212.393525 196.112633 209.529515 200.398927 207.575658 205.115956 
C 205.6218 209.832984 204.616094 214.889013 204.616094 219.994688 
C 204.616094 225.100362 205.6218 230.156391 207.575658 234.873419 
C 209.529515 239.590448 212.393525 243.876742 216.003782 247.486999 
C 219.614039 251.097256 223.900333 253.961267 228.617362 255.915124 
C 233.33439 257.868981 238.390419 258.874688 243.496094 258.874688 
C 248.601769 258.874688 253.657797 257.868981 258.374826 255.915124 
C 263.091854 253.961267 267.378148 251.097256 270.988405 247.486999 
C 274.598663 243.876742 277.462673 239.590448 279.41653 234.873419 
C 281.370387 230.156391 282.376094 225.100362 282.376094 219.994688 
" clip-path="url(#p6ac3b6a701)" style="fill: none; stroke: #b0b0b0; stroke-width: 0.8; stroke-linecap: square"/>
     </g>
     <g id="text_6">
      <!-- 0.25 -->
      <g transform="translate(282.376094 217.915) scale(0.1 -0.1)">
       <defs>
        <path id="DejaVuSans-2e" d="M 684 794 
L 1344 794 
L 1344 0 
L 684 0 
L 684 794 
z
" transform="scale(0.015625)"/>
        <path id="DejaVuSans-32" d="M 1228 531 
L 3431 531 
L 3431 0 
L 469 0 
L 469 531 
Q 828 903 1448 1529 
Q 2069 2156 2228 2338 
Q 2531 2678 2651 2914 
Q 2772 3150 2772 3378 
Q 2772 3750 2511 3984 
Q 2250 4219 1831 4219 
Q 1534 4219 1204 4116 
Q 875 4013 500 3803 
L 500 4441 
Q 881 4594 1212 4672 
Q 1544 4750 1819 4750 
Q 2544 4750 2975 4387 
Q 3406 4025 3406 3419 
Q 3406 3131 3298 2873 
Q 3191 2616 2906 2266 
Q 2828 2175 2409 1742 
Q 1991 1309 1228 531 
z
" transform="scale(0.015625)"/>
        <path id="DejaVuSans-35" d="M 691 4666 
L 3169 4666 
L 3169 4134 
L 1269 4134 
L 1269 2991 
Q 1406 3038 1543 3061 
Q 1681 3084 1819 3084 
Q 2600 3084 3056 2656 
Q 3513 2228 3513 1497 
Q 3513 744 3044 326 
Q 2575 -91 1722 -91 
Q 1428 -91 1123 -41 
Q 819 9 494 109 
L 494 744 
Q 775 591 1075 516 
Q 1375 441 1709 441 
Q 2250 441 2565 725 
Q 2881 1009 2881 1497 
Q 2881 1984 2565 2268 
Q 2250 2553 1709 2553 
Q 1456 2553 1204 2497 
Q 953 2441 691 2322 
L 691 4666 
z
" transform="scale(0.015625)"/>
       </defs>
       <use xlink:href="#DejaVuSans-30"/>
       <use xlink:href="#DejaVuSans-2e" x="63.623047"/>
       <use xlink:href="#DejaVuSans-32" x="95.410156"/>
       <use xlink:href="#DejaVuSans-35" x="159.033203"/>
      </g>
     </g>
    </g>
    <g id="ytick_3">
     <g id="line2d_7">
      <path d="M 321.256094 219.994688 
C 321.256094 209.783338 319.244681 199.671281 315.336966 190.237224 
C 311.429252 180.803167 305.701232 172.230579 298.480717 165.010064 
C 291.260202 157.78955 282.687614 152.061529 273.253557 148.153815 
C 263.819501 144.246101 253.707443 142.234688 243.496094 142.234688 
C 233.284744 142.234688 223.172687 144.246101 213.73863 148.153815 
C 204.304573 152.061529 195.731985 157.78955 188.51147 165.010064 
C 181.290956 172.230579 175.562936 180.803167 171.655221 190.237224 
C 167.747507 199.671281 165.736094 209.783338 165.736094 219.994688 
C 165.736094 230.206037 167.747507 240.318094 171.655221 249.752151 
C 175.562936 259.186208 181.290956 267.758796 188.51147 274.979311 
C 195.731985 282.199825 204.304573 287.927846 213.73863 291.83556 
C 223.172687 295.743274 233.284744 297.754688 243.496094 297.754688 
C 253.707443 297.754688 263.819501 295.743274 273.253557 291.83556 
C 282.687614 287.927846 291.260202 282.199825 298.480717 274.979311 
C 305.701232 267.758796 311.429252 259.186208 315.336966 249.752151 
C 319.244681 240.318094 321.256094 230.206037 321.256094 219.994688 
" clip-path="url(#p6ac3b6a701)" style="fill: none; stroke: #b0b0b0; stroke-width: 0.8; stroke-linecap: square"/>
     </g>
     <g id="text_7">
      <!-- 0.5 -->
      <g transform="translate(321.256094 217.915) scale(0.1 -0.1)">
       <use xlink:href="#DejaVuSans-30"/>
       <use xlink:href="#DejaVuSans-2e" x="63.623047"/>
       <use xlink:href="#DejaVuSans-35" x="95.410156"/>
      </g>
     </g>
    </g>
    <g id="ytick_4">
     <g id="line2d_8">
      <path d="M 360.136094 219.994688 
C 360.136094 204.677663 357.118974 189.509577 351.257402 175.358492 
C 345.395831 161.207407 336.803801 148.348524 325.973029 137.517753 
C 315.142257 126.686981 302.283375 118.09495 288.132289 112.233379 
C 273.981204 106.371807 258.813118 103.354688 243.496094 103.354688 
C 228.179069 103.354688 213.010984 106.371807 198.859898 112.233379 
C 184.708813 118.09495 171.849931 126.686981 161.019159 137.517753 
C 150.188387 148.348524 141.596357 161.207407 135.734785 175.358492 
C 129.873214 189.509577 126.856094 204.677663 126.856094 219.994687 
C 126.856094 235.311712 129.873214 250.479798 135.734785 264.630883 
C 141.596357 278.781968 150.188387 291.640851 161.019159 302.471622 
C 171.849931 313.302394 184.708813 321.894425 198.859898 327.755996 
C 213.010984 333.617568 228.179069 336.634688 243.496094 336.634688 
C 258.813118 336.634688 273.981204 333.617568 288.132289 327.755996 
C 302.283375 321.894425 315.142257 313.302394 325.973029 302.471622 
C 336.803801 291.640851 345.395831 278.781968 351.257402 264.630883 
C 357.118974 250.479798 360.136094 235.311712 360.136094 219.994688 
" clip-path="url(#p6ac3b6a701)" style="fill: none; stroke: #b0b0b0; stroke-width: 0.8; stroke-linecap: square"/>
     </g>
     <g id="text_8">
      <!-- 0.75 -->
      <g transform="translate(360.136094 217.915) scale(0.1 -0.1)">
       <defs>
        <path id="DejaVuSans-37" d="M 525 4666 
L 3525 4666 
L 3525 4397 
L 1831 0 
L 1172 0 
L 2766 4134 
L 525 4134 
L 525 4666 
z
" transform="scale(0.015625)"/>
       </defs>
       <use xlink:href="#DejaVuSans-30"/>
       <use xlink:href="#DejaVuSans-2e" x="63.623047"/>
       <use xlink:href="#DejaVuSans-37" x="95.410156"/>
       <use xlink:href="#DejaVuSans-35" x="159.033203"/>
      </g>
     </g>
    </g>
    <g id="ytick_5">
     <g id="line2d_9">
      <path d="M 399.016094 219.994688 
C 399.016094 199.571988 394.993267 179.347874 387.177839 160.47976 
C 379.36241 141.611646 367.90637 124.46647 353.46534 110.025441 
C 339.024311 95.584412 321.879135 84.128371 303.011021 76.312943 
C 284.142907 68.497514 263.918793 64.474688 243.496094 64.474688 
C 223.073394 64.474688 202.84928 68.497514 183.981166 76.312943 
C 165.113052 84.128371 147.967876 95.584412 133.526847 110.025441 
C 119.085818 124.46647 107.629778 141.611646 99.814349 160.47976 
C 91.99892 179.347874 87.976094 199.571988 87.976094 219.994687 
C 87.976094 240.417387 91.99892 260.641501 99.814349 279.509615 
C 107.629778 298.377729 119.085818 315.522905 133.526847 329.963934 
C 147.967876 344.404963 165.113052 355.861004 183.981166 363.676432 
C 202.84928 371.491861 223.073394 375.514688 243.496094 375.514688 
C 263.918793 375.514688 284.142907 371.491861 303.011021 363.676432 
C 321.879135 355.861004 339.024311 344.404963 353.46534 329.963934 
C 367.90637 315.522905 379.36241 298.377729 387.177839 279.509615 
C 394.993267 260.641501 399.016094 240.417387 399.016094 219.994688 
" clip-path="url(#p6ac3b6a701)" style="fill: none; stroke: #b0b0b0; stroke-width: 0.8; stroke-linecap: square"/>
     </g>
     <g id="text_9">
      <!-- 1 -->
      <g transform="translate(399.016094 217.915) scale(0.1 -0.1)">
       <defs>
        <path id="DejaVuSans-31" d="M 794 531 
L 1825 531 
L 1825 4091 
L 703 3866 
L 703 4441 
L 1819 4666 
L 2450 4666 
L 2450 531 
L 3481 531 
L 3481 0 
L 794 0 
L 794 531 
z
" transform="scale(0.015625)"/>
       </defs>
       <use xlink:href="#DejaVuSans-31"/>
      </g>
     </g>
    </g>
   </g>
   <g id="line2d_10">
    <path d="M 329.564696 219.994688 
L 243.496094 122.325443 
L 182.140258 219.994688 
L 243.496094 350.06609 
L 329.564696 219.994688 
" clip-path="url(#p6ac3b6a701)" style="fill: none; stroke: #0000ff; stroke-opacity: 0.4; stroke-width: 2; stroke-linecap: square"/>
   </g>
   <g id="line2d_11">
    <path d="M 329.564696 219.994688 
L 243.496094 120.450325 
L 193.218395 219.994688 
L 243.496094 328.739175 
L 329.564696 219.994688 
" clip-path="url(#p6ac3b6a701)" style="fill: none; stroke: #ff0000; stroke-opacity: 0.4; stroke-width: 2; stroke-linecap: square"/>
   </g>
   <g id="line2d_12">
    <path d="M 307.834505 219.994688 
L 243.496094 150.073424 
L 208.131272 219.994688 
L 243.496094 318.515291 
L 307.834505 219.994688 
" clip-path="url(#p6ac3b6a701)" style="fill: none; stroke: #008000; stroke-opacity: 0.4; stroke-width: 2; stroke-linecap: square"/>
   </g>
   <g id="legend_1">
    <g id="patch_6">
     <path d="M 334.566094 116.509063 
L 392.016094 116.509063 
Q 394.016094 116.509063 394.016094 114.509063 
L 394.016094 71.474688 
Q 394.016094 69.474688 392.016094 69.474688 
L 334.566094 69.474688 
Q 332.566094 69.474688 332.566094 71.474688 
L 332.566094 114.509063 
Q 332.566094 116.509063 334.566094 116.509063 
z
" style="fill: #ffffff; opacity: 0.8; stroke: #cccccc; stroke-linejoin: miter"/>
    </g>
    <g id="line2d_13">
     <path d="M 336.566094 77.573125 
L 346.566094 77.573125 
L 356.566094 77.573125 
" style="fill: none; stroke: #0000ff; stroke-opacity: 0.4; stroke-width: 2; stroke-linecap: square"/>
    </g>
    <g id="text_10">
     <!-- 2023 -->
     <g transform="translate(364.566094 81.073125) scale(0.1 -0.1)">
      <defs>
       <path id="DejaVuSans-33" d="M 2597 2516 
Q 3050 2419 3304 2112 
Q 3559 1806 3559 1356 
Q 3559 666 3084 287 
Q 2609 -91 1734 -91 
Q 1441 -91 1130 -33 
Q 819 25 488 141 
L 488 750 
Q 750 597 1062 519 
Q 1375 441 1716 441 
Q 2309 441 2620 675 
Q 2931 909 2931 1356 
Q 2931 1769 2642 2001 
Q 2353 2234 1838 2234 
L 1294 2234 
L 1294 2753 
L 1863 2753 
Q 2328 2753 2575 2939 
Q 2822 3125 2822 3475 
Q 2822 3834 2567 4026 
Q 2313 4219 1838 4219 
Q 1578 4219 1281 4162 
Q 984 4106 628 3988 
L 628 4550 
Q 988 4650 1302 4700 
Q 1616 4750 1894 4750 
Q 2613 4750 3031 4423 
Q 3450 4097 3450 3541 
Q 3450 3153 3228 2886 
Q 3006 2619 2597 2516 
z
" transform="scale(0.015625)"/>
      </defs>
      <use xlink:href="#DejaVuSans-32"/>
      <use xlink:href="#DejaVuSans-30" x="63.623047"/>
      <use xlink:href="#DejaVuSans-32" x="127.246094"/>
      <use xlink:href="#DejaVuSans-33" x="190.869141"/>
     </g>
    </g>
    <g id="line2d_14">
     <path d="M 336.566094 92.25125 
L 346.566094 92.25125 
L 356.566094 92.25125 
" style="fill: none; stroke: #ff0000; stroke-opacity: 0.4; stroke-width: 2; stroke-linecap: square"/>
    </g>
    <g id="text_11">
     <!-- 2022 -->
     <g transform="translate(364.566094 95.75125) scale(0.1 -0.1)">
      <use xlink:href="#DejaVuSans-32"/>
      <use xlink:href="#DejaVuSans-30" x="63.623047"/>
      <use xlink:href="#DejaVuSans-32" x="127.246094"/>
      <use xlink:href="#DejaVuSans-32" x="190.869141"/>
     </g>
    </g>
    <g id="line2d_15">
     <path d="M 336.566094 106.929375 
L 346.566094 106.929375 
L 356.566094 106.929375 
" style="fill: none; stroke: #008000; stroke-opacity: 0.4; stroke-width: 2; stroke-linecap: square"/>
    </g>
    <g id="text_12">
     <!-- 2021 -->
     <g transform="translate(364.566094 110.429375) scale(0.1 -0.1)">
      <use xlink:href="#DejaVuSans-32"/>
      <use xlink:href="#DejaVuSans-30" x="63.623047"/>
      <use xlink:href="#DejaVuSans-32" x="127.246094"/>
      <use xlink:href="#DejaVuSans-31" x="190.869141"/>
     </g>
    </g>
   </g>
  </g>
  <g id="axes_2">
   <g id="matplotlib.axis_3">
    <g id="ytick_6">
     <g id="text_13">
      <!-- 0 -->
      <g transform="translate(243.496094 210.139) scale(0.1 -0.1)">
       <use xlink:href="#DejaVuSans-30"/>
      </g>
     </g>
    </g>
    <g id="ytick_7">
     <g id="text_14">
      <!-- 1.08 -->
      <g transform="translate(243.496094 179.035) scale(0.1 -0.1)">
       <defs>
        <path id="DejaVuSans-38" d="M 2034 2216 
Q 1584 2216 1326 1975 
Q 1069 1734 1069 1313 
Q 1069 891 1326 650 
Q 1584 409 2034 409 
Q 2484 409 2743 651 
Q 3003 894 3003 1313 
Q 3003 1734 2745 1975 
Q 2488 2216 2034 2216 
z
M 1403 2484 
Q 997 2584 770 2862 
Q 544 3141 544 3541 
Q 544 4100 942 4425 
Q 1341 4750 2034 4750 
Q 2731 4750 3128 4425 
Q 3525 4100 3525 3541 
Q 3525 3141 3298 2862 
Q 3072 2584 2669 2484 
Q 3125 2378 3379 2068 
Q 3634 1759 3634 1313 
Q 3634 634 3220 271 
Q 2806 -91 2034 -91 
Q 1263 -91 848 271 
Q 434 634 434 1313 
Q 434 1759 690 2068 
Q 947 2378 1403 2484 
z
M 1172 3481 
Q 1172 3119 1398 2916 
Q 1625 2713 2034 2713 
Q 2441 2713 2670 2916 
Q 2900 3119 2900 3481 
Q 2900 3844 2670 4047 
Q 2441 4250 2034 4250 
Q 1625 4250 1398 4047 
Q 1172 3844 1172 3481 
z
" transform="scale(0.015625)"/>
       </defs>
       <use xlink:href="#DejaVuSans-31"/>
       <use xlink:href="#DejaVuSans-2e" x="63.623047"/>
       <use xlink:href="#DejaVuSans-30" x="95.410156"/>
       <use xlink:href="#DejaVuSans-38" x="159.033203"/>
      </g>
     </g>
    </g>
    <g id="ytick_8">
     <g id="text_15">
      <!-- 2.16 -->
      <g transform="translate(243.496094 140.155) scale(0.1 -0.1)">
       <defs>
        <path id="DejaVuSans-36" d="M 2113 2584 
Q 1688 2584 1439 2293 
Q 1191 2003 1191 1497 
Q 1191 994 1439 701 
Q 1688 409 2113 409 
Q 2538 409 2786 701 
Q 3034 994 3034 1497 
Q 3034 2003 2786 2293 
Q 2538 2584 2113 2584 
z
M 3366 4563 
L 3366 3988 
Q 3128 4100 2886 4159 
Q 2644 4219 2406 4219 
Q 1781 4219 1451 3797 
Q 1122 3375 1075 2522 
Q 1259 2794 1537 2939 
Q 1816 3084 2150 3084 
Q 2853 3084 3261 2657 
Q 3669 2231 3669 1497 
Q 3669 778 3244 343 
Q 2819 -91 2113 -91 
Q 1303 -91 875 529 
Q 447 1150 447 2328 
Q 447 3434 972 4092 
Q 1497 4750 2381 4750 
Q 2619 4750 2861 4703 
Q 3103 4656 3366 4563 
z
" transform="scale(0.015625)"/>
       </defs>
       <use xlink:href="#DejaVuSans-32"/>
       <use xlink:href="#DejaVuSans-2e" x="63.623047"/>
       <use xlink:href="#DejaVuSans-31" x="95.410156"/>
       <use xlink:href="#DejaVuSans-36" x="159.033203"/>
      </g>
     </g>
    </g>
    <g id="ytick_9">
     <g id="text_16">
      <!-- 3.24 -->
      <g transform="translate(243.496094 101.275) scale(0.1 -0.1)">
       <defs>
        <path id="DejaVuSans-34" d="M 2419 4116 
L 825 1625 
L 2419 1625 
L 2419 4116 
z
M 2253 4666 
L 3047 4666 
L 3047 1625 
L 3713 1625 
L 3713 1100 
L 3047 1100 
L 3047 0 
L 2419 0 
L 2419 1100 
L 313 1100 
L 313 1709 
L 2253 4666 
z
" transform="scale(0.015625)"/>
       </defs>
       <use xlink:href="#DejaVuSans-33"/>
       <use xlink:href="#DejaVuSans-2e" x="63.623047"/>
       <use xlink:href="#DejaVuSans-32" x="95.410156"/>
       <use xlink:href="#DejaVuSans-34" x="159.033203"/>
      </g>
     </g>
    </g>
    <g id="ytick_10">
     <g id="text_17">
      <!-- 4.32 -->
      <g transform="translate(243.496094 62.395) scale(0.1 -0.1)">
       <use xlink:href="#DejaVuSans-34"/>
       <use xlink:href="#DejaVuSans-2e" x="63.623047"/>
       <use xlink:href="#DejaVuSans-33" x="95.410156"/>
       <use xlink:href="#DejaVuSans-32" x="159.033203"/>
      </g>
     </g>
    </g>
   </g>
  </g>
  <g id="axes_3">
   <g id="matplotlib.axis_4">
    <g id="ytick_11">
     <g id="text_18">
      <!-- 0 -->
      <g transform="translate(235.720094 217.915) scale(0.1 -0.1)">
       <use xlink:href="#DejaVuSans-30"/>
      </g>
     </g>
    </g>
    <g id="ytick_12">
     <g id="text_19">
      <!-- 0.25 -->
      <g transform="translate(204.616094 217.915) scale(0.1 -0.1)">
       <use xlink:href="#DejaVuSans-30"/>
       <use xlink:href="#DejaVuSans-2e" x="63.623047"/>
       <use xlink:href="#DejaVuSans-32" x="95.410156"/>
       <use xlink:href="#DejaVuSans-35" x="159.033203"/>
      </g>
     </g>
    </g>
    <g id="ytick_13">
     <g id="text_20">
      <!-- 0.5 -->
      <g transform="translate(165.736094 217.915) scale(0.1 -0.1)">
       <use xlink:href="#DejaVuSans-30"/>
       <use xlink:href="#DejaVuSans-2e" x="63.623047"/>
       <use xlink:href="#DejaVuSans-35" x="95.410156"/>
      </g>
     </g>
    </g>
    <g id="ytick_14">
     <g id="text_21">
      <!-- 0.75 -->
      <g transform="translate(126.856094 217.915) scale(0.1 -0.1)">
       <use xlink:href="#DejaVuSans-30"/>
       <use xlink:href="#DejaVuSans-2e" x="63.623047"/>
       <use xlink:href="#DejaVuSans-37" x="95.410156"/>
       <use xlink:href="#DejaVuSans-35" x="159.033203"/>
      </g>
     </g>
    </g>
    <g id="ytick_15">
     <g id="text_22">
      <!-- 1 -->
      <g transform="translate(87.976094 217.915) scale(0.1 -0.1)">
       <use xlink:href="#DejaVuSans-31"/>
      </g>
     </g>
    </g>
   </g>
  </g>
  <g id="axes_4">
   <g id="matplotlib.axis_5">
    <g id="ytick_16">
     <g id="text_23">
      <!-- 96 -->
      <g transform="translate(243.496094 225.691) scale(0.1 -0.1)">
       <defs>
        <path id="DejaVuSans-39" d="M 703 97 
L 703 672 
Q 941 559 1184 500 
Q 1428 441 1663 441 
Q 2288 441 2617 861 
Q 2947 1281 2994 2138 
Q 2813 1869 2534 1725 
Q 2256 1581 1919 1581 
Q 1219 1581 811 2004 
Q 403 2428 403 3163 
Q 403 3881 828 4315 
Q 1253 4750 1959 4750 
Q 2769 4750 3195 4129 
Q 3622 3509 3622 2328 
Q 3622 1225 3098 567 
Q 2575 -91 1691 -91 
Q 1453 -91 1209 -44 
Q 966 3 703 97 
z
M 1959 2075 
Q 2384 2075 2632 2365 
Q 2881 2656 2881 3163 
Q 2881 3666 2632 3958 
Q 2384 4250 1959 4250 
Q 1534 4250 1286 3958 
Q 1038 3666 1038 3163 
Q 1038 2656 1286 2365 
Q 1534 2075 1959 2075 
z
" transform="scale(0.015625)"/>
       </defs>
       <use xlink:href="#DejaVuSans-39"/>
       <use xlink:href="#DejaVuSans-36" x="63.623047"/>
      </g>
     </g>
    </g>
    <g id="ytick_17">
     <g id="text_24">
      <!-- 62 -->
      <g transform="translate(243.496094 256.795) scale(0.1 -0.1)">
       <use xlink:href="#DejaVuSans-36"/>
       <use xlink:href="#DejaVuSans-32" x="63.623047"/>
      </g>
     </g>
    </g>
    <g id="ytick_18">
     <g id="text_25">
      <!-- 48 -->
      <g transform="translate(243.496094 295.675) scale(0.1 -0.1)">
       <use xlink:href="#DejaVuSans-34"/>
       <use xlink:href="#DejaVuSans-38" x="63.623047"/>
      </g>
     </g>
    </g>
    <g id="ytick_19">
     <g id="text_26">
      <!-- 24 -->
      <g transform="translate(243.496094 334.555) scale(0.1 -0.1)">
       <use xlink:href="#DejaVuSans-32"/>
       <use xlink:href="#DejaVuSans-34" x="63.623047"/>
      </g>
     </g>
    </g>
    <g id="ytick_20">
     <g id="text_27">
      <!-- 0 -->
      <g transform="translate(243.496094 373.435) scale(0.1 -0.1)">
       <use xlink:href="#DejaVuSans-30"/>
      </g>
     </g>
    </g>
   </g>
  </g>
 </g>
 <defs>
  <clipPath id="p6ac3b6a701">
   <path d="M 399.016094 219.994688 
C 399.016094 199.571988 394.993267 179.347874 387.177839 160.47976 
C 379.36241 141.611646 367.90637 124.46647 353.46534 110.025441 
C 339.024311 95.584412 321.879135 84.128371 303.011021 76.312943 
C 284.142907 68.497514 263.918793 64.474688 243.496094 64.474688 
C 223.073394 64.474688 202.84928 68.497514 183.981166 76.312943 
C 165.113052 84.128371 147.967876 95.584412 133.526847 110.025441 
C 119.085818 124.46647 107.629778 141.611646 99.814349 160.47976 
C 91.99892 179.347874 87.976094 199.571988 87.976094 219.994688 
C 87.976094 240.417387 91.99892 260.641501 99.814349 279.509615 
C 107.629778 298.377729 119.085818 315.522905 133.526847 329.963934 
C 147.967876 344.404963 165.113052 355.861004 183.981166 363.676432 
C 202.84928 371.491861 223.073394 375.514688 243.496094 375.514688 
C 263.918793 375.514688 284.142907 371.491861 303.011021 363.676432 
C 321.879135 355.861004 339.024311 344.404963 353.46534 329.963934 
C 367.90637 315.522905 379.36241 298.377729 387.177839 279.509615 
C 394.993267 260.641501 399.016094 240.417387 399.016094 219.994688 
M 243.496094 219.994688 
C 243.496094 219.994688 243.496094 219.994688 243.496094 219.994688 
C 243.496094 219.994688 243.496094 219.994688 243.496094 219.994688 
C 243.496094 219.994688 243.496094 219.994688 243.496094 219.994688 
C 243.496094 219.994688 243.496094 219.994688 243.496094 219.994688 
C 243.496094 219.994688 243.496094 219.994688 243.496094 219.994688 
C 243.496094 219.994688 243.496094 219.994688 243.496094 219.994688 
C 243.496094 219.994688 243.496094 219.994688 243.496094 219.994688 
C 243.496094 219.994688 243.496094 219.994688 243.496094 219.994688 
C 243.496094 219.994688 243.496094 219.994688 243.496094 219.994688 
C 243.496094 219.994688 243.496094 219.994688 243.496094 219.994688 
C 243.496094 219.994688 243.496094 219.994688 243.496094 219.994688 
C 243.496094 219.994688 243.496094 219.994688 243.496094 219.994688 
C 243.496094 219.994688 243.496094 219.994688 243.496094 219.994688 
C 243.496094 219.994688 243.496094 219.994688 243.496094 219.994688 
C 243.496094 219.994688 243.496094 219.994688 243.496094 219.994688 
C 243.496094 219.994688 243.496094 219.994688 243.496094 219.994688 
z
"/>
  </clipPath>
 </defs>
</svg>
