<?xml version="1.0" encoding="utf-8" standalone="no"?>
<!DOCTYPE svg PUBLIC "-//W3C//DTD SVG 1.1//EN"
  "http://www.w3.org/Graphics/SVG/1.1/DTD/svg11.dtd">
<svg xmlns:xlink="http://www.w3.org/1999/xlink" width="720pt" height="360pt" viewBox="0 0 720 360" xmlns="http://www.w3.org/2000/svg" version="1.1">
 <metadata>
  <rdf:RDF xmlns:dc="http://purl.org/dc/elements/1.1/" xmlns:cc="http://creativecommons.org/ns#" xmlns:rdf="http://www.w3.org/1999/02/22-rdf-syntax-ns#">
   <cc:Work>
    <dc:type rdf:resource="http://purl.org/dc/dcmitype/StillImage"/>
    <dc:date>2025-01-01T22:53:32.653999</dc:date>
    <dc:format>image/svg+xml</dc:format>
    <dc:creator>
     <cc:Agent>
      <dc:title>Matplotlib v3.9.1, https://matplotlib.org/</dc:title>
     </cc:Agent>
    </dc:creator>
   </cc:Work>
  </rdf:RDF>
 </metadata>
 <defs>
  <style type="text/css">*{stroke-linejoin: round; stroke-linecap: butt}</style>
 </defs>
 <g id="figure_1">
  <g id="patch_1">
   <path d="M 0 360 
L 720 360 
L 720 0 
L 0 0 
z
" style="fill: #ffffff"/>
  </g>
  <g id="axes_1">
   <g id="patch_2">
    <path d="M 40.12 242.21 
L 353.8125 242.21 
L 353.8125 14.76 
L 40.12 14.76 
z
" style="fill: #ffffff"/>
   </g>
   <g id="patch_3">
    <path d="M 54.37875 242.21 
L 67.958512 242.21 
L 67.958512 47.862548 
L 54.37875 47.862548 
z
" clip-path="url(#p23c3a10812)" style="fill: #1f77b4; opacity: 0.3"/>
   </g>
   <g id="patch_4">
    <path d="M 71.353452 242.21 
L 84.933214 242.21 
L 84.933214 133.856996 
L 71.353452 133.856996 
z
" clip-path="url(#p23c3a10812)" style="fill: #1f77b4; opacity: 0.3"/>
   </g>
   <g id="patch_5">
    <path d="M 88.328155 242.21 
L 101.907917 242.21 
L 101.907917 164.814997 
L 88.328155 164.814997 
z
" clip-path="url(#p23c3a10812)" style="fill: #1f77b4; opacity: 0.3"/>
   </g>
   <g id="patch_6">
    <path d="M 105.302857 242.21 
L 118.882619 242.21 
L 118.882619 187.173553 
L 105.302857 187.173553 
z
" clip-path="url(#p23c3a10812)" style="fill: #1f77b4; opacity: 0.3"/>
   </g>
   <g id="patch_7">
    <path d="M 122.27756 242.21 
L 135.857321 242.21 
L 135.857321 211.251999 
L 122.27756 211.251999 
z
" clip-path="url(#p23c3a10812)" style="fill: #1f77b4; opacity: 0.3"/>
   </g>
   <g id="patch_8">
    <path d="M 139.252262 242.21 
L 152.832024 242.21 
L 152.832024 204.372443 
L 139.252262 204.372443 
z
" clip-path="url(#p23c3a10812)" style="fill: #1f77b4; opacity: 0.3"/>
   </g>
   <g id="patch_9">
    <path d="M 156.226964 242.21 
L 169.806726 242.21 
L 169.806726 231.890666 
L 156.226964 231.890666 
z
" clip-path="url(#p23c3a10812)" style="fill: #1f77b4; opacity: 0.3"/>
   </g>
   <g id="patch_10">
    <path d="M 173.201667 242.21 
L 186.781429 242.21 
L 186.781429 233.610555 
L 173.201667 233.610555 
z
" clip-path="url(#p23c3a10812)" style="fill: #1f77b4; opacity: 0.3"/>
   </g>
   <g id="patch_11">
    <path d="M 190.176369 242.21 
L 203.756131 242.21 
L 203.756131 238.770222 
L 190.176369 238.770222 
z
" clip-path="url(#p23c3a10812)" style="fill: #1f77b4; opacity: 0.3"/>
   </g>
   <g id="patch_12">
    <path d="M 207.151071 242.21 
L 220.730833 242.21 
L 220.730833 240.490111 
L 207.151071 240.490111 
z
" clip-path="url(#p23c3a10812)" style="fill: #1f77b4; opacity: 0.3"/>
   </g>
   <g id="patch_13">
    <path d="M 224.125774 242.21 
L 237.705536 242.21 
L 237.705536 237.050333 
L 224.125774 237.050333 
z
" clip-path="url(#p23c3a10812)" style="fill: #1f77b4; opacity: 0.3"/>
   </g>
   <g id="patch_14">
    <path d="M 241.100476 242.21 
L 254.680238 242.21 
L 254.680238 242.21 
L 241.100476 242.21 
z
" clip-path="url(#p23c3a10812)" style="fill: #1f77b4; opacity: 0.3"/>
   </g>
   <g id="patch_15">
    <path d="M 258.075179 242.21 
L 271.65494 242.21 
L 271.65494 238.770222 
L 258.075179 238.770222 
z
" clip-path="url(#p23c3a10812)" style="fill: #1f77b4; opacity: 0.3"/>
   </g>
   <g id="patch_16">
    <path d="M 275.049881 242.21 
L 288.629643 242.21 
L 288.629643 242.21 
L 275.049881 242.21 
z
" clip-path="url(#p23c3a10812)" style="fill: #1f77b4; opacity: 0.3"/>
   </g>
   <g id="patch_17">
    <path d="M 292.024583 242.21 
L 305.604345 242.21 
L 305.604345 242.21 
L 292.024583 242.21 
z
" clip-path="url(#p23c3a10812)" style="fill: #1f77b4; opacity: 0.3"/>
   </g>
   <g id="patch_18">
    <path d="M 308.999286 242.21 
L 322.579048 242.21 
L 322.579048 240.490111 
L 308.999286 240.490111 
z
" clip-path="url(#p23c3a10812)" style="fill: #1f77b4; opacity: 0.3"/>
   </g>
   <g id="patch_19">
    <path d="M 325.973988 242.21 
L 339.55375 242.21 
L 339.55375 233.610555 
L 325.973988 233.610555 
z
" clip-path="url(#p23c3a10812)" style="fill: #1f77b4; opacity: 0.3"/>
   </g>
   <g id="patch_20">
    <path d="M 54.37875 242.21 
L 67.958512 242.21 
L 67.958512 25.590952 
L 54.37875 25.590952 
z
" clip-path="url(#p23c3a10812)" style="fill: #ff7f0e; opacity: 0.3"/>
   </g>
   <g id="patch_21">
    <path d="M 71.353452 242.21 
L 84.933214 242.21 
L 84.933214 146.959071 
L 71.353452 146.959071 
z
" clip-path="url(#p23c3a10812)" style="fill: #ff7f0e; opacity: 0.3"/>
   </g>
   <g id="patch_22">
    <path d="M 88.328155 242.21 
L 101.907917 242.21 
L 101.907917 179.221483 
L 88.328155 179.221483 
z
" clip-path="url(#p23c3a10812)" style="fill: #ff7f0e; opacity: 0.3"/>
   </g>
   <g id="patch_23">
    <path d="M 105.302857 242.21 
L 118.882619 242.21 
L 118.882619 185.366704 
L 105.302857 185.366704 
z
" clip-path="url(#p23c3a10812)" style="fill: #ff7f0e; opacity: 0.3"/>
   </g>
   <g id="patch_24">
    <path d="M 122.27756 242.21 
L 135.857321 242.21 
L 135.857321 197.657146 
L 122.27756 197.657146 
z
" clip-path="url(#p23c3a10812)" style="fill: #ff7f0e; opacity: 0.3"/>
   </g>
   <g id="patch_25">
    <path d="M 139.252262 242.21 
L 152.832024 242.21 
L 152.832024 217.629115 
L 139.252262 217.629115 
z
" clip-path="url(#p23c3a10812)" style="fill: #ff7f0e; opacity: 0.3"/>
   </g>
   <g id="patch_26">
    <path d="M 156.226964 242.21 
L 169.806726 242.21 
L 169.806726 232.992168 
L 156.226964 232.992168 
z
" clip-path="url(#p23c3a10812)" style="fill: #ff7f0e; opacity: 0.3"/>
   </g>
   <g id="patch_27">
    <path d="M 173.201667 242.21 
L 186.781429 242.21 
L 186.781429 232.992168 
L 173.201667 232.992168 
z
" clip-path="url(#p23c3a10812)" style="fill: #ff7f0e; opacity: 0.3"/>
   </g>
   <g id="patch_28">
    <path d="M 190.176369 242.21 
L 203.756131 242.21 
L 203.756131 234.528473 
L 190.176369 234.528473 
z
" clip-path="url(#p23c3a10812)" style="fill: #ff7f0e; opacity: 0.3"/>
   </g>
   <g id="patch_29">
    <path d="M 207.151071 242.21 
L 220.730833 242.21 
L 220.730833 236.064779 
L 207.151071 236.064779 
z
" clip-path="url(#p23c3a10812)" style="fill: #ff7f0e; opacity: 0.3"/>
   </g>
   <g id="patch_30">
    <path d="M 224.125774 242.21 
L 237.705536 242.21 
L 237.705536 237.601084 
L 224.125774 237.601084 
z
" clip-path="url(#p23c3a10812)" style="fill: #ff7f0e; opacity: 0.3"/>
   </g>
   <g id="patch_31">
    <path d="M 241.100476 242.21 
L 254.680238 242.21 
L 254.680238 239.137389 
L 241.100476 239.137389 
z
" clip-path="url(#p23c3a10812)" style="fill: #ff7f0e; opacity: 0.3"/>
   </g>
   <g id="patch_32">
    <path d="M 258.075179 242.21 
L 271.65494 242.21 
L 271.65494 240.673695 
L 258.075179 240.673695 
z
" clip-path="url(#p23c3a10812)" style="fill: #ff7f0e; opacity: 0.3"/>
   </g>
   <g id="patch_33">
    <path d="M 275.049881 242.21 
L 288.629643 242.21 
L 288.629643 240.673695 
L 275.049881 240.673695 
z
" clip-path="url(#p23c3a10812)" style="fill: #ff7f0e; opacity: 0.3"/>
   </g>
   <g id="patch_34">
    <path d="M 292.024583 242.21 
L 305.604345 242.21 
L 305.604345 240.673695 
L 292.024583 240.673695 
z
" clip-path="url(#p23c3a10812)" style="fill: #ff7f0e; opacity: 0.3"/>
   </g>
   <g id="patch_35">
    <path d="M 308.999286 242.21 
L 322.579048 242.21 
L 322.579048 240.673695 
L 308.999286 240.673695 
z
" clip-path="url(#p23c3a10812)" style="fill: #ff7f0e; opacity: 0.3"/>
   </g>
   <g id="patch_36">
    <path d="M 325.973988 242.21 
L 339.55375 242.21 
L 339.55375 242.21 
L 325.973988 242.21 
z
" clip-path="url(#p23c3a10812)" style="fill: #ff7f0e; opacity: 0.3"/>
   </g>
   <g id="matplotlib.axis_1">
    <g id="xtick_1">
     <g id="line2d_1">
      <defs>
       <path id="m5990586fc4" d="M 0 0 
L 0 3.5 
" style="stroke: #000000; stroke-width: 0.8"/>
      </defs>
      <g>
       <use xlink:href="#m5990586fc4" x="61.168631" y="242.21" style="stroke: #000000; stroke-width: 0.8"/>
      </g>
     </g>
     <g id="text_1">
      <!-- running -->
      <g transform="translate(63.928006 287.7975) rotate(-90) scale(0.1 -0.1)">
       <defs>
        <path id="DejaVuSans-72" d="M 2631 2963 
Q 2534 3019 2420 3045 
Q 2306 3072 2169 3072 
Q 1681 3072 1420 2755 
Q 1159 2438 1159 1844 
L 1159 0 
L 581 0 
L 581 3500 
L 1159 3500 
L 1159 2956 
Q 1341 3275 1631 3429 
Q 1922 3584 2338 3584 
Q 2397 3584 2469 3576 
Q 2541 3569 2628 3553 
L 2631 2963 
z
" transform="scale(0.015625)"/>
        <path id="DejaVuSans-75" d="M 544 1381 
L 544 3500 
L 1119 3500 
L 1119 1403 
Q 1119 906 1312 657 
Q 1506 409 1894 409 
Q 2359 409 2629 706 
Q 2900 1003 2900 1516 
L 2900 3500 
L 3475 3500 
L 3475 0 
L 2900 0 
L 2900 538 
Q 2691 219 2414 64 
Q 2138 -91 1772 -91 
Q 1169 -91 856 284 
Q 544 659 544 1381 
z
M 1991 3584 
L 1991 3584 
z
" transform="scale(0.015625)"/>
        <path id="DejaVuSans-6e" d="M 3513 2113 
L 3513 0 
L 2938 0 
L 2938 2094 
Q 2938 2591 2744 2837 
Q 2550 3084 2163 3084 
Q 1697 3084 1428 2787 
Q 1159 2491 1159 1978 
L 1159 0 
L 581 0 
L 581 3500 
L 1159 3500 
L 1159 2956 
Q 1366 3272 1645 3428 
Q 1925 3584 2291 3584 
Q 2894 3584 3203 3211 
Q 3513 2838 3513 2113 
z
" transform="scale(0.015625)"/>
        <path id="DejaVuSans-69" d="M 603 3500 
L 1178 3500 
L 1178 0 
L 603 0 
L 603 3500 
z
M 603 4863 
L 1178 4863 
L 1178 4134 
L 603 4134 
L 603 4863 
z
" transform="scale(0.015625)"/>
        <path id="DejaVuSans-67" d="M 2906 1791 
Q 2906 2416 2648 2759 
Q 2391 3103 1925 3103 
Q 1463 3103 1205 2759 
Q 947 2416 947 1791 
Q 947 1169 1205 825 
Q 1463 481 1925 481 
Q 2391 481 2648 825 
Q 2906 1169 2906 1791 
z
M 3481 434 
Q 3481 -459 3084 -895 
Q 2688 -1331 1869 -1331 
Q 1566 -1331 1297 -1286 
Q 1028 -1241 775 -1147 
L 775 -588 
Q 1028 -725 1275 -790 
Q 1522 -856 1778 -856 
Q 2344 -856 2625 -561 
Q 2906 -266 2906 331 
L 2906 616 
Q 2728 306 2450 153 
Q 2172 0 1784 0 
Q 1141 0 747 490 
Q 353 981 353 1791 
Q 353 2603 747 3093 
Q 1141 3584 1784 3584 
Q 2172 3584 2450 3431 
Q 2728 3278 2906 2969 
L 2906 3500 
L 3481 3500 
L 3481 434 
z
" transform="scale(0.015625)"/>
       </defs>
       <use xlink:href="#DejaVuSans-72"/>
       <use xlink:href="#DejaVuSans-75" x="41.113281"/>
       <use xlink:href="#DejaVuSans-6e" x="104.492188"/>
       <use xlink:href="#DejaVuSans-6e" x="167.871094"/>
       <use xlink:href="#DejaVuSans-69" x="231.25"/>
       <use xlink:href="#DejaVuSans-6e" x="259.033203"/>
       <use xlink:href="#DejaVuSans-67" x="322.412109"/>
      </g>
     </g>
    </g>
    <g id="xtick_2">
     <g id="line2d_2">
      <g>
       <use xlink:href="#m5990586fc4" x="78.143333" y="242.21" style="stroke: #000000; stroke-width: 0.8"/>
      </g>
     </g>
     <g id="text_2">
      <!-- gym: ub -->
      <g transform="translate(80.902708 290.450625) rotate(-90) scale(0.1 -0.1)">
       <defs>
        <path id="DejaVuSans-79" d="M 2059 -325 
Q 1816 -950 1584 -1140 
Q 1353 -1331 966 -1331 
L 506 -1331 
L 506 -850 
L 844 -850 
Q 1081 -850 1212 -737 
Q 1344 -625 1503 -206 
L 1606 56 
L 191 3500 
L 800 3500 
L 1894 763 
L 2988 3500 
L 3597 3500 
L 2059 -325 
z
" transform="scale(0.015625)"/>
        <path id="DejaVuSans-6d" d="M 3328 2828 
Q 3544 3216 3844 3400 
Q 4144 3584 4550 3584 
Q 5097 3584 5394 3201 
Q 5691 2819 5691 2113 
L 5691 0 
L 5113 0 
L 5113 2094 
Q 5113 2597 4934 2840 
Q 4756 3084 4391 3084 
Q 3944 3084 3684 2787 
Q 3425 2491 3425 1978 
L 3425 0 
L 2847 0 
L 2847 2094 
Q 2847 2600 2669 2842 
Q 2491 3084 2119 3084 
Q 1678 3084 1418 2786 
Q 1159 2488 1159 1978 
L 1159 0 
L 581 0 
L 581 3500 
L 1159 3500 
L 1159 2956 
Q 1356 3278 1631 3431 
Q 1906 3584 2284 3584 
Q 2666 3584 2933 3390 
Q 3200 3197 3328 2828 
z
" transform="scale(0.015625)"/>
        <path id="DejaVuSans-3a" d="M 750 794 
L 1409 794 
L 1409 0 
L 750 0 
L 750 794 
z
M 750 3309 
L 1409 3309 
L 1409 2516 
L 750 2516 
L 750 3309 
z
" transform="scale(0.015625)"/>
        <path id="DejaVuSans-20" transform="scale(0.015625)"/>
        <path id="DejaVuSans-62" d="M 3116 1747 
Q 3116 2381 2855 2742 
Q 2594 3103 2138 3103 
Q 1681 3103 1420 2742 
Q 1159 2381 1159 1747 
Q 1159 1113 1420 752 
Q 1681 391 2138 391 
Q 2594 391 2855 752 
Q 3116 1113 3116 1747 
z
M 1159 2969 
Q 1341 3281 1617 3432 
Q 1894 3584 2278 3584 
Q 2916 3584 3314 3078 
Q 3713 2572 3713 1747 
Q 3713 922 3314 415 
Q 2916 -91 2278 -91 
Q 1894 -91 1617 61 
Q 1341 213 1159 525 
L 1159 0 
L 581 0 
L 581 4863 
L 1159 4863 
L 1159 2969 
z
" transform="scale(0.015625)"/>
       </defs>
       <use xlink:href="#DejaVuSans-67"/>
       <use xlink:href="#DejaVuSans-79" x="63.476562"/>
       <use xlink:href="#DejaVuSans-6d" x="122.65625"/>
       <use xlink:href="#DejaVuSans-3a" x="220.068359"/>
       <use xlink:href="#DejaVuSans-20" x="253.759766"/>
       <use xlink:href="#DejaVuSans-75" x="285.546875"/>
       <use xlink:href="#DejaVuSans-62" x="348.925781"/>
      </g>
     </g>
    </g>
    <g id="xtick_3">
     <g id="line2d_3">
      <g>
       <use xlink:href="#m5990586fc4" x="95.118036" y="242.21" style="stroke: #000000; stroke-width: 0.8"/>
      </g>
     </g>
     <g id="text_3">
      <!-- cycling -->
      <g transform="translate(97.877411 284.367813) rotate(-90) scale(0.1 -0.1)">
       <defs>
        <path id="DejaVuSans-63" d="M 3122 3366 
L 3122 2828 
Q 2878 2963 2633 3030 
Q 2388 3097 2138 3097 
Q 1578 3097 1268 2742 
Q 959 2388 959 1747 
Q 959 1106 1268 751 
Q 1578 397 2138 397 
Q 2388 397 2633 464 
Q 2878 531 3122 666 
L 3122 134 
Q 2881 22 2623 -34 
Q 2366 -91 2075 -91 
Q 1284 -91 818 406 
Q 353 903 353 1747 
Q 353 2603 823 3093 
Q 1294 3584 2113 3584 
Q 2378 3584 2631 3529 
Q 2884 3475 3122 3366 
z
" transform="scale(0.015625)"/>
        <path id="DejaVuSans-6c" d="M 603 4863 
L 1178 4863 
L 1178 0 
L 603 0 
L 603 4863 
z
" transform="scale(0.015625)"/>
       </defs>
       <use xlink:href="#DejaVuSans-63"/>
       <use xlink:href="#DejaVuSans-79" x="54.980469"/>
       <use xlink:href="#DejaVuSans-63" x="114.160156"/>
       <use xlink:href="#DejaVuSans-6c" x="169.140625"/>
       <use xlink:href="#DejaVuSans-69" x="196.923828"/>
       <use xlink:href="#DejaVuSans-6e" x="224.707031"/>
       <use xlink:href="#DejaVuSans-67" x="288.085938"/>
      </g>
     </g>
    </g>
    <g id="xtick_4">
     <g id="line2d_4">
      <g>
       <use xlink:href="#m5990586fc4" x="112.092738" y="242.21" style="stroke: #000000; stroke-width: 0.8"/>
      </g>
     </g>
     <g id="text_4">
      <!-- gym: c -->
      <g transform="translate(114.852113 283.263125) rotate(-90) scale(0.1 -0.1)">
       <use xlink:href="#DejaVuSans-67"/>
       <use xlink:href="#DejaVuSans-79" x="63.476562"/>
       <use xlink:href="#DejaVuSans-6d" x="122.65625"/>
       <use xlink:href="#DejaVuSans-3a" x="220.068359"/>
       <use xlink:href="#DejaVuSans-20" x="253.759766"/>
       <use xlink:href="#DejaVuSans-63" x="285.546875"/>
      </g>
     </g>
    </g>
    <g id="xtick_5">
     <g id="line2d_5">
      <g>
       <use xlink:href="#m5990586fc4" x="129.06744" y="242.21" style="stroke: #000000; stroke-width: 0.8"/>
      </g>
     </g>
     <g id="text_5">
      <!-- climbing -->
      <g transform="translate(131.826815 291.817813) rotate(-90) scale(0.1 -0.1)">
       <use xlink:href="#DejaVuSans-63"/>
       <use xlink:href="#DejaVuSans-6c" x="54.980469"/>
       <use xlink:href="#DejaVuSans-69" x="82.763672"/>
       <use xlink:href="#DejaVuSans-6d" x="110.546875"/>
       <use xlink:href="#DejaVuSans-62" x="207.958984"/>
       <use xlink:href="#DejaVuSans-69" x="271.435547"/>
       <use xlink:href="#DejaVuSans-6e" x="299.21875"/>
       <use xlink:href="#DejaVuSans-67" x="362.597656"/>
      </g>
     </g>
    </g>
    <g id="xtick_6">
     <g id="line2d_6">
      <g>
       <use xlink:href="#m5990586fc4" x="146.042143" y="242.21" style="stroke: #000000; stroke-width: 0.8"/>
      </g>
     </g>
     <g id="text_6">
      <!-- gym: lb -->
      <g transform="translate(148.801518 286.89125) rotate(-90) scale(0.1 -0.1)">
       <use xlink:href="#DejaVuSans-67"/>
       <use xlink:href="#DejaVuSans-79" x="63.476562"/>
       <use xlink:href="#DejaVuSans-6d" x="122.65625"/>
       <use xlink:href="#DejaVuSans-3a" x="220.068359"/>
       <use xlink:href="#DejaVuSans-20" x="253.759766"/>
       <use xlink:href="#DejaVuSans-6c" x="285.546875"/>
       <use xlink:href="#DejaVuSans-62" x="313.330078"/>
      </g>
     </g>
    </g>
    <g id="xtick_7">
     <g id="line2d_7">
      <g>
       <use xlink:href="#m5990586fc4" x="163.016845" y="242.21" style="stroke: #000000; stroke-width: 0.8"/>
      </g>
     </g>
     <g id="text_7">
      <!-- hiking -->
      <g transform="translate(165.77622 279.580312) rotate(-90) scale(0.1 -0.1)">
       <defs>
        <path id="DejaVuSans-68" d="M 3513 2113 
L 3513 0 
L 2938 0 
L 2938 2094 
Q 2938 2591 2744 2837 
Q 2550 3084 2163 3084 
Q 1697 3084 1428 2787 
Q 1159 2491 1159 1978 
L 1159 0 
L 581 0 
L 581 4863 
L 1159 4863 
L 1159 2956 
Q 1366 3272 1645 3428 
Q 1925 3584 2291 3584 
Q 2894 3584 3203 3211 
Q 3513 2838 3513 2113 
z
" transform="scale(0.015625)"/>
        <path id="DejaVuSans-6b" d="M 581 4863 
L 1159 4863 
L 1159 1991 
L 2875 3500 
L 3609 3500 
L 1753 1863 
L 3688 0 
L 2938 0 
L 1159 1709 
L 1159 0 
L 581 0 
L 581 4863 
z
" transform="scale(0.015625)"/>
       </defs>
       <use xlink:href="#DejaVuSans-68"/>
       <use xlink:href="#DejaVuSans-69" x="63.378906"/>
       <use xlink:href="#DejaVuSans-6b" x="91.162109"/>
       <use xlink:href="#DejaVuSans-69" x="149.072266"/>
       <use xlink:href="#DejaVuSans-6e" x="176.855469"/>
       <use xlink:href="#DejaVuSans-67" x="240.234375"/>
      </g>
     </g>
    </g>
    <g id="xtick_8">
     <g id="line2d_8">
      <g>
       <use xlink:href="#m5990586fc4" x="179.991548" y="242.21" style="stroke: #000000; stroke-width: 0.8"/>
      </g>
     </g>
     <g id="text_8">
      <!-- snowboarding -->
      <g transform="translate(182.750923 319.3975) rotate(-90) scale(0.1 -0.1)">
       <defs>
        <path id="DejaVuSans-73" d="M 2834 3397 
L 2834 2853 
Q 2591 2978 2328 3040 
Q 2066 3103 1784 3103 
Q 1356 3103 1142 2972 
Q 928 2841 928 2578 
Q 928 2378 1081 2264 
Q 1234 2150 1697 2047 
L 1894 2003 
Q 2506 1872 2764 1633 
Q 3022 1394 3022 966 
Q 3022 478 2636 193 
Q 2250 -91 1575 -91 
Q 1294 -91 989 -36 
Q 684 19 347 128 
L 347 722 
Q 666 556 975 473 
Q 1284 391 1588 391 
Q 1994 391 2212 530 
Q 2431 669 2431 922 
Q 2431 1156 2273 1281 
Q 2116 1406 1581 1522 
L 1381 1569 
Q 847 1681 609 1914 
Q 372 2147 372 2553 
Q 372 3047 722 3315 
Q 1072 3584 1716 3584 
Q 2034 3584 2315 3537 
Q 2597 3491 2834 3397 
z
" transform="scale(0.015625)"/>
        <path id="DejaVuSans-6f" d="M 1959 3097 
Q 1497 3097 1228 2736 
Q 959 2375 959 1747 
Q 959 1119 1226 758 
Q 1494 397 1959 397 
Q 2419 397 2687 759 
Q 2956 1122 2956 1747 
Q 2956 2369 2687 2733 
Q 2419 3097 1959 3097 
z
M 1959 3584 
Q 2709 3584 3137 3096 
Q 3566 2609 3566 1747 
Q 3566 888 3137 398 
Q 2709 -91 1959 -91 
Q 1206 -91 779 398 
Q 353 888 353 1747 
Q 353 2609 779 3096 
Q 1206 3584 1959 3584 
z
" transform="scale(0.015625)"/>
        <path id="DejaVuSans-77" d="M 269 3500 
L 844 3500 
L 1563 769 
L 2278 3500 
L 2956 3500 
L 3675 769 
L 4391 3500 
L 4966 3500 
L 4050 0 
L 3372 0 
L 2619 2869 
L 1863 0 
L 1184 0 
L 269 3500 
z
" transform="scale(0.015625)"/>
        <path id="DejaVuSans-61" d="M 2194 1759 
Q 1497 1759 1228 1600 
Q 959 1441 959 1056 
Q 959 750 1161 570 
Q 1363 391 1709 391 
Q 2188 391 2477 730 
Q 2766 1069 2766 1631 
L 2766 1759 
L 2194 1759 
z
M 3341 1997 
L 3341 0 
L 2766 0 
L 2766 531 
Q 2569 213 2275 61 
Q 1981 -91 1556 -91 
Q 1019 -91 701 211 
Q 384 513 384 1019 
Q 384 1609 779 1909 
Q 1175 2209 1959 2209 
L 2766 2209 
L 2766 2266 
Q 2766 2663 2505 2880 
Q 2244 3097 1772 3097 
Q 1472 3097 1187 3025 
Q 903 2953 641 2809 
L 641 3341 
Q 956 3463 1253 3523 
Q 1550 3584 1831 3584 
Q 2591 3584 2966 3190 
Q 3341 2797 3341 1997 
z
" transform="scale(0.015625)"/>
        <path id="DejaVuSans-64" d="M 2906 2969 
L 2906 4863 
L 3481 4863 
L 3481 0 
L 2906 0 
L 2906 525 
Q 2725 213 2448 61 
Q 2172 -91 1784 -91 
Q 1150 -91 751 415 
Q 353 922 353 1747 
Q 353 2572 751 3078 
Q 1150 3584 1784 3584 
Q 2172 3584 2448 3432 
Q 2725 3281 2906 2969 
z
M 947 1747 
Q 947 1113 1208 752 
Q 1469 391 1925 391 
Q 2381 391 2643 752 
Q 2906 1113 2906 1747 
Q 2906 2381 2643 2742 
Q 2381 3103 1925 3103 
Q 1469 3103 1208 2742 
Q 947 2381 947 1747 
z
" transform="scale(0.015625)"/>
       </defs>
       <use xlink:href="#DejaVuSans-73"/>
       <use xlink:href="#DejaVuSans-6e" x="52.099609"/>
       <use xlink:href="#DejaVuSans-6f" x="115.478516"/>
       <use xlink:href="#DejaVuSans-77" x="176.660156"/>
       <use xlink:href="#DejaVuSans-62" x="258.447266"/>
       <use xlink:href="#DejaVuSans-6f" x="321.923828"/>
       <use xlink:href="#DejaVuSans-61" x="383.105469"/>
       <use xlink:href="#DejaVuSans-72" x="444.384766"/>
       <use xlink:href="#DejaVuSans-64" x="483.748047"/>
       <use xlink:href="#DejaVuSans-69" x="547.224609"/>
       <use xlink:href="#DejaVuSans-6e" x="575.007812"/>
       <use xlink:href="#DejaVuSans-67" x="638.386719"/>
      </g>
     </g>
    </g>
    <g id="xtick_9">
     <g id="line2d_9">
      <g>
       <use xlink:href="#m5990586fc4" x="196.96625" y="242.21" style="stroke: #000000; stroke-width: 0.8"/>
      </g>
     </g>
     <g id="text_9">
      <!-- tennis -->
      <g transform="translate(199.725625 279.945938) rotate(-90) scale(0.1 -0.1)">
       <defs>
        <path id="DejaVuSans-74" d="M 1172 4494 
L 1172 3500 
L 2356 3500 
L 2356 3053 
L 1172 3053 
L 1172 1153 
Q 1172 725 1289 603 
Q 1406 481 1766 481 
L 2356 481 
L 2356 0 
L 1766 0 
Q 1100 0 847 248 
Q 594 497 594 1153 
L 594 3053 
L 172 3053 
L 172 3500 
L 594 3500 
L 594 4494 
L 1172 4494 
z
" transform="scale(0.015625)"/>
        <path id="DejaVuSans-65" d="M 3597 1894 
L 3597 1613 
L 953 1613 
Q 991 1019 1311 708 
Q 1631 397 2203 397 
Q 2534 397 2845 478 
Q 3156 559 3463 722 
L 3463 178 
Q 3153 47 2828 -22 
Q 2503 -91 2169 -91 
Q 1331 -91 842 396 
Q 353 884 353 1716 
Q 353 2575 817 3079 
Q 1281 3584 2069 3584 
Q 2775 3584 3186 3129 
Q 3597 2675 3597 1894 
z
M 3022 2063 
Q 3016 2534 2758 2815 
Q 2500 3097 2075 3097 
Q 1594 3097 1305 2825 
Q 1016 2553 972 2059 
L 3022 2063 
z
" transform="scale(0.015625)"/>
       </defs>
       <use xlink:href="#DejaVuSans-74"/>
       <use xlink:href="#DejaVuSans-65" x="39.208984"/>
       <use xlink:href="#DejaVuSans-6e" x="100.732422"/>
       <use xlink:href="#DejaVuSans-6e" x="164.111328"/>
       <use xlink:href="#DejaVuSans-69" x="227.490234"/>
       <use xlink:href="#DejaVuSans-73" x="255.273438"/>
      </g>
     </g>
    </g>
    <g id="xtick_10">
     <g id="line2d_10">
      <g>
       <use xlink:href="#m5990586fc4" x="213.940952" y="242.21" style="stroke: #000000; stroke-width: 0.8"/>
      </g>
     </g>
     <g id="text_10">
      <!-- elliptical -->
      <g transform="translate(216.700327 291.149063) rotate(-90) scale(0.1 -0.1)">
       <defs>
        <path id="DejaVuSans-70" d="M 1159 525 
L 1159 -1331 
L 581 -1331 
L 581 3500 
L 1159 3500 
L 1159 2969 
Q 1341 3281 1617 3432 
Q 1894 3584 2278 3584 
Q 2916 3584 3314 3078 
Q 3713 2572 3713 1747 
Q 3713 922 3314 415 
Q 2916 -91 2278 -91 
Q 1894 -91 1617 61 
Q 1341 213 1159 525 
z
M 3116 1747 
Q 3116 2381 2855 2742 
Q 2594 3103 2138 3103 
Q 1681 3103 1420 2742 
Q 1159 2381 1159 1747 
Q 1159 1113 1420 752 
Q 1681 391 2138 391 
Q 2594 391 2855 752 
Q 3116 1113 3116 1747 
z
" transform="scale(0.015625)"/>
       </defs>
       <use xlink:href="#DejaVuSans-65"/>
       <use xlink:href="#DejaVuSans-6c" x="61.523438"/>
       <use xlink:href="#DejaVuSans-6c" x="89.306641"/>
       <use xlink:href="#DejaVuSans-69" x="117.089844"/>
       <use xlink:href="#DejaVuSans-70" x="144.873047"/>
       <use xlink:href="#DejaVuSans-74" x="208.349609"/>
       <use xlink:href="#DejaVuSans-69" x="247.558594"/>
       <use xlink:href="#DejaVuSans-63" x="275.341797"/>
       <use xlink:href="#DejaVuSans-61" x="330.322266"/>
       <use xlink:href="#DejaVuSans-6c" x="391.601562"/>
      </g>
     </g>
    </g>
    <g id="xtick_11">
     <g id="line2d_11">
      <g>
       <use xlink:href="#m5990586fc4" x="230.915655" y="242.21" style="stroke: #000000; stroke-width: 0.8"/>
      </g>
     </g>
     <g id="text_11">
      <!-- swimming -->
      <g transform="translate(233.67503 300.320938) rotate(-90) scale(0.1 -0.1)">
       <use xlink:href="#DejaVuSans-73"/>
       <use xlink:href="#DejaVuSans-77" x="52.099609"/>
       <use xlink:href="#DejaVuSans-69" x="133.886719"/>
       <use xlink:href="#DejaVuSans-6d" x="161.669922"/>
       <use xlink:href="#DejaVuSans-6d" x="259.082031"/>
       <use xlink:href="#DejaVuSans-69" x="356.494141"/>
       <use xlink:href="#DejaVuSans-6e" x="384.277344"/>
       <use xlink:href="#DejaVuSans-67" x="447.65625"/>
      </g>
     </g>
    </g>
    <g id="xtick_12">
     <g id="line2d_12">
      <g>
       <use xlink:href="#m5990586fc4" x="247.890357" y="242.21" style="stroke: #000000; stroke-width: 0.8"/>
      </g>
     </g>
     <g id="text_12">
      <!-- volleyball -->
      <g transform="translate(250.649732 296.908437) rotate(-90) scale(0.1 -0.1)">
       <defs>
        <path id="DejaVuSans-76" d="M 191 3500 
L 800 3500 
L 1894 563 
L 2988 3500 
L 3597 3500 
L 2284 0 
L 1503 0 
L 191 3500 
z
" transform="scale(0.015625)"/>
       </defs>
       <use xlink:href="#DejaVuSans-76"/>
       <use xlink:href="#DejaVuSans-6f" x="59.179688"/>
       <use xlink:href="#DejaVuSans-6c" x="120.361328"/>
       <use xlink:href="#DejaVuSans-6c" x="148.144531"/>
       <use xlink:href="#DejaVuSans-65" x="175.927734"/>
       <use xlink:href="#DejaVuSans-79" x="237.451172"/>
       <use xlink:href="#DejaVuSans-62" x="296.630859"/>
       <use xlink:href="#DejaVuSans-61" x="360.107422"/>
       <use xlink:href="#DejaVuSans-6c" x="421.386719"/>
       <use xlink:href="#DejaVuSans-6c" x="449.169922"/>
      </g>
     </g>
    </g>
    <g id="xtick_13">
     <g id="line2d_13">
      <g>
       <use xlink:href="#m5990586fc4" x="264.86506" y="242.21" style="stroke: #000000; stroke-width: 0.8"/>
      </g>
     </g>
     <g id="text_13">
      <!-- cross-country skiing -->
      <g transform="translate(267.624435 349.402187) rotate(-90) scale(0.1 -0.1)">
       <defs>
        <path id="DejaVuSans-2d" d="M 313 2009 
L 1997 2009 
L 1997 1497 
L 313 1497 
L 313 2009 
z
" transform="scale(0.015625)"/>
       </defs>
       <use xlink:href="#DejaVuSans-63"/>
       <use xlink:href="#DejaVuSans-72" x="54.980469"/>
       <use xlink:href="#DejaVuSans-6f" x="93.84375"/>
       <use xlink:href="#DejaVuSans-73" x="155.025391"/>
       <use xlink:href="#DejaVuSans-73" x="207.125"/>
       <use xlink:href="#DejaVuSans-2d" x="259.224609"/>
       <use xlink:href="#DejaVuSans-63" x="295.308594"/>
       <use xlink:href="#DejaVuSans-6f" x="350.289062"/>
       <use xlink:href="#DejaVuSans-75" x="411.470703"/>
       <use xlink:href="#DejaVuSans-6e" x="474.849609"/>
       <use xlink:href="#DejaVuSans-74" x="538.228516"/>
       <use xlink:href="#DejaVuSans-72" x="577.4375"/>
       <use xlink:href="#DejaVuSans-79" x="618.550781"/>
       <use xlink:href="#DejaVuSans-20" x="677.730469"/>
       <use xlink:href="#DejaVuSans-73" x="709.517578"/>
       <use xlink:href="#DejaVuSans-6b" x="761.617188"/>
       <use xlink:href="#DejaVuSans-69" x="819.527344"/>
       <use xlink:href="#DejaVuSans-69" x="847.310547"/>
       <use xlink:href="#DejaVuSans-6e" x="875.09375"/>
       <use xlink:href="#DejaVuSans-67" x="938.472656"/>
      </g>
     </g>
    </g>
    <g id="xtick_14">
     <g id="line2d_14">
      <g>
       <use xlink:href="#m5990586fc4" x="281.839762" y="242.21" style="stroke: #000000; stroke-width: 0.8"/>
      </g>
     </g>
     <g id="text_14">
      <!-- padel -->
      <g transform="translate(284.599137 276.96625) rotate(-90) scale(0.1 -0.1)">
       <use xlink:href="#DejaVuSans-70"/>
       <use xlink:href="#DejaVuSans-61" x="63.476562"/>
       <use xlink:href="#DejaVuSans-64" x="124.755859"/>
       <use xlink:href="#DejaVuSans-65" x="188.232422"/>
       <use xlink:href="#DejaVuSans-6c" x="249.755859"/>
      </g>
     </g>
    </g>
    <g id="xtick_15">
     <g id="line2d_15">
      <g>
       <use xlink:href="#m5990586fc4" x="298.814464" y="242.21" style="stroke: #000000; stroke-width: 0.8"/>
      </g>
     </g>
     <g id="text_15">
      <!-- via ferrata -->
      <g transform="translate(301.573839 301.11) rotate(-90) scale(0.1 -0.1)">
       <defs>
        <path id="DejaVuSans-66" d="M 2375 4863 
L 2375 4384 
L 1825 4384 
Q 1516 4384 1395 4259 
Q 1275 4134 1275 3809 
L 1275 3500 
L 2222 3500 
L 2222 3053 
L 1275 3053 
L 1275 0 
L 697 0 
L 697 3053 
L 147 3053 
L 147 3500 
L 697 3500 
L 697 3744 
Q 697 4328 969 4595 
Q 1241 4863 1831 4863 
L 2375 4863 
z
" transform="scale(0.015625)"/>
       </defs>
       <use xlink:href="#DejaVuSans-76"/>
       <use xlink:href="#DejaVuSans-69" x="59.179688"/>
       <use xlink:href="#DejaVuSans-61" x="86.962891"/>
       <use xlink:href="#DejaVuSans-20" x="148.242188"/>
       <use xlink:href="#DejaVuSans-66" x="180.029297"/>
       <use xlink:href="#DejaVuSans-65" x="215.234375"/>
       <use xlink:href="#DejaVuSans-72" x="276.757812"/>
       <use xlink:href="#DejaVuSans-72" x="316.121094"/>
       <use xlink:href="#DejaVuSans-61" x="357.234375"/>
       <use xlink:href="#DejaVuSans-74" x="418.513672"/>
       <use xlink:href="#DejaVuSans-61" x="457.722656"/>
      </g>
     </g>
    </g>
    <g id="xtick_16">
     <g id="line2d_16">
      <g>
       <use xlink:href="#m5990586fc4" x="315.789167" y="242.21" style="stroke: #000000; stroke-width: 0.8"/>
      </g>
     </g>
     <g id="text_16">
      <!-- yoga -->
      <g transform="translate(318.548542 273.724063) rotate(-90) scale(0.1 -0.1)">
       <use xlink:href="#DejaVuSans-79"/>
       <use xlink:href="#DejaVuSans-6f" x="59.179688"/>
       <use xlink:href="#DejaVuSans-67" x="120.361328"/>
       <use xlink:href="#DejaVuSans-61" x="183.837891"/>
      </g>
     </g>
    </g>
    <g id="xtick_17">
     <g id="line2d_17">
      <g>
       <use xlink:href="#m5990586fc4" x="332.763869" y="242.21" style="stroke: #000000; stroke-width: 0.8"/>
      </g>
     </g>
     <g id="text_17">
      <!-- football -->
      <g transform="translate(335.523244 286.920937) rotate(-90) scale(0.1 -0.1)">
       <use xlink:href="#DejaVuSans-66"/>
       <use xlink:href="#DejaVuSans-6f" x="35.205078"/>
       <use xlink:href="#DejaVuSans-6f" x="96.386719"/>
       <use xlink:href="#DejaVuSans-74" x="157.568359"/>
       <use xlink:href="#DejaVuSans-62" x="196.777344"/>
       <use xlink:href="#DejaVuSans-61" x="260.253906"/>
       <use xlink:href="#DejaVuSans-6c" x="321.533203"/>
       <use xlink:href="#DejaVuSans-6c" x="349.316406"/>
      </g>
     </g>
    </g>
   </g>
   <g id="matplotlib.axis_2">
    <g id="ytick_1">
     <g id="line2d_18">
      <defs>
       <path id="m28adeed3fc" d="M 0 0 
L -3.5 0 
" style="stroke: #000000; stroke-width: 0.8"/>
      </defs>
      <g>
       <use xlink:href="#m28adeed3fc" x="40.12" y="242.21" style="stroke: #000000; stroke-width: 0.8"/>
      </g>
     </g>
     <g id="text_18">
      <!-- 0.00 -->
      <g transform="translate(10.854375 246.009219) scale(0.1 -0.1)">
       <defs>
        <path id="DejaVuSans-30" d="M 2034 4250 
Q 1547 4250 1301 3770 
Q 1056 3291 1056 2328 
Q 1056 1369 1301 889 
Q 1547 409 2034 409 
Q 2525 409 2770 889 
Q 3016 1369 3016 2328 
Q 3016 3291 2770 3770 
Q 2525 4250 2034 4250 
z
M 2034 4750 
Q 2819 4750 3233 4129 
Q 3647 3509 3647 2328 
Q 3647 1150 3233 529 
Q 2819 -91 2034 -91 
Q 1250 -91 836 529 
Q 422 1150 422 2328 
Q 422 3509 836 4129 
Q 1250 4750 2034 4750 
z
" transform="scale(0.015625)"/>
        <path id="DejaVuSans-2e" d="M 684 794 
L 1344 794 
L 1344 0 
L 684 0 
L 684 794 
z
" transform="scale(0.015625)"/>
       </defs>
       <use xlink:href="#DejaVuSans-30"/>
       <use xlink:href="#DejaVuSans-2e" x="63.623047"/>
       <use xlink:href="#DejaVuSans-30" x="95.410156"/>
       <use xlink:href="#DejaVuSans-30" x="159.033203"/>
      </g>
     </g>
    </g>
    <g id="ytick_2">
     <g id="line2d_19">
      <g>
       <use xlink:href="#m28adeed3fc" x="40.12" y="214.863766" style="stroke: #000000; stroke-width: 0.8"/>
      </g>
     </g>
     <g id="text_19">
      <!-- 0.05 -->
      <g transform="translate(10.854375 218.662984) scale(0.1 -0.1)">
       <defs>
        <path id="DejaVuSans-35" d="M 691 4666 
L 3169 4666 
L 3169 4134 
L 1269 4134 
L 1269 2991 
Q 1406 3038 1543 3061 
Q 1681 3084 1819 3084 
Q 2600 3084 3056 2656 
Q 3513 2228 3513 1497 
Q 3513 744 3044 326 
Q 2575 -91 1722 -91 
Q 1428 -91 1123 -41 
Q 819 9 494 109 
L 494 744 
Q 775 591 1075 516 
Q 1375 441 1709 441 
Q 2250 441 2565 725 
Q 2881 1009 2881 1497 
Q 2881 1984 2565 2268 
Q 2250 2553 1709 2553 
Q 1456 2553 1204 2497 
Q 953 2441 691 2322 
L 691 4666 
z
" transform="scale(0.015625)"/>
       </defs>
       <use xlink:href="#DejaVuSans-30"/>
       <use xlink:href="#DejaVuSans-2e" x="63.623047"/>
       <use xlink:href="#DejaVuSans-30" x="95.410156"/>
       <use xlink:href="#DejaVuSans-35" x="159.033203"/>
      </g>
     </g>
    </g>
    <g id="ytick_3">
     <g id="line2d_20">
      <g>
       <use xlink:href="#m28adeed3fc" x="40.12" y="187.517531" style="stroke: #000000; stroke-width: 0.8"/>
      </g>
     </g>
     <g id="text_20">
      <!-- 0.10 -->
      <g transform="translate(10.854375 191.31675) scale(0.1 -0.1)">
       <defs>
        <path id="DejaVuSans-31" d="M 794 531 
L 1825 531 
L 1825 4091 
L 703 3866 
L 703 4441 
L 1819 4666 
L 2450 4666 
L 2450 531 
L 3481 531 
L 3481 0 
L 794 0 
L 794 531 
z
" transform="scale(0.015625)"/>
       </defs>
       <use xlink:href="#DejaVuSans-30"/>
       <use xlink:href="#DejaVuSans-2e" x="63.623047"/>
       <use xlink:href="#DejaVuSans-31" x="95.410156"/>
       <use xlink:href="#DejaVuSans-30" x="159.033203"/>
      </g>
     </g>
    </g>
    <g id="ytick_4">
     <g id="line2d_21">
      <g>
       <use xlink:href="#m28adeed3fc" x="40.12" y="160.171297" style="stroke: #000000; stroke-width: 0.8"/>
      </g>
     </g>
     <g id="text_21">
      <!-- 0.15 -->
      <g transform="translate(10.854375 163.970516) scale(0.1 -0.1)">
       <use xlink:href="#DejaVuSans-30"/>
       <use xlink:href="#DejaVuSans-2e" x="63.623047"/>
       <use xlink:href="#DejaVuSans-31" x="95.410156"/>
       <use xlink:href="#DejaVuSans-35" x="159.033203"/>
      </g>
     </g>
    </g>
    <g id="ytick_5">
     <g id="line2d_22">
      <g>
       <use xlink:href="#m28adeed3fc" x="40.12" y="132.825062" style="stroke: #000000; stroke-width: 0.8"/>
      </g>
     </g>
     <g id="text_22">
      <!-- 0.20 -->
      <g transform="translate(10.854375 136.624281) scale(0.1 -0.1)">
       <defs>
        <path id="DejaVuSans-32" d="M 1228 531 
L 3431 531 
L 3431 0 
L 469 0 
L 469 531 
Q 828 903 1448 1529 
Q 2069 2156 2228 2338 
Q 2531 2678 2651 2914 
Q 2772 3150 2772 3378 
Q 2772 3750 2511 3984 
Q 2250 4219 1831 4219 
Q 1534 4219 1204 4116 
Q 875 4013 500 3803 
L 500 4441 
Q 881 4594 1212 4672 
Q 1544 4750 1819 4750 
Q 2544 4750 2975 4387 
Q 3406 4025 3406 3419 
Q 3406 3131 3298 2873 
Q 3191 2616 2906 2266 
Q 2828 2175 2409 1742 
Q 1991 1309 1228 531 
z
" transform="scale(0.015625)"/>
       </defs>
       <use xlink:href="#DejaVuSans-30"/>
       <use xlink:href="#DejaVuSans-2e" x="63.623047"/>
       <use xlink:href="#DejaVuSans-32" x="95.410156"/>
       <use xlink:href="#DejaVuSans-30" x="159.033203"/>
      </g>
     </g>
    </g>
    <g id="ytick_6">
     <g id="line2d_23">
      <g>
       <use xlink:href="#m28adeed3fc" x="40.12" y="105.478828" style="stroke: #000000; stroke-width: 0.8"/>
      </g>
     </g>
     <g id="text_23">
      <!-- 0.25 -->
      <g transform="translate(10.854375 109.278047) scale(0.1 -0.1)">
       <use xlink:href="#DejaVuSans-30"/>
       <use xlink:href="#DejaVuSans-2e" x="63.623047"/>
       <use xlink:href="#DejaVuSans-32" x="95.410156"/>
       <use xlink:href="#DejaVuSans-35" x="159.033203"/>
      </g>
     </g>
    </g>
    <g id="ytick_7">
     <g id="line2d_24">
      <g>
       <use xlink:href="#m28adeed3fc" x="40.12" y="78.132594" style="stroke: #000000; stroke-width: 0.8"/>
      </g>
     </g>
     <g id="text_24">
      <!-- 0.30 -->
      <g transform="translate(10.854375 81.931812) scale(0.1 -0.1)">
       <defs>
        <path id="DejaVuSans-33" d="M 2597 2516 
Q 3050 2419 3304 2112 
Q 3559 1806 3559 1356 
Q 3559 666 3084 287 
Q 2609 -91 1734 -91 
Q 1441 -91 1130 -33 
Q 819 25 488 141 
L 488 750 
Q 750 597 1062 519 
Q 1375 441 1716 441 
Q 2309 441 2620 675 
Q 2931 909 2931 1356 
Q 2931 1769 2642 2001 
Q 2353 2234 1838 2234 
L 1294 2234 
L 1294 2753 
L 1863 2753 
Q 2328 2753 2575 2939 
Q 2822 3125 2822 3475 
Q 2822 3834 2567 4026 
Q 2313 4219 1838 4219 
Q 1578 4219 1281 4162 
Q 984 4106 628 3988 
L 628 4550 
Q 988 4650 1302 4700 
Q 1616 4750 1894 4750 
Q 2613 4750 3031 4423 
Q 3450 4097 3450 3541 
Q 3450 3153 3228 2886 
Q 3006 2619 2597 2516 
z
" transform="scale(0.015625)"/>
       </defs>
       <use xlink:href="#DejaVuSans-30"/>
       <use xlink:href="#DejaVuSans-2e" x="63.623047"/>
       <use xlink:href="#DejaVuSans-33" x="95.410156"/>
       <use xlink:href="#DejaVuSans-30" x="159.033203"/>
      </g>
     </g>
    </g>
    <g id="ytick_8">
     <g id="line2d_25">
      <g>
       <use xlink:href="#m28adeed3fc" x="40.12" y="50.786359" style="stroke: #000000; stroke-width: 0.8"/>
      </g>
     </g>
     <g id="text_25">
      <!-- 0.35 -->
      <g transform="translate(10.854375 54.585578) scale(0.1 -0.1)">
       <use xlink:href="#DejaVuSans-30"/>
       <use xlink:href="#DejaVuSans-2e" x="63.623047"/>
       <use xlink:href="#DejaVuSans-33" x="95.410156"/>
       <use xlink:href="#DejaVuSans-35" x="159.033203"/>
      </g>
     </g>
    </g>
    <g id="ytick_9">
     <g id="line2d_26">
      <g>
       <use xlink:href="#m28adeed3fc" x="40.12" y="23.440125" style="stroke: #000000; stroke-width: 0.8"/>
      </g>
     </g>
     <g id="text_26">
      <!-- 0.40 -->
      <g transform="translate(10.854375 27.239344) scale(0.1 -0.1)">
       <defs>
        <path id="DejaVuSans-34" d="M 2419 4116 
L 825 1625 
L 2419 1625 
L 2419 4116 
z
M 2253 4666 
L 3047 4666 
L 3047 1625 
L 3713 1625 
L 3713 1100 
L 3047 1100 
L 3047 0 
L 2419 0 
L 2419 1100 
L 313 1100 
L 313 1709 
L 2253 4666 
z
" transform="scale(0.015625)"/>
       </defs>
       <use xlink:href="#DejaVuSans-30"/>
       <use xlink:href="#DejaVuSans-2e" x="63.623047"/>
       <use xlink:href="#DejaVuSans-34" x="95.410156"/>
       <use xlink:href="#DejaVuSans-30" x="159.033203"/>
      </g>
     </g>
    </g>
   </g>
   <g id="patch_37">
    <path d="M 40.12 242.21 
L 40.12 14.76 
" style="fill: none; stroke: #000000; stroke-width: 0.8; stroke-linejoin: miter; stroke-linecap: square"/>
   </g>
   <g id="patch_38">
    <path d="M 353.8125 242.21 
L 353.8125 14.76 
" style="fill: none; stroke: #000000; stroke-width: 0.8; stroke-linejoin: miter; stroke-linecap: square"/>
   </g>
   <g id="patch_39">
    <path d="M 40.12 242.21 
L 353.8125 242.21 
" style="fill: none; stroke: #000000; stroke-width: 0.8; stroke-linejoin: miter; stroke-linecap: square"/>
   </g>
   <g id="patch_40">
    <path d="M 40.12 14.76 
L 353.8125 14.76 
" style="fill: none; stroke: #000000; stroke-width: 0.8; stroke-linejoin: miter; stroke-linecap: square"/>
   </g>
   <g id="text_27">
    <!-- Relative frequencies of various disciplines -->
    <g transform="translate(71.042188 8.76) scale(0.12 -0.12)">
     <defs>
      <path id="DejaVuSans-52" d="M 2841 2188 
Q 3044 2119 3236 1894 
Q 3428 1669 3622 1275 
L 4263 0 
L 3584 0 
L 2988 1197 
Q 2756 1666 2539 1819 
Q 2322 1972 1947 1972 
L 1259 1972 
L 1259 0 
L 628 0 
L 628 4666 
L 2053 4666 
Q 2853 4666 3247 4331 
Q 3641 3997 3641 3322 
Q 3641 2881 3436 2590 
Q 3231 2300 2841 2188 
z
M 1259 4147 
L 1259 2491 
L 2053 2491 
Q 2509 2491 2742 2702 
Q 2975 2913 2975 3322 
Q 2975 3731 2742 3939 
Q 2509 4147 2053 4147 
L 1259 4147 
z
" transform="scale(0.015625)"/>
      <path id="DejaVuSans-71" d="M 947 1747 
Q 947 1113 1208 752 
Q 1469 391 1925 391 
Q 2381 391 2643 752 
Q 2906 1113 2906 1747 
Q 2906 2381 2643 2742 
Q 2381 3103 1925 3103 
Q 1469 3103 1208 2742 
Q 947 2381 947 1747 
z
M 2906 525 
Q 2725 213 2448 61 
Q 2172 -91 1784 -91 
Q 1150 -91 751 415 
Q 353 922 353 1747 
Q 353 2572 751 3078 
Q 1150 3584 1784 3584 
Q 2172 3584 2448 3432 
Q 2725 3281 2906 2969 
L 2906 3500 
L 3481 3500 
L 3481 -1331 
L 2906 -1331 
L 2906 525 
z
" transform="scale(0.015625)"/>
     </defs>
     <use xlink:href="#DejaVuSans-52"/>
     <use xlink:href="#DejaVuSans-65" x="64.982422"/>
     <use xlink:href="#DejaVuSans-6c" x="126.505859"/>
     <use xlink:href="#DejaVuSans-61" x="154.289062"/>
     <use xlink:href="#DejaVuSans-74" x="215.568359"/>
     <use xlink:href="#DejaVuSans-69" x="254.777344"/>
     <use xlink:href="#DejaVuSans-76" x="282.560547"/>
     <use xlink:href="#DejaVuSans-65" x="341.740234"/>
     <use xlink:href="#DejaVuSans-20" x="403.263672"/>
     <use xlink:href="#DejaVuSans-66" x="435.050781"/>
     <use xlink:href="#DejaVuSans-72" x="470.255859"/>
     <use xlink:href="#DejaVuSans-65" x="509.119141"/>
     <use xlink:href="#DejaVuSans-71" x="570.642578"/>
     <use xlink:href="#DejaVuSans-75" x="634.119141"/>
     <use xlink:href="#DejaVuSans-65" x="697.498047"/>
     <use xlink:href="#DejaVuSans-6e" x="759.021484"/>
     <use xlink:href="#DejaVuSans-63" x="822.400391"/>
     <use xlink:href="#DejaVuSans-69" x="877.380859"/>
     <use xlink:href="#DejaVuSans-65" x="905.164062"/>
     <use xlink:href="#DejaVuSans-73" x="966.6875"/>
     <use xlink:href="#DejaVuSans-20" x="1018.787109"/>
     <use xlink:href="#DejaVuSans-6f" x="1050.574219"/>
     <use xlink:href="#DejaVuSans-66" x="1111.755859"/>
     <use xlink:href="#DejaVuSans-20" x="1146.960938"/>
     <use xlink:href="#DejaVuSans-76" x="1178.748047"/>
     <use xlink:href="#DejaVuSans-61" x="1237.927734"/>
     <use xlink:href="#DejaVuSans-72" x="1299.207031"/>
     <use xlink:href="#DejaVuSans-69" x="1340.320312"/>
     <use xlink:href="#DejaVuSans-6f" x="1368.103516"/>
     <use xlink:href="#DejaVuSans-75" x="1429.285156"/>
     <use xlink:href="#DejaVuSans-73" x="1492.664062"/>
     <use xlink:href="#DejaVuSans-20" x="1544.763672"/>
     <use xlink:href="#DejaVuSans-64" x="1576.550781"/>
     <use xlink:href="#DejaVuSans-69" x="1640.027344"/>
     <use xlink:href="#DejaVuSans-73" x="1667.810547"/>
     <use xlink:href="#DejaVuSans-63" x="1719.910156"/>
     <use xlink:href="#DejaVuSans-69" x="1774.890625"/>
     <use xlink:href="#DejaVuSans-70" x="1802.673828"/>
     <use xlink:href="#DejaVuSans-6c" x="1866.150391"/>
     <use xlink:href="#DejaVuSans-69" x="1893.933594"/>
     <use xlink:href="#DejaVuSans-6e" x="1921.716797"/>
     <use xlink:href="#DejaVuSans-65" x="1985.095703"/>
     <use xlink:href="#DejaVuSans-73" x="2046.619141"/>
    </g>
   </g>
   <g id="legend_1">
    <g id="patch_41">
     <path d="M 289.3625 52.11625 
L 346.8125 52.11625 
Q 348.8125 52.11625 348.8125 50.11625 
L 348.8125 21.76 
Q 348.8125 19.76 346.8125 19.76 
L 289.3625 19.76 
Q 287.3625 19.76 287.3625 21.76 
L 287.3625 50.11625 
Q 287.3625 52.11625 289.3625 52.11625 
z
" style="fill: #ffffff; opacity: 0.8; stroke: #cccccc; stroke-linejoin: miter"/>
    </g>
    <g id="patch_42">
     <path d="M 291.3625 31.358437 
L 311.3625 31.358437 
L 311.3625 24.358437 
L 291.3625 24.358437 
z
" style="fill: #1f77b4; opacity: 0.3"/>
    </g>
    <g id="text_28">
     <!-- 2024 -->
     <g transform="translate(319.3625 31.358437) scale(0.1 -0.1)">
      <use xlink:href="#DejaVuSans-32"/>
      <use xlink:href="#DejaVuSans-30" x="63.623047"/>
      <use xlink:href="#DejaVuSans-32" x="127.246094"/>
      <use xlink:href="#DejaVuSans-34" x="190.869141"/>
     </g>
    </g>
    <g id="patch_43">
     <path d="M 291.3625 46.036563 
L 311.3625 46.036563 
L 311.3625 39.036563 
L 291.3625 39.036563 
z
" style="fill: #ff7f0e; opacity: 0.3"/>
    </g>
    <g id="text_29">
     <!-- 2023 -->
     <g transform="translate(319.3625 46.036563) scale(0.1 -0.1)">
      <use xlink:href="#DejaVuSans-32"/>
      <use xlink:href="#DejaVuSans-30" x="63.623047"/>
      <use xlink:href="#DejaVuSans-32" x="127.246094"/>
      <use xlink:href="#DejaVuSans-33" x="190.869141"/>
     </g>
    </g>
   </g>
  </g>
  <g id="axes_2">
   <g id="patch_44">
    <path d="M 387.5425 242.21 
L 701.235 242.21 
L 701.235 14.76 
L 387.5425 14.76 
z
" style="fill: #ffffff"/>
   </g>
   <g id="patch_45">
    <path d="M 403.070104 242.21 
L 416.488238 242.21 
L 416.488238 163.27255 
L 403.070104 163.27255 
z
" clip-path="url(#p37a3dc26f4)" style="fill: #1f77b4; opacity: 0.3"/>
   </g>
   <g id="patch_46">
    <path d="M 416.488238 242.21 
L 429.906372 242.21 
L 429.906372 38.441235 
L 416.488238 38.441235 
z
" clip-path="url(#p37a3dc26f4)" style="fill: #1f77b4; opacity: 0.3"/>
   </g>
   <g id="patch_47">
    <path d="M 429.906372 242.21 
L 443.324506 242.21 
L 443.324506 64.1418 
L 429.906372 64.1418 
z
" clip-path="url(#p37a3dc26f4)" style="fill: #1f77b4; opacity: 0.3"/>
   </g>
   <g id="patch_48">
    <path d="M 443.324506 242.21 
L 456.74264 242.21 
L 456.74264 188.973115 
L 443.324506 188.973115 
z
" clip-path="url(#p37a3dc26f4)" style="fill: #1f77b4; opacity: 0.3"/>
   </g>
   <g id="patch_49">
    <path d="M 456.74264 242.21 
L 470.160774 242.21 
L 470.160774 205.494907 
L 456.74264 205.494907 
z
" clip-path="url(#p37a3dc26f4)" style="fill: #1f77b4; opacity: 0.3"/>
   </g>
   <g id="patch_50">
    <path d="M 470.160774 242.21 
L 483.578909 242.21 
L 483.578909 231.195472 
L 470.160774 231.195472 
z
" clip-path="url(#p37a3dc26f4)" style="fill: #1f77b4; opacity: 0.3"/>
   </g>
   <g id="patch_51">
    <path d="M 483.578909 242.21 
L 496.997043 242.21 
L 496.997043 240.374245 
L 483.578909 240.374245 
z
" clip-path="url(#p37a3dc26f4)" style="fill: #1f77b4; opacity: 0.3"/>
   </g>
   <g id="patch_52">
    <path d="M 496.997043 242.21 
L 510.415177 242.21 
L 510.415177 234.866981 
L 496.997043 234.866981 
z
" clip-path="url(#p37a3dc26f4)" style="fill: #1f77b4; opacity: 0.3"/>
   </g>
   <g id="patch_53">
    <path d="M 510.415177 242.21 
L 523.833311 242.21 
L 523.833311 242.21 
L 510.415177 242.21 
z
" clip-path="url(#p37a3dc26f4)" style="fill: #1f77b4; opacity: 0.3"/>
   </g>
   <g id="patch_54">
    <path d="M 523.833311 242.21 
L 537.251445 242.21 
L 537.251445 242.21 
L 523.833311 242.21 
z
" clip-path="url(#p37a3dc26f4)" style="fill: #1f77b4; opacity: 0.3"/>
   </g>
   <g id="patch_55">
    <path d="M 537.251445 242.21 
L 550.669579 242.21 
L 550.669579 240.374245 
L 537.251445 240.374245 
z
" clip-path="url(#p37a3dc26f4)" style="fill: #1f77b4; opacity: 0.3"/>
   </g>
   <g id="patch_56">
    <path d="M 550.669579 242.21 
L 564.087713 242.21 
L 564.087713 240.374245 
L 550.669579 240.374245 
z
" clip-path="url(#p37a3dc26f4)" style="fill: #1f77b4; opacity: 0.3"/>
   </g>
   <g id="patch_57">
    <path d="M 564.087713 242.21 
L 577.505847 242.21 
L 577.505847 242.21 
L 564.087713 242.21 
z
" clip-path="url(#p37a3dc26f4)" style="fill: #1f77b4; opacity: 0.3"/>
   </g>
   <g id="patch_58">
    <path d="M 577.505847 242.21 
L 590.923981 242.21 
L 590.923981 242.21 
L 577.505847 242.21 
z
" clip-path="url(#p37a3dc26f4)" style="fill: #1f77b4; opacity: 0.3"/>
   </g>
   <g id="patch_59">
    <path d="M 590.923981 242.21 
L 604.342115 242.21 
L 604.342115 242.21 
L 590.923981 242.21 
z
" clip-path="url(#p37a3dc26f4)" style="fill: #1f77b4; opacity: 0.3"/>
   </g>
   <g id="patch_60">
    <path d="M 604.342115 242.21 
L 617.760249 242.21 
L 617.760249 238.538491 
L 604.342115 238.538491 
z
" clip-path="url(#p37a3dc26f4)" style="fill: #1f77b4; opacity: 0.3"/>
   </g>
   <g id="patch_61">
    <path d="M 617.760249 242.21 
L 631.178383 242.21 
L 631.178383 240.374245 
L 617.760249 240.374245 
z
" clip-path="url(#p37a3dc26f4)" style="fill: #1f77b4; opacity: 0.3"/>
   </g>
   <g id="patch_62">
    <path d="M 631.178383 242.21 
L 644.596517 242.21 
L 644.596517 242.21 
L 631.178383 242.21 
z
" clip-path="url(#p37a3dc26f4)" style="fill: #1f77b4; opacity: 0.3"/>
   </g>
   <g id="patch_63">
    <path d="M 644.596517 242.21 
L 658.014651 242.21 
L 658.014651 240.374245 
L 644.596517 240.374245 
z
" clip-path="url(#p37a3dc26f4)" style="fill: #1f77b4; opacity: 0.3"/>
   </g>
   <g id="patch_64">
    <path d="M 658.014651 242.21 
L 671.432785 242.21 
L 671.432785 240.374245 
L 658.014651 240.374245 
z
" clip-path="url(#p37a3dc26f4)" style="fill: #1f77b4; opacity: 0.3"/>
   </g>
   <g id="patch_65">
    <path d="M 401.80125 242.21 
L 409.477818 242.21 
L 409.477818 192.644625 
L 401.80125 192.644625 
z
" clip-path="url(#p37a3dc26f4)" style="fill: #ff7f0e; opacity: 0.3"/>
   </g>
   <g id="patch_66">
    <path d="M 409.477818 242.21 
L 417.154387 242.21 
L 417.154387 174.287078 
L 409.477818 174.287078 
z
" clip-path="url(#p37a3dc26f4)" style="fill: #ff7f0e; opacity: 0.3"/>
   </g>
   <g id="patch_67">
    <path d="M 417.154387 242.21 
L 424.830955 242.21 
L 424.830955 166.94406 
L 417.154387 166.94406 
z
" clip-path="url(#p37a3dc26f4)" style="fill: #ff7f0e; opacity: 0.3"/>
   </g>
   <g id="patch_68">
    <path d="M 424.830955 242.21 
L 432.507524 242.21 
L 432.507524 34.769726 
L 424.830955 34.769726 
z
" clip-path="url(#p37a3dc26f4)" style="fill: #ff7f0e; opacity: 0.3"/>
   </g>
   <g id="patch_69">
    <path d="M 432.507524 242.21 
L 440.184092 242.21 
L 440.184092 121.050194 
L 432.507524 121.050194 
z
" clip-path="url(#p37a3dc26f4)" style="fill: #ff7f0e; opacity: 0.3"/>
   </g>
   <g id="patch_70">
    <path d="M 440.184092 242.21 
L 447.86066 242.21 
L 447.86066 207.330662 
L 440.184092 207.330662 
z
" clip-path="url(#p37a3dc26f4)" style="fill: #ff7f0e; opacity: 0.3"/>
   </g>
   <g id="patch_71">
    <path d="M 447.86066 242.21 
L 455.537229 242.21 
L 455.537229 231.195472 
L 447.86066 231.195472 
z
" clip-path="url(#p37a3dc26f4)" style="fill: #ff7f0e; opacity: 0.3"/>
   </g>
   <g id="patch_72">
    <path d="M 455.537229 242.21 
L 463.213797 242.21 
L 463.213797 218.34519 
L 455.537229 218.34519 
z
" clip-path="url(#p37a3dc26f4)" style="fill: #ff7f0e; opacity: 0.3"/>
   </g>
   <g id="patch_73">
    <path d="M 463.213797 242.21 
L 470.890366 242.21 
L 470.890366 207.330662 
L 463.213797 207.330662 
z
" clip-path="url(#p37a3dc26f4)" style="fill: #ff7f0e; opacity: 0.3"/>
   </g>
   <g id="patch_74">
    <path d="M 470.890366 242.21 
L 478.566934 242.21 
L 478.566934 234.866981 
L 470.890366 234.866981 
z
" clip-path="url(#p37a3dc26f4)" style="fill: #ff7f0e; opacity: 0.3"/>
   </g>
   <g id="patch_75">
    <path d="M 478.566934 242.21 
L 486.243503 242.21 
L 486.243503 234.866981 
L 478.566934 234.866981 
z
" clip-path="url(#p37a3dc26f4)" style="fill: #ff7f0e; opacity: 0.3"/>
   </g>
   <g id="patch_76">
    <path d="M 486.243503 242.21 
L 493.920071 242.21 
L 493.920071 242.21 
L 486.243503 242.21 
z
" clip-path="url(#p37a3dc26f4)" style="fill: #ff7f0e; opacity: 0.3"/>
   </g>
   <g id="patch_77">
    <path d="M 493.920071 242.21 
L 501.596639 242.21 
L 501.596639 238.538491 
L 493.920071 238.538491 
z
" clip-path="url(#p37a3dc26f4)" style="fill: #ff7f0e; opacity: 0.3"/>
   </g>
   <g id="patch_78">
    <path d="M 501.596639 242.21 
L 509.273208 242.21 
L 509.273208 240.374245 
L 501.596639 240.374245 
z
" clip-path="url(#p37a3dc26f4)" style="fill: #ff7f0e; opacity: 0.3"/>
   </g>
   <g id="patch_79">
    <path d="M 509.273208 242.21 
L 516.949776 242.21 
L 516.949776 236.702736 
L 509.273208 236.702736 
z
" clip-path="url(#p37a3dc26f4)" style="fill: #ff7f0e; opacity: 0.3"/>
   </g>
   <g id="patch_80">
    <path d="M 516.949776 242.21 
L 524.626345 242.21 
L 524.626345 242.21 
L 516.949776 242.21 
z
" clip-path="url(#p37a3dc26f4)" style="fill: #ff7f0e; opacity: 0.3"/>
   </g>
   <g id="patch_81">
    <path d="M 524.626345 242.21 
L 532.302913 242.21 
L 532.302913 242.21 
L 524.626345 242.21 
z
" clip-path="url(#p37a3dc26f4)" style="fill: #ff7f0e; opacity: 0.3"/>
   </g>
   <g id="patch_82">
    <path d="M 532.302913 242.21 
L 539.979481 242.21 
L 539.979481 242.21 
L 532.302913 242.21 
z
" clip-path="url(#p37a3dc26f4)" style="fill: #ff7f0e; opacity: 0.3"/>
   </g>
   <g id="patch_83">
    <path d="M 539.979481 242.21 
L 547.65605 242.21 
L 547.65605 242.21 
L 539.979481 242.21 
z
" clip-path="url(#p37a3dc26f4)" style="fill: #ff7f0e; opacity: 0.3"/>
   </g>
   <g id="patch_84">
    <path d="M 547.65605 242.21 
L 555.332618 242.21 
L 555.332618 240.374245 
L 547.65605 240.374245 
z
" clip-path="url(#p37a3dc26f4)" style="fill: #ff7f0e; opacity: 0.3"/>
   </g>
   <g id="patch_85">
    <path d="M 403.070104 242.21 
L 417.265412 242.21 
L 417.265412 121.050194 
L 403.070104 121.050194 
z
" clip-path="url(#p37a3dc26f4)" style="fill: #2ca02c; opacity: 0.3"/>
   </g>
   <g id="patch_86">
    <path d="M 417.265412 242.21 
L 431.460719 242.21 
L 431.460719 25.590952 
L 417.265412 25.590952 
z
" clip-path="url(#p37a3dc26f4)" style="fill: #2ca02c; opacity: 0.3"/>
   </g>
   <g id="patch_87">
    <path d="M 431.460719 242.21 
L 445.656026 242.21 
L 445.656026 80.663592 
L 431.460719 80.663592 
z
" clip-path="url(#p37a3dc26f4)" style="fill: #2ca02c; opacity: 0.3"/>
   </g>
   <g id="patch_88">
    <path d="M 445.656026 242.21 
L 459.851333 242.21 
L 459.851333 209.166416 
L 445.656026 209.166416 
z
" clip-path="url(#p37a3dc26f4)" style="fill: #2ca02c; opacity: 0.3"/>
   </g>
   <g id="patch_89">
    <path d="M 459.851333 242.21 
L 474.046641 242.21 
L 474.046641 216.509435 
L 459.851333 216.509435 
z
" clip-path="url(#p37a3dc26f4)" style="fill: #2ca02c; opacity: 0.3"/>
   </g>
   <g id="patch_90">
    <path d="M 474.046641 242.21 
L 488.241948 242.21 
L 488.241948 233.031227 
L 474.046641 233.031227 
z
" clip-path="url(#p37a3dc26f4)" style="fill: #2ca02c; opacity: 0.3"/>
   </g>
   <g id="patch_91">
    <path d="M 488.241948 242.21 
L 502.437255 242.21 
L 502.437255 231.195472 
L 488.241948 231.195472 
z
" clip-path="url(#p37a3dc26f4)" style="fill: #2ca02c; opacity: 0.3"/>
   </g>
   <g id="patch_92">
    <path d="M 502.437255 242.21 
L 516.632563 242.21 
L 516.632563 240.374245 
L 502.437255 240.374245 
z
" clip-path="url(#p37a3dc26f4)" style="fill: #2ca02c; opacity: 0.3"/>
   </g>
   <g id="patch_93">
    <path d="M 516.632563 242.21 
L 530.82787 242.21 
L 530.82787 238.538491 
L 516.632563 238.538491 
z
" clip-path="url(#p37a3dc26f4)" style="fill: #2ca02c; opacity: 0.3"/>
   </g>
   <g id="patch_94">
    <path d="M 530.82787 242.21 
L 545.023177 242.21 
L 545.023177 242.21 
L 530.82787 242.21 
z
" clip-path="url(#p37a3dc26f4)" style="fill: #2ca02c; opacity: 0.3"/>
   </g>
   <g id="patch_95">
    <path d="M 545.023177 242.21 
L 559.218484 242.21 
L 559.218484 240.374245 
L 545.023177 240.374245 
z
" clip-path="url(#p37a3dc26f4)" style="fill: #2ca02c; opacity: 0.3"/>
   </g>
   <g id="patch_96">
    <path d="M 559.218484 242.21 
L 573.413792 242.21 
L 573.413792 242.21 
L 559.218484 242.21 
z
" clip-path="url(#p37a3dc26f4)" style="fill: #2ca02c; opacity: 0.3"/>
   </g>
   <g id="patch_97">
    <path d="M 573.413792 242.21 
L 587.609099 242.21 
L 587.609099 242.21 
L 573.413792 242.21 
z
" clip-path="url(#p37a3dc26f4)" style="fill: #2ca02c; opacity: 0.3"/>
   </g>
   <g id="patch_98">
    <path d="M 587.609099 242.21 
L 601.804406 242.21 
L 601.804406 242.21 
L 587.609099 242.21 
z
" clip-path="url(#p37a3dc26f4)" style="fill: #2ca02c; opacity: 0.3"/>
   </g>
   <g id="patch_99">
    <path d="M 601.804406 242.21 
L 615.999714 242.21 
L 615.999714 242.21 
L 601.804406 242.21 
z
" clip-path="url(#p37a3dc26f4)" style="fill: #2ca02c; opacity: 0.3"/>
   </g>
   <g id="patch_100">
    <path d="M 615.999714 242.21 
L 630.195021 242.21 
L 630.195021 240.374245 
L 615.999714 240.374245 
z
" clip-path="url(#p37a3dc26f4)" style="fill: #2ca02c; opacity: 0.3"/>
   </g>
   <g id="patch_101">
    <path d="M 630.195021 242.21 
L 644.390328 242.21 
L 644.390328 238.538491 
L 630.195021 238.538491 
z
" clip-path="url(#p37a3dc26f4)" style="fill: #2ca02c; opacity: 0.3"/>
   </g>
   <g id="patch_102">
    <path d="M 644.390328 242.21 
L 658.585635 242.21 
L 658.585635 240.374245 
L 644.390328 240.374245 
z
" clip-path="url(#p37a3dc26f4)" style="fill: #2ca02c; opacity: 0.3"/>
   </g>
   <g id="patch_103">
    <path d="M 658.585635 242.21 
L 672.780943 242.21 
L 672.780943 242.21 
L 658.585635 242.21 
z
" clip-path="url(#p37a3dc26f4)" style="fill: #2ca02c; opacity: 0.3"/>
   </g>
   <g id="patch_104">
    <path d="M 672.780943 242.21 
L 686.97625 242.21 
L 686.97625 238.538491 
L 672.780943 238.538491 
z
" clip-path="url(#p37a3dc26f4)" style="fill: #2ca02c; opacity: 0.3"/>
   </g>
   <g id="matplotlib.axis_3">
    <g id="xtick_18">
     <g id="line2d_27">
      <path d="M 401.80125 242.21 
L 401.80125 14.76 
" clip-path="url(#p37a3dc26f4)" style="fill: none; stroke: #b0b0b0; stroke-width: 0.8; stroke-linecap: square"/>
     </g>
     <g id="line2d_28">
      <g>
       <use xlink:href="#m5990586fc4" x="401.80125" y="242.21" style="stroke: #000000; stroke-width: 0.8"/>
      </g>
     </g>
     <g id="text_30">
      <!-- 0 -->
      <g transform="translate(398.62 256.808437) scale(0.1 -0.1)">
       <use xlink:href="#DejaVuSans-30"/>
      </g>
     </g>
    </g>
    <g id="xtick_19">
     <g id="line2d_29">
      <path d="M 465.243964 242.21 
L 465.243964 14.76 
" clip-path="url(#p37a3dc26f4)" style="fill: none; stroke: #b0b0b0; stroke-width: 0.8; stroke-linecap: square"/>
     </g>
     <g id="line2d_30">
      <g>
       <use xlink:href="#m5990586fc4" x="465.243964" y="242.21" style="stroke: #000000; stroke-width: 0.8"/>
      </g>
     </g>
     <g id="text_31">
      <!-- 50 -->
      <g transform="translate(458.881464 256.808437) scale(0.1 -0.1)">
       <use xlink:href="#DejaVuSans-35"/>
       <use xlink:href="#DejaVuSans-30" x="63.623047"/>
      </g>
     </g>
    </g>
    <g id="xtick_20">
     <g id="line2d_31">
      <path d="M 528.686678 242.21 
L 528.686678 14.76 
" clip-path="url(#p37a3dc26f4)" style="fill: none; stroke: #b0b0b0; stroke-width: 0.8; stroke-linecap: square"/>
     </g>
     <g id="line2d_32">
      <g>
       <use xlink:href="#m5990586fc4" x="528.686678" y="242.21" style="stroke: #000000; stroke-width: 0.8"/>
      </g>
     </g>
     <g id="text_32">
      <!-- 100 -->
      <g transform="translate(519.142928 256.808437) scale(0.1 -0.1)">
       <use xlink:href="#DejaVuSans-31"/>
       <use xlink:href="#DejaVuSans-30" x="63.623047"/>
       <use xlink:href="#DejaVuSans-30" x="127.246094"/>
      </g>
     </g>
    </g>
    <g id="xtick_21">
     <g id="line2d_33">
      <path d="M 592.129392 242.21 
L 592.129392 14.76 
" clip-path="url(#p37a3dc26f4)" style="fill: none; stroke: #b0b0b0; stroke-width: 0.8; stroke-linecap: square"/>
     </g>
     <g id="line2d_34">
      <g>
       <use xlink:href="#m5990586fc4" x="592.129392" y="242.21" style="stroke: #000000; stroke-width: 0.8"/>
      </g>
     </g>
     <g id="text_33">
      <!-- 150 -->
      <g transform="translate(582.585642 256.808437) scale(0.1 -0.1)">
       <use xlink:href="#DejaVuSans-31"/>
       <use xlink:href="#DejaVuSans-35" x="63.623047"/>
       <use xlink:href="#DejaVuSans-30" x="127.246094"/>
      </g>
     </g>
    </g>
    <g id="xtick_22">
     <g id="line2d_35">
      <path d="M 655.572107 242.21 
L 655.572107 14.76 
" clip-path="url(#p37a3dc26f4)" style="fill: none; stroke: #b0b0b0; stroke-width: 0.8; stroke-linecap: square"/>
     </g>
     <g id="line2d_36">
      <g>
       <use xlink:href="#m5990586fc4" x="655.572107" y="242.21" style="stroke: #000000; stroke-width: 0.8"/>
      </g>
     </g>
     <g id="text_34">
      <!-- 200 -->
      <g transform="translate(646.028357 256.808437) scale(0.1 -0.1)">
       <use xlink:href="#DejaVuSans-32"/>
       <use xlink:href="#DejaVuSans-30" x="63.623047"/>
       <use xlink:href="#DejaVuSans-30" x="127.246094"/>
      </g>
     </g>
    </g>
   </g>
   <g id="matplotlib.axis_4">
    <g id="ytick_10">
     <g id="line2d_37">
      <path d="M 387.5425 242.21 
L 701.235 242.21 
" clip-path="url(#p37a3dc26f4)" style="fill: none; stroke: #b0b0b0; stroke-width: 0.8; stroke-linecap: square"/>
     </g>
     <g id="line2d_38">
      <g>
       <use xlink:href="#m28adeed3fc" x="387.5425" y="242.21" style="stroke: #000000; stroke-width: 0.8"/>
      </g>
     </g>
     <g id="text_35">
      <!-- 0 -->
      <g transform="translate(374.18 246.009219) scale(0.1 -0.1)">
       <use xlink:href="#DejaVuSans-30"/>
      </g>
     </g>
    </g>
    <g id="ytick_11">
     <g id="line2d_39">
      <path d="M 387.5425 205.494907 
L 701.235 205.494907 
" clip-path="url(#p37a3dc26f4)" style="fill: none; stroke: #b0b0b0; stroke-width: 0.8; stroke-linecap: square"/>
     </g>
     <g id="line2d_40">
      <g>
       <use xlink:href="#m28adeed3fc" x="387.5425" y="205.494907" style="stroke: #000000; stroke-width: 0.8"/>
      </g>
     </g>
     <g id="text_36">
      <!-- 20 -->
      <g transform="translate(367.8175 209.294126) scale(0.1 -0.1)">
       <use xlink:href="#DejaVuSans-32"/>
       <use xlink:href="#DejaVuSans-30" x="63.623047"/>
      </g>
     </g>
    </g>
    <g id="ytick_12">
     <g id="line2d_41">
      <path d="M 387.5425 168.779814 
L 701.235 168.779814 
" clip-path="url(#p37a3dc26f4)" style="fill: none; stroke: #b0b0b0; stroke-width: 0.8; stroke-linecap: square"/>
     </g>
     <g id="line2d_42">
      <g>
       <use xlink:href="#m28adeed3fc" x="387.5425" y="168.779814" style="stroke: #000000; stroke-width: 0.8"/>
      </g>
     </g>
     <g id="text_37">
      <!-- 40 -->
      <g transform="translate(367.8175 172.579033) scale(0.1 -0.1)">
       <use xlink:href="#DejaVuSans-34"/>
       <use xlink:href="#DejaVuSans-30" x="63.623047"/>
      </g>
     </g>
    </g>
    <g id="ytick_13">
     <g id="line2d_43">
      <path d="M 387.5425 132.064722 
L 701.235 132.064722 
" clip-path="url(#p37a3dc26f4)" style="fill: none; stroke: #b0b0b0; stroke-width: 0.8; stroke-linecap: square"/>
     </g>
     <g id="line2d_44">
      <g>
       <use xlink:href="#m28adeed3fc" x="387.5425" y="132.064722" style="stroke: #000000; stroke-width: 0.8"/>
      </g>
     </g>
     <g id="text_38">
      <!-- 60 -->
      <g transform="translate(367.8175 135.86394) scale(0.1 -0.1)">
       <defs>
        <path id="DejaVuSans-36" d="M 2113 2584 
Q 1688 2584 1439 2293 
Q 1191 2003 1191 1497 
Q 1191 994 1439 701 
Q 1688 409 2113 409 
Q 2538 409 2786 701 
Q 3034 994 3034 1497 
Q 3034 2003 2786 2293 
Q 2538 2584 2113 2584 
z
M 3366 4563 
L 3366 3988 
Q 3128 4100 2886 4159 
Q 2644 4219 2406 4219 
Q 1781 4219 1451 3797 
Q 1122 3375 1075 2522 
Q 1259 2794 1537 2939 
Q 1816 3084 2150 3084 
Q 2853 3084 3261 2657 
Q 3669 2231 3669 1497 
Q 3669 778 3244 343 
Q 2819 -91 2113 -91 
Q 1303 -91 875 529 
Q 447 1150 447 2328 
Q 447 3434 972 4092 
Q 1497 4750 2381 4750 
Q 2619 4750 2861 4703 
Q 3103 4656 3366 4563 
z
" transform="scale(0.015625)"/>
       </defs>
       <use xlink:href="#DejaVuSans-36"/>
       <use xlink:href="#DejaVuSans-30" x="63.623047"/>
      </g>
     </g>
    </g>
    <g id="ytick_14">
     <g id="line2d_45">
      <path d="M 387.5425 95.349629 
L 701.235 95.349629 
" clip-path="url(#p37a3dc26f4)" style="fill: none; stroke: #b0b0b0; stroke-width: 0.8; stroke-linecap: square"/>
     </g>
     <g id="line2d_46">
      <g>
       <use xlink:href="#m28adeed3fc" x="387.5425" y="95.349629" style="stroke: #000000; stroke-width: 0.8"/>
      </g>
     </g>
     <g id="text_39">
      <!-- 80 -->
      <g transform="translate(367.8175 99.148847) scale(0.1 -0.1)">
       <defs>
        <path id="DejaVuSans-38" d="M 2034 2216 
Q 1584 2216 1326 1975 
Q 1069 1734 1069 1313 
Q 1069 891 1326 650 
Q 1584 409 2034 409 
Q 2484 409 2743 651 
Q 3003 894 3003 1313 
Q 3003 1734 2745 1975 
Q 2488 2216 2034 2216 
z
M 1403 2484 
Q 997 2584 770 2862 
Q 544 3141 544 3541 
Q 544 4100 942 4425 
Q 1341 4750 2034 4750 
Q 2731 4750 3128 4425 
Q 3525 4100 3525 3541 
Q 3525 3141 3298 2862 
Q 3072 2584 2669 2484 
Q 3125 2378 3379 2068 
Q 3634 1759 3634 1313 
Q 3634 634 3220 271 
Q 2806 -91 2034 -91 
Q 1263 -91 848 271 
Q 434 634 434 1313 
Q 434 1759 690 2068 
Q 947 2378 1403 2484 
z
M 1172 3481 
Q 1172 3119 1398 2916 
Q 1625 2713 2034 2713 
Q 2441 2713 2670 2916 
Q 2900 3119 2900 3481 
Q 2900 3844 2670 4047 
Q 2441 4250 2034 4250 
Q 1625 4250 1398 4047 
Q 1172 3844 1172 3481 
z
" transform="scale(0.015625)"/>
       </defs>
       <use xlink:href="#DejaVuSans-38"/>
       <use xlink:href="#DejaVuSans-30" x="63.623047"/>
      </g>
     </g>
    </g>
    <g id="ytick_15">
     <g id="line2d_47">
      <path d="M 387.5425 58.634536 
L 701.235 58.634536 
" clip-path="url(#p37a3dc26f4)" style="fill: none; stroke: #b0b0b0; stroke-width: 0.8; stroke-linecap: square"/>
     </g>
     <g id="line2d_48">
      <g>
       <use xlink:href="#m28adeed3fc" x="387.5425" y="58.634536" style="stroke: #000000; stroke-width: 0.8"/>
      </g>
     </g>
     <g id="text_40">
      <!-- 100 -->
      <g transform="translate(361.455 62.433755) scale(0.1 -0.1)">
       <use xlink:href="#DejaVuSans-31"/>
       <use xlink:href="#DejaVuSans-30" x="63.623047"/>
       <use xlink:href="#DejaVuSans-30" x="127.246094"/>
      </g>
     </g>
    </g>
    <g id="ytick_16">
     <g id="line2d_49">
      <path d="M 387.5425 21.919443 
L 701.235 21.919443 
" clip-path="url(#p37a3dc26f4)" style="fill: none; stroke: #b0b0b0; stroke-width: 0.8; stroke-linecap: square"/>
     </g>
     <g id="line2d_50">
      <g>
       <use xlink:href="#m28adeed3fc" x="387.5425" y="21.919443" style="stroke: #000000; stroke-width: 0.8"/>
      </g>
     </g>
     <g id="text_41">
      <!-- 120 -->
      <g transform="translate(361.455 25.718662) scale(0.1 -0.1)">
       <use xlink:href="#DejaVuSans-31"/>
       <use xlink:href="#DejaVuSans-32" x="63.623047"/>
       <use xlink:href="#DejaVuSans-30" x="127.246094"/>
      </g>
     </g>
    </g>
   </g>
   <g id="patch_105">
    <path d="M 387.5425 242.21 
L 387.5425 14.76 
" style="fill: none; stroke: #000000; stroke-width: 0.8; stroke-linejoin: miter; stroke-linecap: square"/>
   </g>
   <g id="patch_106">
    <path d="M 701.235 242.21 
L 701.235 14.76 
" style="fill: none; stroke: #000000; stroke-width: 0.8; stroke-linejoin: miter; stroke-linecap: square"/>
   </g>
   <g id="patch_107">
    <path d="M 387.5425 242.21 
L 701.235 242.21 
" style="fill: none; stroke: #000000; stroke-width: 0.8; stroke-linejoin: miter; stroke-linecap: square"/>
   </g>
   <g id="patch_108">
    <path d="M 387.5425 14.76 
L 701.235 14.76 
" style="fill: none; stroke: #000000; stroke-width: 0.8; stroke-linejoin: miter; stroke-linecap: square"/>
   </g>
   <g id="text_42">
    <!-- Durations [h] between two consecutive exercise activities -->
    <g transform="translate(370.640937 8.76) scale(0.12 -0.12)">
     <defs>
      <path id="DejaVuSans-44" d="M 1259 4147 
L 1259 519 
L 2022 519 
Q 2988 519 3436 956 
Q 3884 1394 3884 2338 
Q 3884 3275 3436 3711 
Q 2988 4147 2022 4147 
L 1259 4147 
z
M 628 4666 
L 1925 4666 
Q 3281 4666 3915 4102 
Q 4550 3538 4550 2338 
Q 4550 1131 3912 565 
Q 3275 0 1925 0 
L 628 0 
L 628 4666 
z
" transform="scale(0.015625)"/>
      <path id="DejaVuSans-5b" d="M 550 4863 
L 1875 4863 
L 1875 4416 
L 1125 4416 
L 1125 -397 
L 1875 -397 
L 1875 -844 
L 550 -844 
L 550 4863 
z
" transform="scale(0.015625)"/>
      <path id="DejaVuSans-5d" d="M 1947 4863 
L 1947 -844 
L 622 -844 
L 622 -397 
L 1369 -397 
L 1369 4416 
L 622 4416 
L 622 4863 
L 1947 4863 
z
" transform="scale(0.015625)"/>
      <path id="DejaVuSans-78" d="M 3513 3500 
L 2247 1797 
L 3578 0 
L 2900 0 
L 1881 1375 
L 863 0 
L 184 0 
L 1544 1831 
L 300 3500 
L 978 3500 
L 1906 2253 
L 2834 3500 
L 3513 3500 
z
" transform="scale(0.015625)"/>
     </defs>
     <use xlink:href="#DejaVuSans-44"/>
     <use xlink:href="#DejaVuSans-75" x="77.001953"/>
     <use xlink:href="#DejaVuSans-72" x="140.380859"/>
     <use xlink:href="#DejaVuSans-61" x="181.494141"/>
     <use xlink:href="#DejaVuSans-74" x="242.773438"/>
     <use xlink:href="#DejaVuSans-69" x="281.982422"/>
     <use xlink:href="#DejaVuSans-6f" x="309.765625"/>
     <use xlink:href="#DejaVuSans-6e" x="370.947266"/>
     <use xlink:href="#DejaVuSans-73" x="434.326172"/>
     <use xlink:href="#DejaVuSans-20" x="486.425781"/>
     <use xlink:href="#DejaVuSans-5b" x="518.212891"/>
     <use xlink:href="#DejaVuSans-68" x="557.226562"/>
     <use xlink:href="#DejaVuSans-5d" x="620.605469"/>
     <use xlink:href="#DejaVuSans-20" x="659.619141"/>
     <use xlink:href="#DejaVuSans-62" x="691.40625"/>
     <use xlink:href="#DejaVuSans-65" x="754.882812"/>
     <use xlink:href="#DejaVuSans-74" x="816.40625"/>
     <use xlink:href="#DejaVuSans-77" x="855.615234"/>
     <use xlink:href="#DejaVuSans-65" x="937.402344"/>
     <use xlink:href="#DejaVuSans-65" x="998.925781"/>
     <use xlink:href="#DejaVuSans-6e" x="1060.449219"/>
     <use xlink:href="#DejaVuSans-20" x="1123.828125"/>
     <use xlink:href="#DejaVuSans-74" x="1155.615234"/>
     <use xlink:href="#DejaVuSans-77" x="1194.824219"/>
     <use xlink:href="#DejaVuSans-6f" x="1276.611328"/>
     <use xlink:href="#DejaVuSans-20" x="1337.792969"/>
     <use xlink:href="#DejaVuSans-63" x="1369.580078"/>
     <use xlink:href="#DejaVuSans-6f" x="1424.560547"/>
     <use xlink:href="#DejaVuSans-6e" x="1485.742188"/>
     <use xlink:href="#DejaVuSans-73" x="1549.121094"/>
     <use xlink:href="#DejaVuSans-65" x="1601.220703"/>
     <use xlink:href="#DejaVuSans-63" x="1662.744141"/>
     <use xlink:href="#DejaVuSans-75" x="1717.724609"/>
     <use xlink:href="#DejaVuSans-74" x="1781.103516"/>
     <use xlink:href="#DejaVuSans-69" x="1820.3125"/>
     <use xlink:href="#DejaVuSans-76" x="1848.095703"/>
     <use xlink:href="#DejaVuSans-65" x="1907.275391"/>
     <use xlink:href="#DejaVuSans-20" x="1968.798828"/>
     <use xlink:href="#DejaVuSans-65" x="2000.585938"/>
     <use xlink:href="#DejaVuSans-78" x="2060.359375"/>
     <use xlink:href="#DejaVuSans-65" x="2116.414062"/>
     <use xlink:href="#DejaVuSans-72" x="2177.9375"/>
     <use xlink:href="#DejaVuSans-63" x="2216.800781"/>
     <use xlink:href="#DejaVuSans-69" x="2271.78125"/>
     <use xlink:href="#DejaVuSans-73" x="2299.564453"/>
     <use xlink:href="#DejaVuSans-65" x="2351.664062"/>
     <use xlink:href="#DejaVuSans-20" x="2413.1875"/>
     <use xlink:href="#DejaVuSans-61" x="2444.974609"/>
     <use xlink:href="#DejaVuSans-63" x="2506.253906"/>
     <use xlink:href="#DejaVuSans-74" x="2561.234375"/>
     <use xlink:href="#DejaVuSans-69" x="2600.443359"/>
     <use xlink:href="#DejaVuSans-76" x="2628.226562"/>
     <use xlink:href="#DejaVuSans-69" x="2687.40625"/>
     <use xlink:href="#DejaVuSans-74" x="2715.189453"/>
     <use xlink:href="#DejaVuSans-69" x="2754.398438"/>
     <use xlink:href="#DejaVuSans-65" x="2782.181641"/>
     <use xlink:href="#DejaVuSans-73" x="2843.705078"/>
    </g>
   </g>
   <g id="legend_2">
    <g id="patch_109">
     <path d="M 636.785 66.794375 
L 694.235 66.794375 
Q 696.235 66.794375 696.235 64.794375 
L 696.235 21.76 
Q 696.235 19.76 694.235 19.76 
L 636.785 19.76 
Q 634.785 19.76 634.785 21.76 
L 634.785 64.794375 
Q 634.785 66.794375 636.785 66.794375 
z
" style="fill: #ffffff; opacity: 0.8; stroke: #cccccc; stroke-linejoin: miter"/>
    </g>
    <g id="patch_110">
     <path d="M 638.785 31.358437 
L 658.785 31.358437 
L 658.785 24.358437 
L 638.785 24.358437 
z
" style="fill: #1f77b4; opacity: 0.3"/>
    </g>
    <g id="text_43">
     <!-- 2024 -->
     <g transform="translate(666.785 31.358437) scale(0.1 -0.1)">
      <use xlink:href="#DejaVuSans-32"/>
      <use xlink:href="#DejaVuSans-30" x="63.623047"/>
      <use xlink:href="#DejaVuSans-32" x="127.246094"/>
      <use xlink:href="#DejaVuSans-34" x="190.869141"/>
     </g>
    </g>
    <g id="patch_111">
     <path d="M 638.785 46.036563 
L 658.785 46.036563 
L 658.785 39.036563 
L 638.785 39.036563 
z
" style="fill: #ff7f0e; opacity: 0.3"/>
    </g>
    <g id="text_44">
     <!-- 2023 -->
     <g transform="translate(666.785 46.036563) scale(0.1 -0.1)">
      <use xlink:href="#DejaVuSans-32"/>
      <use xlink:href="#DejaVuSans-30" x="63.623047"/>
      <use xlink:href="#DejaVuSans-32" x="127.246094"/>
      <use xlink:href="#DejaVuSans-33" x="190.869141"/>
     </g>
    </g>
    <g id="patch_112">
     <path d="M 638.785 60.714687 
L 658.785 60.714687 
L 658.785 53.714687 
L 638.785 53.714687 
z
" style="fill: #2ca02c; opacity: 0.3"/>
    </g>
    <g id="text_45">
     <!-- 2022 -->
     <g transform="translate(666.785 60.714687) scale(0.1 -0.1)">
      <use xlink:href="#DejaVuSans-32"/>
      <use xlink:href="#DejaVuSans-30" x="63.623047"/>
      <use xlink:href="#DejaVuSans-32" x="127.246094"/>
      <use xlink:href="#DejaVuSans-32" x="190.869141"/>
     </g>
    </g>
   </g>
  </g>
 </g>
 <defs>
  <clipPath id="p23c3a10812">
   <rect x="40.12" y="14.76" width="313.6925" height="227.45"/>
  </clipPath>
  <clipPath id="p37a3dc26f4">
   <rect x="387.5425" y="14.76" width="313.6925" height="227.45"/>
  </clipPath>
 </defs>
</svg>
