<?xml version="1.0" encoding="utf-8" standalone="no"?>
<!DOCTYPE svg PUBLIC "-//W3C//DTD SVG 1.1//EN"
  "http://www.w3.org/Graphics/SVG/1.1/DTD/svg11.dtd">
<svg xmlns:xlink="http://www.w3.org/1999/xlink" width="460.8pt" height="345.6pt" viewBox="0 0 460.8 345.6" xmlns="http://www.w3.org/2000/svg" version="1.1">
 <metadata>
  <rdf:RDF xmlns:dc="http://purl.org/dc/elements/1.1/" xmlns:cc="http://creativecommons.org/ns#" xmlns:rdf="http://www.w3.org/1999/02/22-rdf-syntax-ns#">
   <cc:Work>
    <dc:type rdf:resource="http://purl.org/dc/dcmitype/StillImage"/>
    <dc:date>2024-01-01T14:11:04.295734</dc:date>
    <dc:format>image/svg+xml</dc:format>
    <dc:creator>
     <cc:Agent>
      <dc:title>Matplotlib v3.8.0, https://matplotlib.org/</dc:title>
     </cc:Agent>
    </dc:creator>
   </cc:Work>
  </rdf:RDF>
 </metadata>
 <defs>
  <style type="text/css">*{stroke-linejoin: round; stroke-linecap: butt}</style>
 </defs>
 <g id="figure_1">
  <g id="patch_1">
   <path d="M 0 345.6 
L 460.8 345.6 
L 460.8 0 
L 0 0 
z
" style="fill: #ffffff"/>
  </g>
  <g id="axes_1">
   <g id="patch_2">
    <path d="M 57.6 307.584 
L 414.72 307.584 
L 414.72 41.472 
L 57.6 41.472 
z
" style="fill: #ffffff"/>
   </g>
   <g id="matplotlib.axis_1">
    <g id="xtick_1">
     <g id="line2d_1">
      <defs>
       <path id="m20638831ce" d="M 0 0 
L 0 3.5 
" style="stroke: #000000; stroke-width: 0.8"/>
      </defs>
      <g>
       <use xlink:href="#m20638831ce" x="106.343398" y="307.584" style="stroke: #000000; stroke-width: 0.8"/>
      </g>
     </g>
     <g id="text_1">
      <!-- 50 -->
      <g transform="translate(99.980898 322.182437) scale(0.1 -0.1)">
       <defs>
        <path id="DejaVuSans-35" d="M 691 4666 
L 3169 4666 
L 3169 4134 
L 1269 4134 
L 1269 2991 
Q 1406 3038 1543 3061 
Q 1681 3084 1819 3084 
Q 2600 3084 3056 2656 
Q 3513 2228 3513 1497 
Q 3513 744 3044 326 
Q 2575 -91 1722 -91 
Q 1428 -91 1123 -41 
Q 819 9 494 109 
L 494 744 
Q 775 591 1075 516 
Q 1375 441 1709 441 
Q 2250 441 2565 725 
Q 2881 1009 2881 1497 
Q 2881 1984 2565 2268 
Q 2250 2553 1709 2553 
Q 1456 2553 1204 2497 
Q 953 2441 691 2322 
L 691 4666 
z
" transform="scale(0.015625)"/>
        <path id="DejaVuSans-30" d="M 2034 4250 
Q 1547 4250 1301 3770 
Q 1056 3291 1056 2328 
Q 1056 1369 1301 889 
Q 1547 409 2034 409 
Q 2525 409 2770 889 
Q 3016 1369 3016 2328 
Q 3016 3291 2770 3770 
Q 2525 4250 2034 4250 
z
M 2034 4750 
Q 2819 4750 3233 4129 
Q 3647 3509 3647 2328 
Q 3647 1150 3233 529 
Q 2819 -91 2034 -91 
Q 1250 -91 836 529 
Q 422 1150 422 2328 
Q 422 3509 836 4129 
Q 1250 4750 2034 4750 
z
" transform="scale(0.015625)"/>
       </defs>
       <use xlink:href="#DejaVuSans-35"/>
       <use xlink:href="#DejaVuSans-30" x="63.623047"/>
      </g>
     </g>
    </g>
    <g id="xtick_2">
     <g id="line2d_2">
      <g>
       <use xlink:href="#m20638831ce" x="156.08156" y="307.584" style="stroke: #000000; stroke-width: 0.8"/>
      </g>
     </g>
     <g id="text_2">
      <!-- 100 -->
      <g transform="translate(146.53781 322.182437) scale(0.1 -0.1)">
       <defs>
        <path id="DejaVuSans-31" d="M 794 531 
L 1825 531 
L 1825 4091 
L 703 3866 
L 703 4441 
L 1819 4666 
L 2450 4666 
L 2450 531 
L 3481 531 
L 3481 0 
L 794 0 
L 794 531 
z
" transform="scale(0.015625)"/>
       </defs>
       <use xlink:href="#DejaVuSans-31"/>
       <use xlink:href="#DejaVuSans-30" x="63.623047"/>
       <use xlink:href="#DejaVuSans-30" x="127.246094"/>
      </g>
     </g>
    </g>
    <g id="xtick_3">
     <g id="line2d_3">
      <g>
       <use xlink:href="#m20638831ce" x="205.819721" y="307.584" style="stroke: #000000; stroke-width: 0.8"/>
      </g>
     </g>
     <g id="text_3">
      <!-- 150 -->
      <g transform="translate(196.275971 322.182437) scale(0.1 -0.1)">
       <use xlink:href="#DejaVuSans-31"/>
       <use xlink:href="#DejaVuSans-35" x="63.623047"/>
       <use xlink:href="#DejaVuSans-30" x="127.246094"/>
      </g>
     </g>
    </g>
    <g id="xtick_4">
     <g id="line2d_4">
      <g>
       <use xlink:href="#m20638831ce" x="255.557883" y="307.584" style="stroke: #000000; stroke-width: 0.8"/>
      </g>
     </g>
     <g id="text_4">
      <!-- 200 -->
      <g transform="translate(246.014133 322.182437) scale(0.1 -0.1)">
       <defs>
        <path id="DejaVuSans-32" d="M 1228 531 
L 3431 531 
L 3431 0 
L 469 0 
L 469 531 
Q 828 903 1448 1529 
Q 2069 2156 2228 2338 
Q 2531 2678 2651 2914 
Q 2772 3150 2772 3378 
Q 2772 3750 2511 3984 
Q 2250 4219 1831 4219 
Q 1534 4219 1204 4116 
Q 875 4013 500 3803 
L 500 4441 
Q 881 4594 1212 4672 
Q 1544 4750 1819 4750 
Q 2544 4750 2975 4387 
Q 3406 4025 3406 3419 
Q 3406 3131 3298 2873 
Q 3191 2616 2906 2266 
Q 2828 2175 2409 1742 
Q 1991 1309 1228 531 
z
" transform="scale(0.015625)"/>
       </defs>
       <use xlink:href="#DejaVuSans-32"/>
       <use xlink:href="#DejaVuSans-30" x="63.623047"/>
       <use xlink:href="#DejaVuSans-30" x="127.246094"/>
      </g>
     </g>
    </g>
    <g id="xtick_5">
     <g id="line2d_5">
      <g>
       <use xlink:href="#m20638831ce" x="305.296045" y="307.584" style="stroke: #000000; stroke-width: 0.8"/>
      </g>
     </g>
     <g id="text_5">
      <!-- 250 -->
      <g transform="translate(295.752295 322.182437) scale(0.1 -0.1)">
       <use xlink:href="#DejaVuSans-32"/>
       <use xlink:href="#DejaVuSans-35" x="63.623047"/>
       <use xlink:href="#DejaVuSans-30" x="127.246094"/>
      </g>
     </g>
    </g>
    <g id="xtick_6">
     <g id="line2d_6">
      <g>
       <use xlink:href="#m20638831ce" x="355.034206" y="307.584" style="stroke: #000000; stroke-width: 0.8"/>
      </g>
     </g>
     <g id="text_6">
      <!-- 300 -->
      <g transform="translate(345.490456 322.182437) scale(0.1 -0.1)">
       <defs>
        <path id="DejaVuSans-33" d="M 2597 2516 
Q 3050 2419 3304 2112 
Q 3559 1806 3559 1356 
Q 3559 666 3084 287 
Q 2609 -91 1734 -91 
Q 1441 -91 1130 -33 
Q 819 25 488 141 
L 488 750 
Q 750 597 1062 519 
Q 1375 441 1716 441 
Q 2309 441 2620 675 
Q 2931 909 2931 1356 
Q 2931 1769 2642 2001 
Q 2353 2234 1838 2234 
L 1294 2234 
L 1294 2753 
L 1863 2753 
Q 2328 2753 2575 2939 
Q 2822 3125 2822 3475 
Q 2822 3834 2567 4026 
Q 2313 4219 1838 4219 
Q 1578 4219 1281 4162 
Q 984 4106 628 3988 
L 628 4550 
Q 988 4650 1302 4700 
Q 1616 4750 1894 4750 
Q 2613 4750 3031 4423 
Q 3450 4097 3450 3541 
Q 3450 3153 3228 2886 
Q 3006 2619 2597 2516 
z
" transform="scale(0.015625)"/>
       </defs>
       <use xlink:href="#DejaVuSans-33"/>
       <use xlink:href="#DejaVuSans-30" x="63.623047"/>
       <use xlink:href="#DejaVuSans-30" x="127.246094"/>
      </g>
     </g>
    </g>
    <g id="xtick_7">
     <g id="line2d_7">
      <g>
       <use xlink:href="#m20638831ce" x="404.772368" y="307.584" style="stroke: #000000; stroke-width: 0.8"/>
      </g>
     </g>
     <g id="text_7">
      <!-- 350 -->
      <g transform="translate(395.228618 322.182437) scale(0.1 -0.1)">
       <use xlink:href="#DejaVuSans-33"/>
       <use xlink:href="#DejaVuSans-35" x="63.623047"/>
       <use xlink:href="#DejaVuSans-30" x="127.246094"/>
      </g>
     </g>
    </g>
    <g id="text_8">
     <!-- day_of_year -->
     <g transform="translate(205.987344 335.860562) scale(0.1 -0.1)">
      <defs>
       <path id="DejaVuSans-64" d="M 2906 2969 
L 2906 4863 
L 3481 4863 
L 3481 0 
L 2906 0 
L 2906 525 
Q 2725 213 2448 61 
Q 2172 -91 1784 -91 
Q 1150 -91 751 415 
Q 353 922 353 1747 
Q 353 2572 751 3078 
Q 1150 3584 1784 3584 
Q 2172 3584 2448 3432 
Q 2725 3281 2906 2969 
z
M 947 1747 
Q 947 1113 1208 752 
Q 1469 391 1925 391 
Q 2381 391 2643 752 
Q 2906 1113 2906 1747 
Q 2906 2381 2643 2742 
Q 2381 3103 1925 3103 
Q 1469 3103 1208 2742 
Q 947 2381 947 1747 
z
" transform="scale(0.015625)"/>
       <path id="DejaVuSans-61" d="M 2194 1759 
Q 1497 1759 1228 1600 
Q 959 1441 959 1056 
Q 959 750 1161 570 
Q 1363 391 1709 391 
Q 2188 391 2477 730 
Q 2766 1069 2766 1631 
L 2766 1759 
L 2194 1759 
z
M 3341 1997 
L 3341 0 
L 2766 0 
L 2766 531 
Q 2569 213 2275 61 
Q 1981 -91 1556 -91 
Q 1019 -91 701 211 
Q 384 513 384 1019 
Q 384 1609 779 1909 
Q 1175 2209 1959 2209 
L 2766 2209 
L 2766 2266 
Q 2766 2663 2505 2880 
Q 2244 3097 1772 3097 
Q 1472 3097 1187 3025 
Q 903 2953 641 2809 
L 641 3341 
Q 956 3463 1253 3523 
Q 1550 3584 1831 3584 
Q 2591 3584 2966 3190 
Q 3341 2797 3341 1997 
z
" transform="scale(0.015625)"/>
       <path id="DejaVuSans-79" d="M 2059 -325 
Q 1816 -950 1584 -1140 
Q 1353 -1331 966 -1331 
L 506 -1331 
L 506 -850 
L 844 -850 
Q 1081 -850 1212 -737 
Q 1344 -625 1503 -206 
L 1606 56 
L 191 3500 
L 800 3500 
L 1894 763 
L 2988 3500 
L 3597 3500 
L 2059 -325 
z
" transform="scale(0.015625)"/>
       <path id="DejaVuSans-5f" d="M 3263 -1063 
L 3263 -1509 
L -63 -1509 
L -63 -1063 
L 3263 -1063 
z
" transform="scale(0.015625)"/>
       <path id="DejaVuSans-6f" d="M 1959 3097 
Q 1497 3097 1228 2736 
Q 959 2375 959 1747 
Q 959 1119 1226 758 
Q 1494 397 1959 397 
Q 2419 397 2687 759 
Q 2956 1122 2956 1747 
Q 2956 2369 2687 2733 
Q 2419 3097 1959 3097 
z
M 1959 3584 
Q 2709 3584 3137 3096 
Q 3566 2609 3566 1747 
Q 3566 888 3137 398 
Q 2709 -91 1959 -91 
Q 1206 -91 779 398 
Q 353 888 353 1747 
Q 353 2609 779 3096 
Q 1206 3584 1959 3584 
z
" transform="scale(0.015625)"/>
       <path id="DejaVuSans-66" d="M 2375 4863 
L 2375 4384 
L 1825 4384 
Q 1516 4384 1395 4259 
Q 1275 4134 1275 3809 
L 1275 3500 
L 2222 3500 
L 2222 3053 
L 1275 3053 
L 1275 0 
L 697 0 
L 697 3053 
L 147 3053 
L 147 3500 
L 697 3500 
L 697 3744 
Q 697 4328 969 4595 
Q 1241 4863 1831 4863 
L 2375 4863 
z
" transform="scale(0.015625)"/>
       <path id="DejaVuSans-65" d="M 3597 1894 
L 3597 1613 
L 953 1613 
Q 991 1019 1311 708 
Q 1631 397 2203 397 
Q 2534 397 2845 478 
Q 3156 559 3463 722 
L 3463 178 
Q 3153 47 2828 -22 
Q 2503 -91 2169 -91 
Q 1331 -91 842 396 
Q 353 884 353 1716 
Q 353 2575 817 3079 
Q 1281 3584 2069 3584 
Q 2775 3584 3186 3129 
Q 3597 2675 3597 1894 
z
M 3022 2063 
Q 3016 2534 2758 2815 
Q 2500 3097 2075 3097 
Q 1594 3097 1305 2825 
Q 1016 2553 972 2059 
L 3022 2063 
z
" transform="scale(0.015625)"/>
       <path id="DejaVuSans-72" d="M 2631 2963 
Q 2534 3019 2420 3045 
Q 2306 3072 2169 3072 
Q 1681 3072 1420 2755 
Q 1159 2438 1159 1844 
L 1159 0 
L 581 0 
L 581 3500 
L 1159 3500 
L 1159 2956 
Q 1341 3275 1631 3429 
Q 1922 3584 2338 3584 
Q 2397 3584 2469 3576 
Q 2541 3569 2628 3553 
L 2631 2963 
z
" transform="scale(0.015625)"/>
      </defs>
      <use xlink:href="#DejaVuSans-64"/>
      <use xlink:href="#DejaVuSans-61" x="63.476562"/>
      <use xlink:href="#DejaVuSans-79" x="124.755859"/>
      <use xlink:href="#DejaVuSans-5f" x="183.935547"/>
      <use xlink:href="#DejaVuSans-6f" x="233.935547"/>
      <use xlink:href="#DejaVuSans-66" x="295.117188"/>
      <use xlink:href="#DejaVuSans-5f" x="330.322266"/>
      <use xlink:href="#DejaVuSans-79" x="380.322266"/>
      <use xlink:href="#DejaVuSans-65" x="439.501953"/>
      <use xlink:href="#DejaVuSans-61" x="501.025391"/>
      <use xlink:href="#DejaVuSans-72" x="562.304688"/>
     </g>
    </g>
   </g>
   <g id="matplotlib.axis_2">
    <g id="ytick_1">
     <g id="line2d_8">
      <defs>
       <path id="ma1b534cc52" d="M 0 0 
L -3.5 0 
" style="stroke: #000000; stroke-width: 0.8"/>
      </defs>
      <g>
       <use xlink:href="#ma1b534cc52" x="57.6" y="307.584" style="stroke: #000000; stroke-width: 0.8"/>
      </g>
     </g>
     <g id="text_9">
      <!-- 0 -->
      <g transform="translate(44.2375 311.383219) scale(0.1 -0.1)">
       <use xlink:href="#DejaVuSans-30"/>
      </g>
     </g>
    </g>
    <g id="ytick_2">
     <g id="line2d_9">
      <g>
       <use xlink:href="#ma1b534cc52" x="57.6" y="269.241541" style="stroke: #000000; stroke-width: 0.8"/>
      </g>
     </g>
     <g id="text_10">
      <!-- 200 -->
      <g transform="translate(31.5125 273.04076) scale(0.1 -0.1)">
       <use xlink:href="#DejaVuSans-32"/>
       <use xlink:href="#DejaVuSans-30" x="63.623047"/>
       <use xlink:href="#DejaVuSans-30" x="127.246094"/>
      </g>
     </g>
    </g>
    <g id="ytick_3">
     <g id="line2d_10">
      <g>
       <use xlink:href="#ma1b534cc52" x="57.6" y="230.899083" style="stroke: #000000; stroke-width: 0.8"/>
      </g>
     </g>
     <g id="text_11">
      <!-- 400 -->
      <g transform="translate(31.5125 234.698301) scale(0.1 -0.1)">
       <defs>
        <path id="DejaVuSans-34" d="M 2419 4116 
L 825 1625 
L 2419 1625 
L 2419 4116 
z
M 2253 4666 
L 3047 4666 
L 3047 1625 
L 3713 1625 
L 3713 1100 
L 3047 1100 
L 3047 0 
L 2419 0 
L 2419 1100 
L 313 1100 
L 313 1709 
L 2253 4666 
z
" transform="scale(0.015625)"/>
       </defs>
       <use xlink:href="#DejaVuSans-34"/>
       <use xlink:href="#DejaVuSans-30" x="63.623047"/>
       <use xlink:href="#DejaVuSans-30" x="127.246094"/>
      </g>
     </g>
    </g>
    <g id="ytick_4">
     <g id="line2d_11">
      <g>
       <use xlink:href="#ma1b534cc52" x="57.6" y="192.556624" style="stroke: #000000; stroke-width: 0.8"/>
      </g>
     </g>
     <g id="text_12">
      <!-- 600 -->
      <g transform="translate(31.5125 196.355843) scale(0.1 -0.1)">
       <defs>
        <path id="DejaVuSans-36" d="M 2113 2584 
Q 1688 2584 1439 2293 
Q 1191 2003 1191 1497 
Q 1191 994 1439 701 
Q 1688 409 2113 409 
Q 2538 409 2786 701 
Q 3034 994 3034 1497 
Q 3034 2003 2786 2293 
Q 2538 2584 2113 2584 
z
M 3366 4563 
L 3366 3988 
Q 3128 4100 2886 4159 
Q 2644 4219 2406 4219 
Q 1781 4219 1451 3797 
Q 1122 3375 1075 2522 
Q 1259 2794 1537 2939 
Q 1816 3084 2150 3084 
Q 2853 3084 3261 2657 
Q 3669 2231 3669 1497 
Q 3669 778 3244 343 
Q 2819 -91 2113 -91 
Q 1303 -91 875 529 
Q 447 1150 447 2328 
Q 447 3434 972 4092 
Q 1497 4750 2381 4750 
Q 2619 4750 2861 4703 
Q 3103 4656 3366 4563 
z
" transform="scale(0.015625)"/>
       </defs>
       <use xlink:href="#DejaVuSans-36"/>
       <use xlink:href="#DejaVuSans-30" x="63.623047"/>
       <use xlink:href="#DejaVuSans-30" x="127.246094"/>
      </g>
     </g>
    </g>
    <g id="ytick_5">
     <g id="line2d_12">
      <g>
       <use xlink:href="#ma1b534cc52" x="57.6" y="154.214165" style="stroke: #000000; stroke-width: 0.8"/>
      </g>
     </g>
     <g id="text_13">
      <!-- 800 -->
      <g transform="translate(31.5125 158.013384) scale(0.1 -0.1)">
       <defs>
        <path id="DejaVuSans-38" d="M 2034 2216 
Q 1584 2216 1326 1975 
Q 1069 1734 1069 1313 
Q 1069 891 1326 650 
Q 1584 409 2034 409 
Q 2484 409 2743 651 
Q 3003 894 3003 1313 
Q 3003 1734 2745 1975 
Q 2488 2216 2034 2216 
z
M 1403 2484 
Q 997 2584 770 2862 
Q 544 3141 544 3541 
Q 544 4100 942 4425 
Q 1341 4750 2034 4750 
Q 2731 4750 3128 4425 
Q 3525 4100 3525 3541 
Q 3525 3141 3298 2862 
Q 3072 2584 2669 2484 
Q 3125 2378 3379 2068 
Q 3634 1759 3634 1313 
Q 3634 634 3220 271 
Q 2806 -91 2034 -91 
Q 1263 -91 848 271 
Q 434 634 434 1313 
Q 434 1759 690 2068 
Q 947 2378 1403 2484 
z
M 1172 3481 
Q 1172 3119 1398 2916 
Q 1625 2713 2034 2713 
Q 2441 2713 2670 2916 
Q 2900 3119 2900 3481 
Q 2900 3844 2670 4047 
Q 2441 4250 2034 4250 
Q 1625 4250 1398 4047 
Q 1172 3844 1172 3481 
z
" transform="scale(0.015625)"/>
       </defs>
       <use xlink:href="#DejaVuSans-38"/>
       <use xlink:href="#DejaVuSans-30" x="63.623047"/>
       <use xlink:href="#DejaVuSans-30" x="127.246094"/>
      </g>
     </g>
    </g>
    <g id="ytick_6">
     <g id="line2d_13">
      <g>
       <use xlink:href="#ma1b534cc52" x="57.6" y="115.871707" style="stroke: #000000; stroke-width: 0.8"/>
      </g>
     </g>
     <g id="text_14">
      <!-- 1000 -->
      <g transform="translate(25.15 119.670926) scale(0.1 -0.1)">
       <use xlink:href="#DejaVuSans-31"/>
       <use xlink:href="#DejaVuSans-30" x="63.623047"/>
       <use xlink:href="#DejaVuSans-30" x="127.246094"/>
       <use xlink:href="#DejaVuSans-30" x="190.869141"/>
      </g>
     </g>
    </g>
    <g id="ytick_7">
     <g id="line2d_14">
      <g>
       <use xlink:href="#ma1b534cc52" x="57.6" y="77.529248" style="stroke: #000000; stroke-width: 0.8"/>
      </g>
     </g>
     <g id="text_15">
      <!-- 1200 -->
      <g transform="translate(25.15 81.328467) scale(0.1 -0.1)">
       <use xlink:href="#DejaVuSans-31"/>
       <use xlink:href="#DejaVuSans-32" x="63.623047"/>
       <use xlink:href="#DejaVuSans-30" x="127.246094"/>
       <use xlink:href="#DejaVuSans-30" x="190.869141"/>
      </g>
     </g>
    </g>
    <g id="text_16">
     <!-- cumulative distance in running [km] -->
     <g transform="translate(19.070312 265.385031) rotate(-90) scale(0.1 -0.1)">
      <defs>
       <path id="DejaVuSans-63" d="M 3122 3366 
L 3122 2828 
Q 2878 2963 2633 3030 
Q 2388 3097 2138 3097 
Q 1578 3097 1268 2742 
Q 959 2388 959 1747 
Q 959 1106 1268 751 
Q 1578 397 2138 397 
Q 2388 397 2633 464 
Q 2878 531 3122 666 
L 3122 134 
Q 2881 22 2623 -34 
Q 2366 -91 2075 -91 
Q 1284 -91 818 406 
Q 353 903 353 1747 
Q 353 2603 823 3093 
Q 1294 3584 2113 3584 
Q 2378 3584 2631 3529 
Q 2884 3475 3122 3366 
z
" transform="scale(0.015625)"/>
       <path id="DejaVuSans-75" d="M 544 1381 
L 544 3500 
L 1119 3500 
L 1119 1403 
Q 1119 906 1312 657 
Q 1506 409 1894 409 
Q 2359 409 2629 706 
Q 2900 1003 2900 1516 
L 2900 3500 
L 3475 3500 
L 3475 0 
L 2900 0 
L 2900 538 
Q 2691 219 2414 64 
Q 2138 -91 1772 -91 
Q 1169 -91 856 284 
Q 544 659 544 1381 
z
M 1991 3584 
L 1991 3584 
z
" transform="scale(0.015625)"/>
       <path id="DejaVuSans-6d" d="M 3328 2828 
Q 3544 3216 3844 3400 
Q 4144 3584 4550 3584 
Q 5097 3584 5394 3201 
Q 5691 2819 5691 2113 
L 5691 0 
L 5113 0 
L 5113 2094 
Q 5113 2597 4934 2840 
Q 4756 3084 4391 3084 
Q 3944 3084 3684 2787 
Q 3425 2491 3425 1978 
L 3425 0 
L 2847 0 
L 2847 2094 
Q 2847 2600 2669 2842 
Q 2491 3084 2119 3084 
Q 1678 3084 1418 2786 
Q 1159 2488 1159 1978 
L 1159 0 
L 581 0 
L 581 3500 
L 1159 3500 
L 1159 2956 
Q 1356 3278 1631 3431 
Q 1906 3584 2284 3584 
Q 2666 3584 2933 3390 
Q 3200 3197 3328 2828 
z
" transform="scale(0.015625)"/>
       <path id="DejaVuSans-6c" d="M 603 4863 
L 1178 4863 
L 1178 0 
L 603 0 
L 603 4863 
z
" transform="scale(0.015625)"/>
       <path id="DejaVuSans-74" d="M 1172 4494 
L 1172 3500 
L 2356 3500 
L 2356 3053 
L 1172 3053 
L 1172 1153 
Q 1172 725 1289 603 
Q 1406 481 1766 481 
L 2356 481 
L 2356 0 
L 1766 0 
Q 1100 0 847 248 
Q 594 497 594 1153 
L 594 3053 
L 172 3053 
L 172 3500 
L 594 3500 
L 594 4494 
L 1172 4494 
z
" transform="scale(0.015625)"/>
       <path id="DejaVuSans-69" d="M 603 3500 
L 1178 3500 
L 1178 0 
L 603 0 
L 603 3500 
z
M 603 4863 
L 1178 4863 
L 1178 4134 
L 603 4134 
L 603 4863 
z
" transform="scale(0.015625)"/>
       <path id="DejaVuSans-76" d="M 191 3500 
L 800 3500 
L 1894 563 
L 2988 3500 
L 3597 3500 
L 2284 0 
L 1503 0 
L 191 3500 
z
" transform="scale(0.015625)"/>
       <path id="DejaVuSans-20" transform="scale(0.015625)"/>
       <path id="DejaVuSans-73" d="M 2834 3397 
L 2834 2853 
Q 2591 2978 2328 3040 
Q 2066 3103 1784 3103 
Q 1356 3103 1142 2972 
Q 928 2841 928 2578 
Q 928 2378 1081 2264 
Q 1234 2150 1697 2047 
L 1894 2003 
Q 2506 1872 2764 1633 
Q 3022 1394 3022 966 
Q 3022 478 2636 193 
Q 2250 -91 1575 -91 
Q 1294 -91 989 -36 
Q 684 19 347 128 
L 347 722 
Q 666 556 975 473 
Q 1284 391 1588 391 
Q 1994 391 2212 530 
Q 2431 669 2431 922 
Q 2431 1156 2273 1281 
Q 2116 1406 1581 1522 
L 1381 1569 
Q 847 1681 609 1914 
Q 372 2147 372 2553 
Q 372 3047 722 3315 
Q 1072 3584 1716 3584 
Q 2034 3584 2315 3537 
Q 2597 3491 2834 3397 
z
" transform="scale(0.015625)"/>
       <path id="DejaVuSans-6e" d="M 3513 2113 
L 3513 0 
L 2938 0 
L 2938 2094 
Q 2938 2591 2744 2837 
Q 2550 3084 2163 3084 
Q 1697 3084 1428 2787 
Q 1159 2491 1159 1978 
L 1159 0 
L 581 0 
L 581 3500 
L 1159 3500 
L 1159 2956 
Q 1366 3272 1645 3428 
Q 1925 3584 2291 3584 
Q 2894 3584 3203 3211 
Q 3513 2838 3513 2113 
z
" transform="scale(0.015625)"/>
       <path id="DejaVuSans-67" d="M 2906 1791 
Q 2906 2416 2648 2759 
Q 2391 3103 1925 3103 
Q 1463 3103 1205 2759 
Q 947 2416 947 1791 
Q 947 1169 1205 825 
Q 1463 481 1925 481 
Q 2391 481 2648 825 
Q 2906 1169 2906 1791 
z
M 3481 434 
Q 3481 -459 3084 -895 
Q 2688 -1331 1869 -1331 
Q 1566 -1331 1297 -1286 
Q 1028 -1241 775 -1147 
L 775 -588 
Q 1028 -725 1275 -790 
Q 1522 -856 1778 -856 
Q 2344 -856 2625 -561 
Q 2906 -266 2906 331 
L 2906 616 
Q 2728 306 2450 153 
Q 2172 0 1784 0 
Q 1141 0 747 490 
Q 353 981 353 1791 
Q 353 2603 747 3093 
Q 1141 3584 1784 3584 
Q 2172 3584 2450 3431 
Q 2728 3278 2906 2969 
L 2906 3500 
L 3481 3500 
L 3481 434 
z
" transform="scale(0.015625)"/>
       <path id="DejaVuSans-5b" d="M 550 4863 
L 1875 4863 
L 1875 4416 
L 1125 4416 
L 1125 -397 
L 1875 -397 
L 1875 -844 
L 550 -844 
L 550 4863 
z
" transform="scale(0.015625)"/>
       <path id="DejaVuSans-6b" d="M 581 4863 
L 1159 4863 
L 1159 1991 
L 2875 3500 
L 3609 3500 
L 1753 1863 
L 3688 0 
L 2938 0 
L 1159 1709 
L 1159 0 
L 581 0 
L 581 4863 
z
" transform="scale(0.015625)"/>
       <path id="DejaVuSans-5d" d="M 1947 4863 
L 1947 -844 
L 622 -844 
L 622 -397 
L 1369 -397 
L 1369 4416 
L 622 4416 
L 622 4863 
L 1947 4863 
z
" transform="scale(0.015625)"/>
      </defs>
      <use xlink:href="#DejaVuSans-63"/>
      <use xlink:href="#DejaVuSans-75" x="54.980469"/>
      <use xlink:href="#DejaVuSans-6d" x="118.359375"/>
      <use xlink:href="#DejaVuSans-75" x="215.771484"/>
      <use xlink:href="#DejaVuSans-6c" x="279.150391"/>
      <use xlink:href="#DejaVuSans-61" x="306.933594"/>
      <use xlink:href="#DejaVuSans-74" x="368.212891"/>
      <use xlink:href="#DejaVuSans-69" x="407.421875"/>
      <use xlink:href="#DejaVuSans-76" x="435.205078"/>
      <use xlink:href="#DejaVuSans-65" x="494.384766"/>
      <use xlink:href="#DejaVuSans-20" x="555.908203"/>
      <use xlink:href="#DejaVuSans-64" x="587.695312"/>
      <use xlink:href="#DejaVuSans-69" x="651.171875"/>
      <use xlink:href="#DejaVuSans-73" x="678.955078"/>
      <use xlink:href="#DejaVuSans-74" x="731.054688"/>
      <use xlink:href="#DejaVuSans-61" x="770.263672"/>
      <use xlink:href="#DejaVuSans-6e" x="831.542969"/>
      <use xlink:href="#DejaVuSans-63" x="894.921875"/>
      <use xlink:href="#DejaVuSans-65" x="949.902344"/>
      <use xlink:href="#DejaVuSans-20" x="1011.425781"/>
      <use xlink:href="#DejaVuSans-69" x="1043.212891"/>
      <use xlink:href="#DejaVuSans-6e" x="1070.996094"/>
      <use xlink:href="#DejaVuSans-20" x="1134.375"/>
      <use xlink:href="#DejaVuSans-72" x="1166.162109"/>
      <use xlink:href="#DejaVuSans-75" x="1207.275391"/>
      <use xlink:href="#DejaVuSans-6e" x="1270.654297"/>
      <use xlink:href="#DejaVuSans-6e" x="1334.033203"/>
      <use xlink:href="#DejaVuSans-69" x="1397.412109"/>
      <use xlink:href="#DejaVuSans-6e" x="1425.195312"/>
      <use xlink:href="#DejaVuSans-67" x="1488.574219"/>
      <use xlink:href="#DejaVuSans-20" x="1552.050781"/>
      <use xlink:href="#DejaVuSans-5b" x="1583.837891"/>
      <use xlink:href="#DejaVuSans-6b" x="1622.851562"/>
      <use xlink:href="#DejaVuSans-6d" x="1680.761719"/>
      <use xlink:href="#DejaVuSans-5d" x="1778.173828"/>
     </g>
    </g>
   </g>
   <g id="line2d_15">
    <path d="M 58.594763 306.040716 
L 61.579053 306.040716 
L 61.579053 304.507018 
L 64.563343 304.507018 
L 64.563343 303.327987 
L 66.552869 303.327987 
L 66.552869 302.524713 
L 69.537159 302.524713 
L 69.537159 300.066961 
L 70.531922 300.066961 
L 70.531922 298.983787 
L 71.526685 298.983787 
L 71.526685 297.785585 
L 73.516212 297.785585 
L 73.516212 296.238466 
L 74.510975 296.238466 
L 74.510975 294.599326 
L 76.500501 294.599326 
L 76.500501 292.818319 
L 80.479554 292.818319 
L 80.479554 290.891611 
L 81.474318 290.891611 
L 81.474318 289.549625 
L 83.463844 289.549625 
L 83.463844 287.272083 
L 88.43766 287.272083 
L 88.43766 285.62144 
L 90.427187 285.62144 
L 90.427187 284.563188 
L 91.42195 284.563188 
L 91.42195 283.497267 
L 95.401003 283.497267 
L 95.401003 281.858127 
L 97.390529 281.858127 
L 97.390529 280.056032 
L 98.385292 280.056032 
L 98.385292 279.059128 
L 99.380056 279.059128 
L 99.380056 278.330621 
L 102.364345 278.330621 
L 102.364345 276.15277 
L 105.348635 276.15277 
L 105.348635 274.615237 
L 107.338162 274.615237 
L 107.338162 271.532503 
L 113.306741 271.532503 
L 113.306741 269.327812 
L 115.296267 269.327812 
L 115.296267 267.748103 
L 117.285794 267.748103 
L 117.285794 265.706367 
L 120.270084 265.706367 
L 120.270084 262.773169 
L 123.254373 262.773169 
L 123.254373 261.143614 
L 127.233426 261.143614 
L 127.233426 258.536327 
L 132.207242 258.536327 
L 132.207242 258.057046 
L 133.202006 258.057046 
L 133.202006 255.718156 
L 135.191532 255.718156 
L 135.191532 253.43678 
L 139.170585 253.43678 
L 139.170585 251.728623 
L 140.165348 251.728623 
L 140.165348 249.447247 
L 146.133928 249.447247 
L 146.133928 247.846449 
L 150.112981 247.846449 
L 150.112981 245.885233 
L 153.09727 245.885233 
L 153.09727 244.313192 
L 156.08156 244.313192 
L 156.08156 241.341651 
L 158.071086 241.341651 
L 158.071086 239.999665 
L 160.060613 239.999665 
L 160.060613 238.619337 
L 163.044903 238.619337 
L 163.044903 237.430721 
L 166.029192 237.430721 
L 166.029192 235.912359 
L 169.013482 235.912359 
L 169.013482 232.929316 
L 170.008245 232.929316 
L 170.008245 231.734948 
L 171.997772 231.734948 
L 171.997772 230.670945 
L 173.987298 230.670945 
L 173.987298 229.217766 
L 176.971588 229.217766 
L 176.971588 226.332496 
L 178.961114 226.332496 
L 178.961114 224.262003 
L 180.950641 224.262003 
L 180.950641 221.942284 
L 182.940167 221.942284 
L 182.940167 219.699251 
L 184.929694 219.699251 
L 184.929694 218.855716 
L 186.91922 218.855716 
L 186.91922 215.404895 
L 189.90351 215.404895 
L 189.90351 211.532307 
L 196.866852 211.532307 
L 196.866852 207.851431 
L 198.856379 207.851431 
L 198.856379 206.260219 
L 199.851142 206.260219 
L 199.851142 205.263315 
L 200.845905 205.263315 
L 200.845905 202.924425 
L 203.830195 202.924425 
L 203.830195 200.623877 
L 204.824958 200.623877 
L 204.824958 197.508553 
L 206.814485 197.508553 
L 206.814485 195.926926 
L 208.804011 195.926926 
L 208.804011 194.908934 
L 210.793538 194.908934 
L 210.793538 191.703504 
L 212.783064 191.703504 
L 212.783064 190.043276 
L 217.75688 190.043276 
L 217.75688 186.751576 
L 218.751643 186.751576 
L 218.751643 184.420354 
L 220.74117 184.420354 
L 220.74117 182.206077 
L 221.735933 182.206077 
L 221.735933 180.102993 
L 223.72546 180.102993 
L 223.72546 176.230405 
L 225.714986 176.230405 
L 225.714986 173.738145 
L 231.683565 173.738145 
L 231.683565 170.952566 
L 235.662618 170.952566 
L 235.662618 168.268594 
L 237.652145 168.268594 
L 237.652145 164.913628 
L 238.646908 164.913628 
L 238.646908 163.807449 
L 246.605014 163.807449 
L 246.605014 162.88723 
L 248.59454 162.88723 
L 248.59454 161.273012 
L 251.57883 161.273012 
L 251.57883 159.697137 
L 253.568357 159.697137 
L 253.568357 158.065665 
L 269.484568 158.065665 
L 269.484568 157.074513 
L 270.479331 157.074513 
L 270.479331 155.895482 
L 271.474095 155.895482 
L 271.474095 154.394375 
L 274.458384 154.394375 
L 274.458384 152.783992 
L 275.453148 152.783992 
L 275.453148 151.162106 
L 276.447911 151.162106 
L 276.447911 148.029527 
L 287.390306 148.029527 
L 287.390306 147.070965 
L 288.38507 147.070965 
L 288.38507 146.016548 
L 289.379833 146.016548 
L 289.379833 144.816429 
L 294.353649 144.816429 
L 294.353649 141.835303 
L 295.348412 141.835303 
L 295.348412 139.515584 
L 300.322228 139.515584 
L 300.322228 138.173598 
L 301.316992 138.173598 
L 301.316992 136.735756 
L 303.306518 136.735756 
L 303.306518 133.683696 
L 305.296045 133.683696 
L 305.296045 132.134661 
L 307.285571 132.134661 
L 307.285571 130.56262 
L 309.275097 130.56262 
L 309.275097 129.00975 
L 312.259387 129.00975 
L 312.259387 127.964918 
L 314.248914 127.964918 
L 314.248914 126.419717 
L 316.23844 126.419717 
L 316.23844 124.153678 
L 320.217493 124.153678 
L 320.217493 122.035257 
L 321.212256 122.035257 
L 321.212256 120.302178 
L 323.201783 120.302178 
L 323.201783 118.793402 
L 328.175599 118.793402 
L 328.175599 117.92878 
L 330.165125 117.92878 
L 330.165125 116.778506 
L 331.159889 116.778506 
L 331.159889 115.200714 
L 333.149415 115.200714 
L 333.149415 114.338008 
L 334.144178 114.338008 
L 334.144178 112.708454 
L 335.138942 112.708454 
L 335.138942 111.58502 
L 337.128468 111.58502 
L 337.128468 109.623803 
L 339.117994 109.623803 
L 339.117994 108.128447 
L 344.091811 108.128447 
L 344.091811 105.540331 
L 345.086574 105.540331 
L 345.086574 103.527352 
L 346.081337 103.527352 
L 346.081337 102.377078 
L 348.070864 102.377078 
L 348.070864 101.251727 
L 349.065627 101.251727 
L 349.065627 98.815064 
L 351.055153 98.815064 
L 351.055153 96.207777 
L 352.049916 96.207777 
L 352.049916 94.658742 
L 354.039443 94.658742 
L 354.039443 93.044524 
L 357.023733 93.044524 
L 357.023733 90.878175 
L 360.008022 90.878175 
L 360.008022 89.72215 
L 362.992312 89.72215 
L 362.992312 86.139047 
L 363.987075 86.139047 
L 363.987075 84.582343 
L 367.966128 84.582343 
L 367.966128 82.141846 
L 378.908524 82.141846 
L 378.908524 80.527628 
L 379.903287 80.527628 
L 379.903287 78.846312 
L 380.89805 78.846312 
L 380.89805 77.322199 
L 382.887577 77.322199 
L 382.887577 75.730987 
L 386.86663 75.730987 
L 386.86663 72.985667 
L 390.845682 72.985667 
L 390.845682 71.701194 
L 393.829972 71.701194 
L 393.829972 68.879189 
L 399.798552 68.879189 
L 399.798552 67.383834 
L 401.788078 67.383834 
L 401.788078 65.82713 
L 402.782841 65.82713 
L 402.782841 64.377785 
L 406.761894 64.377785 
L 406.761894 63.419223 
L 409.746184 63.419223 
L 409.746184 61.885525 
L 411.73571 61.885525 
L 411.73571 60.117938 
L 412.730474 60.117938 
L 412.730474 57.81739 
L 414.72 57.81739 
L 414.72 56.070891 
L 414.72 56.070891 
" clip-path="url(#p77e7195918)" style="fill: none; stroke: #1f77b4; stroke-width: 1.5; stroke-linecap: square"/>
   </g>
   <g id="line2d_16">
    <path d="M 57.6 304.946039 
L 59.589526 304.946039 
L 59.589526 303.887787 
L 60.58429 303.887787 
L 60.58429 300.722617 
L 64.563343 300.722617 
L 64.563343 299.210007 
L 66.552869 299.210007 
L 66.552869 297.469259 
L 67.547632 297.469259 
L 67.547632 295.772606 
L 70.531922 295.772606 
L 70.531922 294.493885 
L 72.521448 294.493885 
L 72.521448 290.14585 
L 73.516212 290.14585 
L 73.516212 289.26589 
L 74.510975 289.26589 
L 74.510975 288.035097 
L 75.505738 288.035097 
L 75.505738 285.46807 
L 80.479554 285.46807 
L 80.479554 284.133752 
L 81.474318 284.133752 
L 81.474318 280.529561 
L 83.463844 280.529561 
L 83.463844 277.6117 
L 84.458607 277.6117 
L 84.458607 277.189933 
L 87.442897 277.189933 
L 87.442897 273.861808 
L 90.427187 273.861808 
L 90.427187 273.325013 
L 91.42195 273.325013 
L 91.42195 271.791315 
L 92.416713 271.791315 
L 92.416713 268.798686 
L 94.40624 268.798686 
L 94.40624 267.4567 
L 95.401003 267.4567 
L 95.401003 265.635433 
L 96.395766 265.635433 
L 96.395766 264.366298 
L 97.390529 264.366298 
L 97.390529 262.370573 
L 99.380056 262.370573 
L 99.380056 260.595317 
L 100.374819 260.595317 
L 100.374819 257.943936 
L 102.364345 257.943936 
L 102.364345 254.826694 
L 106.343398 254.826694 
L 106.343398 248.666978 
L 109.327688 248.666978 
L 109.327688 247.165871 
L 112.311978 247.165871 
L 112.311978 245.745283 
L 113.306741 245.745283 
L 113.306741 242.150677 
L 117.285794 242.150677 
L 117.285794 239.951737 
L 118.280557 239.951737 
L 118.280557 239.1638 
L 119.27532 239.1638 
L 119.27532 237.515074 
L 120.270084 237.515074 
L 120.270084 236.077232 
L 121.264847 236.077232 
L 121.264847 234.505191 
L 122.25961 234.505191 
L 122.25961 231.974589 
L 123.254373 231.974589 
L 123.254373 230.122648 
L 124.249136 230.122648 
L 124.249136 228.740402 
L 126.238663 228.740402 
L 126.238663 227.457847 
L 129.222953 227.457847 
L 129.222953 225.66342 
L 130.217716 225.66342 
L 130.217716 224.179567 
L 131.212479 224.179567 
L 131.212479 222.741725 
L 133.202006 222.741725 
L 133.202006 221.035485 
L 134.196769 221.035485 
L 134.196769 220.347238 
L 135.191532 220.347238 
L 135.191532 218.468458 
L 137.181058 218.468458 
L 137.181058 217.389117 
L 138.175822 217.389117 
L 138.175822 216.311694 
L 139.170585 216.311694 
L 139.170585 215.583188 
L 140.165348 215.583188 
L 140.165348 214.76841 
L 142.154875 214.76841 
L 142.154875 213.215541 
L 145.139164 213.215541 
L 145.139164 211.378937 
L 146.133928 211.378937 
L 146.133928 210.805717 
L 155.086797 210.805717 
L 155.086797 209.095644 
L 156.08156 209.095644 
L 156.08156 207.274377 
L 157.076323 207.274377 
L 157.076323 205.932391 
L 158.071086 205.932391 
L 158.071086 202.878414 
L 160.060613 202.878414 
L 160.060613 200.74849 
L 162.050139 200.74849 
L 162.050139 198.237059 
L 164.039666 198.237059 
L 164.039666 196.703361 
L 167.023955 196.703361 
L 167.023955 194.903183 
L 168.018719 194.903183 
L 168.018719 193.11259 
L 171.003008 193.11259 
L 171.003008 191.314328 
L 171.997772 191.314328 
L 171.997772 189.516067 
L 175.976825 189.516067 
L 175.976825 187.712054 
L 177.966351 187.712054 
L 177.966351 184.65616 
L 178.961114 184.65616 
L 178.961114 182.831059 
L 179.955877 182.831059 
L 179.955877 181.028964 
L 180.950641 181.028964 
L 180.950641 179.184692 
L 182.940167 179.184692 
L 182.940167 176.646421 
L 185.924457 176.646421 
L 185.924457 173.927941 
L 186.91922 173.927941 
L 186.91922 172.127762 
L 188.908747 172.127762 
L 188.908747 170.22981 
L 189.90351 170.22981 
L 189.90351 168.420046 
L 193.882563 168.420046 
L 193.882563 165.900947 
L 195.872089 165.900947 
L 195.872089 164.072012 
L 196.866852 164.072012 
L 196.866852 161.71395 
L 198.856379 161.71395 
L 198.856379 159.896518 
L 199.851142 159.896518 
L 199.851142 158.084837 
L 200.845905 158.084837 
L 200.845905 157.569131 
L 206.814485 157.569131 
L 206.814485 155.747864 
L 207.809248 155.747864 
L 207.809248 153.926597 
L 208.804011 153.926597 
L 208.804011 152.120667 
L 210.793538 152.120667 
L 210.793538 150.443185 
L 214.772591 150.443185 
L 214.772591 148.57399 
L 215.767354 148.57399 
L 215.767354 146.273442 
L 217.75688 146.273442 
L 217.75688 144.356319 
L 219.746407 144.356319 
L 219.746407 141.595662 
L 223.72546 141.595662 
L 223.72546 140.014036 
L 224.720223 140.014036 
L 224.720223 138.480338 
L 225.714986 138.480338 
L 225.714986 137.694317 
L 232.678329 137.694317 
L 232.678329 134.588578 
L 233.673092 134.588578 
L 233.673092 132.633113 
L 234.667855 132.633113 
L 234.667855 128.881303 
L 235.662618 128.881303 
L 235.662618 127.175064 
L 240.636435 127.175064 
L 240.636435 126.055464 
L 242.625961 126.055464 
L 242.625961 124.195855 
L 243.620724 124.195855 
L 243.620724 122.758012 
L 248.59454 122.758012 
L 248.59454 119.194081 
L 252.573593 119.194081 
L 252.573593 118.676458 
L 275.453148 118.676458 
L 275.453148 117.62204 
L 317.233203 117.62204 
L 317.233203 116.049999 
L 330.165125 116.049999 
L 330.165125 115.053095 
L 358.018496 115.053095 
L 358.018496 114.33034 
L 359.013259 114.33034 
L 359.013259 113.573076 
L 361.002786 113.573076 
L 361.002786 112.614515 
L 362.992312 112.614515 
L 362.992312 112.039378 
L 364.981838 112.039378 
L 364.981838 111.272529 
L 366.971365 111.272529 
L 366.971365 110.50568 
L 368.960891 110.50568 
L 368.960891 109.317063 
L 371.945181 109.317063 
L 371.945181 108.070934 
L 383.88234 108.070934 
L 383.88234 106.955168 
L 385.871866 106.955168 
L 385.871866 105.64769 
L 387.861393 105.64769 
L 387.861393 103.979793 
L 389.850919 103.979793 
L 389.850919 102.781591 
L 391.840446 102.781591 
L 391.840446 101.015921 
L 393.829972 101.015921 
L 393.829972 99.555073 
L 396.814262 99.555073 
L 396.814262 98.132568 
L 398.803788 98.132568 
L 398.803788 96.246119 
L 400.793315 96.246119 
L 400.793315 94.455526 
L 403.777604 94.455526 
L 403.777604 93.209397 
L 406.761894 93.209397 
L 406.761894 91.645024 
L 409.746184 91.645024 
L 409.746184 90.671126 
L 412.730474 90.671126 
L 412.730474 89.693393 
L 417.70429 89.693393 
L 417.70429 88.734832 
L 418.699053 88.734832 
L 418.699053 87.680414 
L 418.699053 87.680414 
" clip-path="url(#p77e7195918)" style="fill: none; stroke: #ff7f0e; stroke-width: 1.5; stroke-linecap: square"/>
   </g>
   <g id="line2d_17">
    <path d="M 60.58429 306.146158 
L 63.568579 306.146158 
L 63.568579 302.662745 
L 64.563343 302.662745 
L 64.563343 300.306601 
L 66.552869 300.306601 
L 66.552869 298.308959 
L 68.542396 298.308959 
L 68.542396 295.605816 
L 70.531922 295.605816 
L 70.531922 292.212508 
L 75.505738 292.212508 
L 75.505738 289.148946 
L 78.490028 289.148946 
L 78.490028 287.404364 
L 80.479554 287.404364 
L 80.479554 285.583097 
L 82.469081 285.583097 
L 82.469081 282.369999 
L 84.458607 282.369999 
L 84.458607 279.057211 
L 86.448134 279.057211 
L 86.448134 277.377811 
L 88.43766 277.377811 
L 88.43766 275.015916 
L 100.374819 275.015916 
L 100.374819 272.168988 
L 102.364345 272.168988 
L 102.364345 269.155271 
L 105.348635 269.155271 
L 105.348635 267.468203 
L 106.343398 267.468203 
L 106.343398 265.781134 
L 108.332925 265.781134 
L 108.332925 264.120906 
L 109.327688 264.120906 
L 109.327688 261.787767 
L 110.322451 261.787767 
L 110.322451 258.741459 
L 112.311978 258.741459 
L 112.311978 257.740721 
L 117.285794 257.740721 
L 117.285794 254.481612 
L 122.25961 254.481612 
L 122.25961 252.096711 
L 123.254373 252.096711 
L 123.254373 248.914287 
L 124.249136 248.914287 
L 124.249136 247.455356 
L 128.228189 247.455356 
L 128.228189 244.999522 
L 129.222953 244.999522 
L 129.222953 243.270277 
L 130.217716 243.270277 
L 130.217716 241.381911 
L 132.207242 241.381911 
L 132.207242 239.905726 
L 134.196769 239.905726 
L 134.196769 238.832137 
L 135.191532 238.832137 
L 135.191532 237.873576 
L 138.175822 237.873576 
L 138.175822 234.324981 
L 142.154875 234.324981 
L 142.154875 229.526423 
L 148.123454 229.526423 
L 148.123454 228.40874 
L 149.118217 228.40874 
L 149.118217 227.467433 
L 153.09727 227.467433 
L 153.09727 224.528483 
L 154.092033 224.528483 
L 154.092033 222.262444 
L 161.055376 222.262444 
L 161.055376 221.11217 
L 163.044903 221.11217 
L 163.044903 219.482616 
L 166.029192 219.482616 
L 166.029192 217.565493 
L 171.003008 217.565493 
L 171.003008 214.536438 
L 174.982061 214.536438 
L 174.982061 212.847453 
L 178.961114 212.847453 
L 178.961114 210.307265 
L 180.950641 210.307265 
L 180.950641 208.721805 
L 184.929694 208.721805 
L 184.929694 207.142095 
L 186.91922 207.142095 
L 186.91922 203.514899 
L 190.898273 203.514899 
L 190.898273 200.620043 
L 228.699276 200.620043 
L 228.699276 198.990489 
L 230.688802 198.990489 
L 230.688802 197.936071 
L 231.683565 197.936071 
L 231.683565 197.196062 
L 233.673092 197.196062 
L 233.673092 195.877081 
L 234.667855 195.877081 
L 234.667855 194.504421 
L 236.657382 194.504421 
L 236.657382 192.892121 
L 239.641671 192.892121 
L 239.641671 191.410185 
L 243.620724 191.410185 
L 243.620724 189.964674 
L 244.615487 189.964674 
L 244.615487 188.246932 
L 246.605014 188.246932 
L 246.605014 186.80909 
L 247.599777 186.80909 
L 247.599777 184.412686 
L 249.589304 184.412686 
L 249.589304 182.342193 
L 251.57883 182.342193 
L 251.57883 180.743313 
L 254.56312 180.743313 
L 254.56312 177.451612 
L 258.542173 177.451612 
L 258.542173 174.096647 
L 262.521226 174.096647 
L 262.521226 171.065676 
L 263.515989 171.065676 
L 263.515989 170.586395 
L 264.510752 170.586395 
L 264.510752 168.749791 
L 269.484568 168.749791 
L 269.484568 166.017891 
L 270.479331 166.017891 
L 270.479331 165.103424 
L 271.474095 165.103424 
L 271.474095 163.579311 
L 275.453148 163.579311 
L 275.453148 162.013021 
L 276.447911 162.013021 
L 276.447911 158.638885 
L 278.437437 158.638885 
L 278.437437 155.897399 
L 279.432201 155.897399 
L 279.432201 154.852567 
L 285.40078 154.852567 
L 285.40078 152.615285 
L 287.390306 152.615285 
L 287.390306 151.790922 
L 288.38507 151.790922 
L 288.38507 150.147948 
L 289.379833 150.147948 
L 289.379833 147.30102 
L 291.369359 147.30102 
L 291.369359 143.888541 
L 306.290808 143.888541 
L 306.290808 141.829551 
L 307.285571 141.829551 
L 307.285571 140.660106 
L 308.280334 140.660106 
L 308.280334 138.282874 
L 310.269861 138.282874 
L 310.269861 137.654058 
L 311.264624 137.654058 
L 311.264624 136.593889 
L 312.259387 136.593889 
L 312.259387 135.405272 
L 314.248914 135.405272 
L 314.248914 134.218573 
L 316.23844 134.218573 
L 316.23844 131.998545 
L 318.227967 131.998545 
L 318.227967 129.803439 
L 325.191309 129.803439 
L 325.191309 127.219157 
L 327.180836 127.219157 
L 327.180836 125.55126 
L 329.170362 125.55126 
L 329.170362 124.61187 
L 331.159889 124.61187 
L 331.159889 122.541377 
L 332.154652 122.541377 
L 332.154652 121.044104 
L 333.149415 121.044104 
L 333.149415 120.003107 
L 334.144178 120.003107 
L 334.144178 117.986293 
L 336.133705 117.986293 
L 336.133705 115.986734 
L 337.128468 115.986734 
L 337.128468 113.360276 
L 338.123231 113.360276 
L 338.123231 112.323112 
L 340.112758 112.323112 
L 340.112758 109.761836 
L 344.091811 109.761836 
L 344.091811 106.92066 
L 346.081337 106.92066 
L 346.081337 104.006633 
L 347.0761 104.006633 
L 347.0761 102.06267 
L 352.049916 102.06267 
L 352.049916 93.95324 
L 353.04468 93.95324 
L 353.04468 91.002788 
L 357.023733 91.002788 
L 357.023733 88.414672 
L 359.013259 88.414672 
L 359.013259 86.374853 
L 360.008022 86.374853 
L 360.008022 84.373377 
L 361.002786 84.373377 
L 361.002786 81.231212 
L 362.992312 81.231212 
L 362.992312 80.119281 
L 364.981838 80.119281 
L 364.981838 77.502408 
L 365.976602 77.502408 
L 365.976602 76.664626 
L 368.960891 76.664626 
L 368.960891 73.298158 
L 373.934708 73.298158 
L 373.934708 70.805898 
L 376.918997 70.805898 
L 376.918997 69.598111 
L 377.91376 69.598111 
L 377.91376 67.698242 
L 378.908524 67.698242 
L 378.908524 66.436775 
L 386.86663 66.436775 
L 386.86663 62.065735 
L 388.856156 62.065735 
L 388.856156 60.495611 
L 392.835209 60.495611 
L 392.835209 58.672427 
L 397.809025 58.672427 
L 397.809025 56.563592 
L 402.782841 56.563592 
L 402.782841 55.292539 
L 403.777604 55.292539 
L 403.777604 53.16645 
L 410.740947 53.16645 
L 410.740947 51.153471 
L 413.725237 51.153471 
L 413.725237 41.472 
L 419.693816 41.472 
L 419.693816 40.302555 
L 419.693816 40.302555 
" clip-path="url(#p77e7195918)" style="fill: none; stroke: #2ca02c; stroke-width: 1.5; stroke-linecap: square"/>
   </g>
   <g id="patch_3">
    <path d="M 57.6 307.584 
L 57.6 41.472 
" style="fill: none; stroke: #000000; stroke-width: 0.8; stroke-linejoin: miter; stroke-linecap: square"/>
   </g>
   <g id="patch_4">
    <path d="M 414.72 307.584 
L 414.72 41.472 
" style="fill: none; stroke: #000000; stroke-width: 0.8; stroke-linejoin: miter; stroke-linecap: square"/>
   </g>
   <g id="patch_5">
    <path d="M 57.6 307.584 
L 414.72 307.584 
" style="fill: none; stroke: #000000; stroke-width: 0.8; stroke-linejoin: miter; stroke-linecap: square"/>
   </g>
   <g id="patch_6">
    <path d="M 57.6 41.472 
L 414.72 41.472 
" style="fill: none; stroke: #000000; stroke-width: 0.8; stroke-linejoin: miter; stroke-linecap: square"/>
   </g>
   <g id="legend_1">
    <g id="patch_7">
     <path d="M 64.6 93.506375 
L 122.05 93.506375 
Q 124.05 93.506375 124.05 91.506375 
L 124.05 48.472 
Q 124.05 46.472 122.05 46.472 
L 64.6 46.472 
Q 62.6 46.472 62.6 48.472 
L 62.6 91.506375 
Q 62.6 93.506375 64.6 93.506375 
z
" style="fill: #ffffff; opacity: 0.8; stroke: #cccccc; stroke-linejoin: miter"/>
    </g>
    <g id="line2d_18">
     <path d="M 66.6 54.570438 
L 76.6 54.570438 
L 76.6 54.570438 
L 86.6 54.570438 
L 86.6 54.570438 
" style="fill: none; stroke: #1f77b4; stroke-width: 1.5; stroke-linecap: square"/>
    </g>
    <g id="text_17">
     <!-- 2023 -->
     <g transform="translate(94.6 58.070438) scale(0.1 -0.1)">
      <use xlink:href="#DejaVuSans-32"/>
      <use xlink:href="#DejaVuSans-30" x="63.623047"/>
      <use xlink:href="#DejaVuSans-32" x="127.246094"/>
      <use xlink:href="#DejaVuSans-33" x="190.869141"/>
     </g>
    </g>
    <g id="line2d_19">
     <path d="M 66.6 69.248563 
L 76.6 69.248563 
L 76.6 69.248563 
L 86.6 69.248563 
L 86.6 69.248563 
" style="fill: none; stroke: #ff7f0e; stroke-width: 1.5; stroke-linecap: square"/>
    </g>
    <g id="text_18">
     <!-- 2022 -->
     <g transform="translate(94.6 72.748563) scale(0.1 -0.1)">
      <use xlink:href="#DejaVuSans-32"/>
      <use xlink:href="#DejaVuSans-30" x="63.623047"/>
      <use xlink:href="#DejaVuSans-32" x="127.246094"/>
      <use xlink:href="#DejaVuSans-32" x="190.869141"/>
     </g>
    </g>
    <g id="line2d_20">
     <path d="M 66.6 83.926688 
L 76.6 83.926688 
L 76.6 83.926688 
L 86.6 83.926688 
L 86.6 83.926688 
" style="fill: none; stroke: #2ca02c; stroke-width: 1.5; stroke-linecap: square"/>
    </g>
    <g id="text_19">
     <!-- 2021 -->
     <g transform="translate(94.6 87.426688) scale(0.1 -0.1)">
      <use xlink:href="#DejaVuSans-32"/>
      <use xlink:href="#DejaVuSans-30" x="63.623047"/>
      <use xlink:href="#DejaVuSans-32" x="127.246094"/>
      <use xlink:href="#DejaVuSans-31" x="190.869141"/>
     </g>
    </g>
   </g>
  </g>
 </g>
 <defs>
  <clipPath id="p77e7195918">
   <rect x="57.6" y="41.472" width="357.12" height="266.112"/>
  </clipPath>
 </defs>
</svg>
