<?xml version="1.0" encoding="utf-8" standalone="no"?>
<!DOCTYPE svg PUBLIC "-//W3C//DTD SVG 1.1//EN"
  "http://www.w3.org/Graphics/SVG/1.1/DTD/svg11.dtd">
<svg xmlns:xlink="http://www.w3.org/1999/xlink" width="460.8pt" height="345.6pt" viewBox="0 0 460.8 345.6" xmlns="http://www.w3.org/2000/svg" version="1.1">
 <metadata>
  <rdf:RDF xmlns:dc="http://purl.org/dc/elements/1.1/" xmlns:cc="http://creativecommons.org/ns#" xmlns:rdf="http://www.w3.org/1999/02/22-rdf-syntax-ns#">
   <cc:Work>
    <dc:type rdf:resource="http://purl.org/dc/dcmitype/StillImage"/>
    <dc:date>2024-01-01T14:24:11.670832</dc:date>
    <dc:format>image/svg+xml</dc:format>
    <dc:creator>
     <cc:Agent>
      <dc:title>Matplotlib v3.8.0, https://matplotlib.org/</dc:title>
     </cc:Agent>
    </dc:creator>
   </cc:Work>
  </rdf:RDF>
 </metadata>
 <defs>
  <style type="text/css">*{stroke-linejoin: round; stroke-linecap: butt}</style>
 </defs>
 <g id="figure_1">
  <g id="patch_1">
   <path d="M 0 345.6 
L 460.8 345.6 
L 460.8 0 
L 0 0 
z
" style="fill: #ffffff"/>
  </g>
  <g id="axes_1">
   <g id="patch_2">
    <path d="M 40.12 227.81 
L 450 227.81 
L 450 10.8 
L 40.12 10.8 
z
" style="fill: #ffffff"/>
   </g>
   <g id="patch_3">
    <path d="M 58.750909 227.81 
L 73.806189 227.81 
L 73.806189 21.13381 
L 58.750909 21.13381 
z
" clip-path="url(#p280d5404fe)" style="fill: #1f77b4; opacity: 0.3"/>
   </g>
   <g id="patch_4">
    <path d="M 77.570009 227.81 
L 92.625289 227.81 
L 92.625289 136.931108 
L 77.570009 136.931108 
z
" clip-path="url(#p280d5404fe)" style="fill: #1f77b4; opacity: 0.3"/>
   </g>
   <g id="patch_5">
    <path d="M 96.389109 227.81 
L 111.444389 227.81 
L 111.444389 167.712668 
L 96.389109 167.712668 
z
" clip-path="url(#p280d5404fe)" style="fill: #1f77b4; opacity: 0.3"/>
   </g>
   <g id="patch_6">
    <path d="M 115.208209 227.81 
L 130.263489 227.81 
L 130.263489 175.041611 
L 115.208209 175.041611 
z
" clip-path="url(#p280d5404fe)" style="fill: #1f77b4; opacity: 0.3"/>
   </g>
   <g id="patch_7">
    <path d="M 134.027309 227.81 
L 149.08259 227.81 
L 149.08259 185.302131 
L 134.027309 185.302131 
z
" clip-path="url(#p280d5404fe)" style="fill: #1f77b4; opacity: 0.3"/>
   </g>
   <g id="patch_8">
    <path d="M 152.84641 227.81 
L 167.90169 227.81 
L 167.90169 204.357383 
L 152.84641 204.357383 
z
" clip-path="url(#p280d5404fe)" style="fill: #1f77b4; opacity: 0.3"/>
   </g>
   <g id="patch_9">
    <path d="M 171.66551 227.81 
L 186.72079 227.81 
L 186.72079 219.015268 
L 171.66551 219.015268 
z
" clip-path="url(#p280d5404fe)" style="fill: #1f77b4; opacity: 0.3"/>
   </g>
   <g id="patch_10">
    <path d="M 190.48461 227.81 
L 205.53989 227.81 
L 205.53989 219.015268 
L 190.48461 219.015268 
z
" clip-path="url(#p280d5404fe)" style="fill: #1f77b4; opacity: 0.3"/>
   </g>
   <g id="patch_11">
    <path d="M 209.30371 227.81 
L 224.35899 227.81 
L 224.35899 220.481057 
L 209.30371 220.481057 
z
" clip-path="url(#p280d5404fe)" style="fill: #1f77b4; opacity: 0.3"/>
   </g>
   <g id="patch_12">
    <path d="M 228.12281 227.81 
L 243.17809 227.81 
L 243.17809 221.946846 
L 228.12281 221.946846 
z
" clip-path="url(#p280d5404fe)" style="fill: #1f77b4; opacity: 0.3"/>
   </g>
   <g id="patch_13">
    <path d="M 246.94191 227.81 
L 261.99719 227.81 
L 261.99719 223.412634 
L 246.94191 223.412634 
z
" clip-path="url(#p280d5404fe)" style="fill: #1f77b4; opacity: 0.3"/>
   </g>
   <g id="patch_14">
    <path d="M 265.76101 227.81 
L 280.81629 227.81 
L 280.81629 224.878423 
L 265.76101 224.878423 
z
" clip-path="url(#p280d5404fe)" style="fill: #1f77b4; opacity: 0.3"/>
   </g>
   <g id="patch_15">
    <path d="M 284.58011 227.81 
L 299.63539 227.81 
L 299.63539 226.344211 
L 284.58011 226.344211 
z
" clip-path="url(#p280d5404fe)" style="fill: #1f77b4; opacity: 0.3"/>
   </g>
   <g id="patch_16">
    <path d="M 303.39921 227.81 
L 318.45449 227.81 
L 318.45449 226.344211 
L 303.39921 226.344211 
z
" clip-path="url(#p280d5404fe)" style="fill: #1f77b4; opacity: 0.3"/>
   </g>
   <g id="patch_17">
    <path d="M 322.21831 227.81 
L 337.27359 227.81 
L 337.27359 226.344211 
L 322.21831 226.344211 
z
" clip-path="url(#p280d5404fe)" style="fill: #1f77b4; opacity: 0.3"/>
   </g>
   <g id="patch_18">
    <path d="M 341.03741 227.81 
L 356.092691 227.81 
L 356.092691 226.344211 
L 341.03741 226.344211 
z
" clip-path="url(#p280d5404fe)" style="fill: #1f77b4; opacity: 0.3"/>
   </g>
   <g id="patch_19">
    <path d="M 359.856511 227.81 
L 374.911791 227.81 
L 374.911791 227.81 
L 359.856511 227.81 
z
" clip-path="url(#p280d5404fe)" style="fill: #1f77b4; opacity: 0.3"/>
   </g>
   <g id="patch_20">
    <path d="M 378.675611 227.81 
L 393.730891 227.81 
L 393.730891 227.81 
L 378.675611 227.81 
z
" clip-path="url(#p280d5404fe)" style="fill: #1f77b4; opacity: 0.3"/>
   </g>
   <g id="patch_21">
    <path d="M 397.494711 227.81 
L 412.549991 227.81 
L 412.549991 227.81 
L 397.494711 227.81 
z
" clip-path="url(#p280d5404fe)" style="fill: #1f77b4; opacity: 0.3"/>
   </g>
   <g id="patch_22">
    <path d="M 416.313811 227.81 
L 431.369091 227.81 
L 431.369091 227.81 
L 416.313811 227.81 
z
" clip-path="url(#p280d5404fe)" style="fill: #1f77b4; opacity: 0.3"/>
   </g>
   <g id="patch_23">
    <path d="M 58.750909 227.81 
L 73.806189 227.81 
L 73.806189 25.095036 
L 58.750909 25.095036 
z
" clip-path="url(#p280d5404fe)" style="fill: #ff7f0e; opacity: 0.3"/>
   </g>
   <g id="patch_24">
    <path d="M 77.570009 227.81 
L 92.625289 227.81 
L 92.625289 138.423874 
L 77.570009 138.423874 
z
" clip-path="url(#p280d5404fe)" style="fill: #ff7f0e; opacity: 0.3"/>
   </g>
   <g id="patch_25">
    <path d="M 96.389109 227.81 
L 111.444389 227.81 
L 111.444389 170.34749 
L 96.389109 170.34749 
z
" clip-path="url(#p280d5404fe)" style="fill: #ff7f0e; opacity: 0.3"/>
   </g>
   <g id="patch_26">
    <path d="M 115.208209 227.81 
L 130.263489 227.81 
L 130.263489 160.770406 
L 115.208209 160.770406 
z
" clip-path="url(#p280d5404fe)" style="fill: #ff7f0e; opacity: 0.3"/>
   </g>
   <g id="patch_27">
    <path d="M 134.027309 227.81 
L 149.08259 227.81 
L 149.08259 218.232915 
L 134.027309 218.232915 
z
" clip-path="url(#p280d5404fe)" style="fill: #ff7f0e; opacity: 0.3"/>
   </g>
   <g id="patch_28">
    <path d="M 152.84641 227.81 
L 167.90169 227.81 
L 167.90169 207.059649 
L 152.84641 207.059649 
z
" clip-path="url(#p280d5404fe)" style="fill: #ff7f0e; opacity: 0.3"/>
   </g>
   <g id="patch_29">
    <path d="M 171.66551 227.81 
L 186.72079 227.81 
L 186.72079 221.425277 
L 171.66551 221.425277 
z
" clip-path="url(#p280d5404fe)" style="fill: #ff7f0e; opacity: 0.3"/>
   </g>
   <g id="patch_30">
    <path d="M 190.48461 227.81 
L 205.53989 227.81 
L 205.53989 223.021458 
L 190.48461 223.021458 
z
" clip-path="url(#p280d5404fe)" style="fill: #ff7f0e; opacity: 0.3"/>
   </g>
   <g id="patch_31">
    <path d="M 209.30371 227.81 
L 224.35899 227.81 
L 224.35899 226.213819 
L 209.30371 226.213819 
z
" clip-path="url(#p280d5404fe)" style="fill: #ff7f0e; opacity: 0.3"/>
   </g>
   <g id="patch_32">
    <path d="M 228.12281 227.81 
L 243.17809 227.81 
L 243.17809 207.059649 
L 228.12281 207.059649 
z
" clip-path="url(#p280d5404fe)" style="fill: #ff7f0e; opacity: 0.3"/>
   </g>
   <g id="patch_33">
    <path d="M 246.94191 227.81 
L 261.99719 227.81 
L 261.99719 202.271107 
L 246.94191 202.271107 
z
" clip-path="url(#p280d5404fe)" style="fill: #ff7f0e; opacity: 0.3"/>
   </g>
   <g id="patch_34">
    <path d="M 265.76101 227.81 
L 280.81629 227.81 
L 280.81629 224.617638 
L 265.76101 224.617638 
z
" clip-path="url(#p280d5404fe)" style="fill: #ff7f0e; opacity: 0.3"/>
   </g>
   <g id="patch_35">
    <path d="M 284.58011 227.81 
L 299.63539 227.81 
L 299.63539 224.617638 
L 284.58011 224.617638 
z
" clip-path="url(#p280d5404fe)" style="fill: #ff7f0e; opacity: 0.3"/>
   </g>
   <g id="patch_36">
    <path d="M 303.39921 227.81 
L 318.45449 227.81 
L 318.45449 227.81 
L 303.39921 227.81 
z
" clip-path="url(#p280d5404fe)" style="fill: #ff7f0e; opacity: 0.3"/>
   </g>
   <g id="patch_37">
    <path d="M 322.21831 227.81 
L 337.27359 227.81 
L 337.27359 227.81 
L 322.21831 227.81 
z
" clip-path="url(#p280d5404fe)" style="fill: #ff7f0e; opacity: 0.3"/>
   </g>
   <g id="patch_38">
    <path d="M 341.03741 227.81 
L 356.092691 227.81 
L 356.092691 227.81 
L 341.03741 227.81 
z
" clip-path="url(#p280d5404fe)" style="fill: #ff7f0e; opacity: 0.3"/>
   </g>
   <g id="patch_39">
    <path d="M 359.856511 227.81 
L 374.911791 227.81 
L 374.911791 226.213819 
L 359.856511 226.213819 
z
" clip-path="url(#p280d5404fe)" style="fill: #ff7f0e; opacity: 0.3"/>
   </g>
   <g id="patch_40">
    <path d="M 378.675611 227.81 
L 393.730891 227.81 
L 393.730891 226.213819 
L 378.675611 226.213819 
z
" clip-path="url(#p280d5404fe)" style="fill: #ff7f0e; opacity: 0.3"/>
   </g>
   <g id="patch_41">
    <path d="M 397.494711 227.81 
L 412.549991 227.81 
L 412.549991 226.213819 
L 397.494711 226.213819 
z
" clip-path="url(#p280d5404fe)" style="fill: #ff7f0e; opacity: 0.3"/>
   </g>
   <g id="patch_42">
    <path d="M 416.313811 227.81 
L 431.369091 227.81 
L 431.369091 224.617638 
L 416.313811 224.617638 
z
" clip-path="url(#p280d5404fe)" style="fill: #ff7f0e; opacity: 0.3"/>
   </g>
   <g id="matplotlib.axis_1">
    <g id="xtick_1">
     <g id="line2d_1">
      <defs>
       <path id="mba46c4a6a1" d="M 0 0 
L 0 3.5 
" style="stroke: #000000; stroke-width: 0.8"/>
      </defs>
      <g>
       <use xlink:href="#mba46c4a6a1" x="66.278549" y="227.81" style="stroke: #000000; stroke-width: 0.8"/>
      </g>
     </g>
     <g id="text_1">
      <!-- running -->
      <g transform="translate(69.037924 273.3975) rotate(-90) scale(0.1 -0.1)">
       <defs>
        <path id="DejaVuSans-72" d="M 2631 2963 
Q 2534 3019 2420 3045 
Q 2306 3072 2169 3072 
Q 1681 3072 1420 2755 
Q 1159 2438 1159 1844 
L 1159 0 
L 581 0 
L 581 3500 
L 1159 3500 
L 1159 2956 
Q 1341 3275 1631 3429 
Q 1922 3584 2338 3584 
Q 2397 3584 2469 3576 
Q 2541 3569 2628 3553 
L 2631 2963 
z
" transform="scale(0.015625)"/>
        <path id="DejaVuSans-75" d="M 544 1381 
L 544 3500 
L 1119 3500 
L 1119 1403 
Q 1119 906 1312 657 
Q 1506 409 1894 409 
Q 2359 409 2629 706 
Q 2900 1003 2900 1516 
L 2900 3500 
L 3475 3500 
L 3475 0 
L 2900 0 
L 2900 538 
Q 2691 219 2414 64 
Q 2138 -91 1772 -91 
Q 1169 -91 856 284 
Q 544 659 544 1381 
z
M 1991 3584 
L 1991 3584 
z
" transform="scale(0.015625)"/>
        <path id="DejaVuSans-6e" d="M 3513 2113 
L 3513 0 
L 2938 0 
L 2938 2094 
Q 2938 2591 2744 2837 
Q 2550 3084 2163 3084 
Q 1697 3084 1428 2787 
Q 1159 2491 1159 1978 
L 1159 0 
L 581 0 
L 581 3500 
L 1159 3500 
L 1159 2956 
Q 1366 3272 1645 3428 
Q 1925 3584 2291 3584 
Q 2894 3584 3203 3211 
Q 3513 2838 3513 2113 
z
" transform="scale(0.015625)"/>
        <path id="DejaVuSans-69" d="M 603 3500 
L 1178 3500 
L 1178 0 
L 603 0 
L 603 3500 
z
M 603 4863 
L 1178 4863 
L 1178 4134 
L 603 4134 
L 603 4863 
z
" transform="scale(0.015625)"/>
        <path id="DejaVuSans-67" d="M 2906 1791 
Q 2906 2416 2648 2759 
Q 2391 3103 1925 3103 
Q 1463 3103 1205 2759 
Q 947 2416 947 1791 
Q 947 1169 1205 825 
Q 1463 481 1925 481 
Q 2391 481 2648 825 
Q 2906 1169 2906 1791 
z
M 3481 434 
Q 3481 -459 3084 -895 
Q 2688 -1331 1869 -1331 
Q 1566 -1331 1297 -1286 
Q 1028 -1241 775 -1147 
L 775 -588 
Q 1028 -725 1275 -790 
Q 1522 -856 1778 -856 
Q 2344 -856 2625 -561 
Q 2906 -266 2906 331 
L 2906 616 
Q 2728 306 2450 153 
Q 2172 0 1784 0 
Q 1141 0 747 490 
Q 353 981 353 1791 
Q 353 2603 747 3093 
Q 1141 3584 1784 3584 
Q 2172 3584 2450 3431 
Q 2728 3278 2906 2969 
L 2906 3500 
L 3481 3500 
L 3481 434 
z
" transform="scale(0.015625)"/>
       </defs>
       <use xlink:href="#DejaVuSans-72"/>
       <use xlink:href="#DejaVuSans-75" x="41.113281"/>
       <use xlink:href="#DejaVuSans-6e" x="104.492188"/>
       <use xlink:href="#DejaVuSans-6e" x="167.871094"/>
       <use xlink:href="#DejaVuSans-69" x="231.25"/>
       <use xlink:href="#DejaVuSans-6e" x="259.033203"/>
       <use xlink:href="#DejaVuSans-67" x="322.412109"/>
      </g>
     </g>
    </g>
    <g id="xtick_2">
     <g id="line2d_2">
      <g>
       <use xlink:href="#mba46c4a6a1" x="85.097649" y="227.81" style="stroke: #000000; stroke-width: 0.8"/>
      </g>
     </g>
     <g id="text_2">
      <!-- gym: ub -->
      <g transform="translate(87.857024 276.050625) rotate(-90) scale(0.1 -0.1)">
       <defs>
        <path id="DejaVuSans-79" d="M 2059 -325 
Q 1816 -950 1584 -1140 
Q 1353 -1331 966 -1331 
L 506 -1331 
L 506 -850 
L 844 -850 
Q 1081 -850 1212 -737 
Q 1344 -625 1503 -206 
L 1606 56 
L 191 3500 
L 800 3500 
L 1894 763 
L 2988 3500 
L 3597 3500 
L 2059 -325 
z
" transform="scale(0.015625)"/>
        <path id="DejaVuSans-6d" d="M 3328 2828 
Q 3544 3216 3844 3400 
Q 4144 3584 4550 3584 
Q 5097 3584 5394 3201 
Q 5691 2819 5691 2113 
L 5691 0 
L 5113 0 
L 5113 2094 
Q 5113 2597 4934 2840 
Q 4756 3084 4391 3084 
Q 3944 3084 3684 2787 
Q 3425 2491 3425 1978 
L 3425 0 
L 2847 0 
L 2847 2094 
Q 2847 2600 2669 2842 
Q 2491 3084 2119 3084 
Q 1678 3084 1418 2786 
Q 1159 2488 1159 1978 
L 1159 0 
L 581 0 
L 581 3500 
L 1159 3500 
L 1159 2956 
Q 1356 3278 1631 3431 
Q 1906 3584 2284 3584 
Q 2666 3584 2933 3390 
Q 3200 3197 3328 2828 
z
" transform="scale(0.015625)"/>
        <path id="DejaVuSans-3a" d="M 750 794 
L 1409 794 
L 1409 0 
L 750 0 
L 750 794 
z
M 750 3309 
L 1409 3309 
L 1409 2516 
L 750 2516 
L 750 3309 
z
" transform="scale(0.015625)"/>
        <path id="DejaVuSans-20" transform="scale(0.015625)"/>
        <path id="DejaVuSans-62" d="M 3116 1747 
Q 3116 2381 2855 2742 
Q 2594 3103 2138 3103 
Q 1681 3103 1420 2742 
Q 1159 2381 1159 1747 
Q 1159 1113 1420 752 
Q 1681 391 2138 391 
Q 2594 391 2855 752 
Q 3116 1113 3116 1747 
z
M 1159 2969 
Q 1341 3281 1617 3432 
Q 1894 3584 2278 3584 
Q 2916 3584 3314 3078 
Q 3713 2572 3713 1747 
Q 3713 922 3314 415 
Q 2916 -91 2278 -91 
Q 1894 -91 1617 61 
Q 1341 213 1159 525 
L 1159 0 
L 581 0 
L 581 4863 
L 1159 4863 
L 1159 2969 
z
" transform="scale(0.015625)"/>
       </defs>
       <use xlink:href="#DejaVuSans-67"/>
       <use xlink:href="#DejaVuSans-79" x="63.476562"/>
       <use xlink:href="#DejaVuSans-6d" x="122.65625"/>
       <use xlink:href="#DejaVuSans-3a" x="220.068359"/>
       <use xlink:href="#DejaVuSans-20" x="253.759766"/>
       <use xlink:href="#DejaVuSans-75" x="285.546875"/>
       <use xlink:href="#DejaVuSans-62" x="348.925781"/>
      </g>
     </g>
    </g>
    <g id="xtick_3">
     <g id="line2d_3">
      <g>
       <use xlink:href="#mba46c4a6a1" x="103.916749" y="227.81" style="stroke: #000000; stroke-width: 0.8"/>
      </g>
     </g>
     <g id="text_3">
      <!-- cycling -->
      <g transform="translate(106.676124 269.967812) rotate(-90) scale(0.1 -0.1)">
       <defs>
        <path id="DejaVuSans-63" d="M 3122 3366 
L 3122 2828 
Q 2878 2963 2633 3030 
Q 2388 3097 2138 3097 
Q 1578 3097 1268 2742 
Q 959 2388 959 1747 
Q 959 1106 1268 751 
Q 1578 397 2138 397 
Q 2388 397 2633 464 
Q 2878 531 3122 666 
L 3122 134 
Q 2881 22 2623 -34 
Q 2366 -91 2075 -91 
Q 1284 -91 818 406 
Q 353 903 353 1747 
Q 353 2603 823 3093 
Q 1294 3584 2113 3584 
Q 2378 3584 2631 3529 
Q 2884 3475 3122 3366 
z
" transform="scale(0.015625)"/>
        <path id="DejaVuSans-6c" d="M 603 4863 
L 1178 4863 
L 1178 0 
L 603 0 
L 603 4863 
z
" transform="scale(0.015625)"/>
       </defs>
       <use xlink:href="#DejaVuSans-63"/>
       <use xlink:href="#DejaVuSans-79" x="54.980469"/>
       <use xlink:href="#DejaVuSans-63" x="114.160156"/>
       <use xlink:href="#DejaVuSans-6c" x="169.140625"/>
       <use xlink:href="#DejaVuSans-69" x="196.923828"/>
       <use xlink:href="#DejaVuSans-6e" x="224.707031"/>
       <use xlink:href="#DejaVuSans-67" x="288.085938"/>
      </g>
     </g>
    </g>
    <g id="xtick_4">
     <g id="line2d_4">
      <g>
       <use xlink:href="#mba46c4a6a1" x="122.735849" y="227.81" style="stroke: #000000; stroke-width: 0.8"/>
      </g>
     </g>
     <g id="text_4">
      <!-- gym: c -->
      <g transform="translate(125.495224 268.863125) rotate(-90) scale(0.1 -0.1)">
       <use xlink:href="#DejaVuSans-67"/>
       <use xlink:href="#DejaVuSans-79" x="63.476562"/>
       <use xlink:href="#DejaVuSans-6d" x="122.65625"/>
       <use xlink:href="#DejaVuSans-3a" x="220.068359"/>
       <use xlink:href="#DejaVuSans-20" x="253.759766"/>
       <use xlink:href="#DejaVuSans-63" x="285.546875"/>
      </g>
     </g>
    </g>
    <g id="xtick_5">
     <g id="line2d_5">
      <g>
       <use xlink:href="#mba46c4a6a1" x="141.554949" y="227.81" style="stroke: #000000; stroke-width: 0.8"/>
      </g>
     </g>
     <g id="text_5">
      <!-- climbing -->
      <g transform="translate(144.314324 277.417812) rotate(-90) scale(0.1 -0.1)">
       <use xlink:href="#DejaVuSans-63"/>
       <use xlink:href="#DejaVuSans-6c" x="54.980469"/>
       <use xlink:href="#DejaVuSans-69" x="82.763672"/>
       <use xlink:href="#DejaVuSans-6d" x="110.546875"/>
       <use xlink:href="#DejaVuSans-62" x="207.958984"/>
       <use xlink:href="#DejaVuSans-69" x="271.435547"/>
       <use xlink:href="#DejaVuSans-6e" x="299.21875"/>
       <use xlink:href="#DejaVuSans-67" x="362.597656"/>
      </g>
     </g>
    </g>
    <g id="xtick_6">
     <g id="line2d_6">
      <g>
       <use xlink:href="#mba46c4a6a1" x="160.37405" y="227.81" style="stroke: #000000; stroke-width: 0.8"/>
      </g>
     </g>
     <g id="text_6">
      <!-- gym: lb -->
      <g transform="translate(163.133425 272.49125) rotate(-90) scale(0.1 -0.1)">
       <use xlink:href="#DejaVuSans-67"/>
       <use xlink:href="#DejaVuSans-79" x="63.476562"/>
       <use xlink:href="#DejaVuSans-6d" x="122.65625"/>
       <use xlink:href="#DejaVuSans-3a" x="220.068359"/>
       <use xlink:href="#DejaVuSans-20" x="253.759766"/>
       <use xlink:href="#DejaVuSans-6c" x="285.546875"/>
       <use xlink:href="#DejaVuSans-62" x="313.330078"/>
      </g>
     </g>
    </g>
    <g id="xtick_7">
     <g id="line2d_7">
      <g>
       <use xlink:href="#mba46c4a6a1" x="179.19315" y="227.81" style="stroke: #000000; stroke-width: 0.8"/>
      </g>
     </g>
     <g id="text_7">
      <!-- hiking -->
      <g transform="translate(181.952525 265.180312) rotate(-90) scale(0.1 -0.1)">
       <defs>
        <path id="DejaVuSans-68" d="M 3513 2113 
L 3513 0 
L 2938 0 
L 2938 2094 
Q 2938 2591 2744 2837 
Q 2550 3084 2163 3084 
Q 1697 3084 1428 2787 
Q 1159 2491 1159 1978 
L 1159 0 
L 581 0 
L 581 4863 
L 1159 4863 
L 1159 2956 
Q 1366 3272 1645 3428 
Q 1925 3584 2291 3584 
Q 2894 3584 3203 3211 
Q 3513 2838 3513 2113 
z
" transform="scale(0.015625)"/>
        <path id="DejaVuSans-6b" d="M 581 4863 
L 1159 4863 
L 1159 1991 
L 2875 3500 
L 3609 3500 
L 1753 1863 
L 3688 0 
L 2938 0 
L 1159 1709 
L 1159 0 
L 581 0 
L 581 4863 
z
" transform="scale(0.015625)"/>
       </defs>
       <use xlink:href="#DejaVuSans-68"/>
       <use xlink:href="#DejaVuSans-69" x="63.378906"/>
       <use xlink:href="#DejaVuSans-6b" x="91.162109"/>
       <use xlink:href="#DejaVuSans-69" x="149.072266"/>
       <use xlink:href="#DejaVuSans-6e" x="176.855469"/>
       <use xlink:href="#DejaVuSans-67" x="240.234375"/>
      </g>
     </g>
    </g>
    <g id="xtick_8">
     <g id="line2d_8">
      <g>
       <use xlink:href="#mba46c4a6a1" x="198.01225" y="227.81" style="stroke: #000000; stroke-width: 0.8"/>
      </g>
     </g>
     <g id="text_8">
      <!-- snowboarding -->
      <g transform="translate(200.771625 304.9975) rotate(-90) scale(0.1 -0.1)">
       <defs>
        <path id="DejaVuSans-73" d="M 2834 3397 
L 2834 2853 
Q 2591 2978 2328 3040 
Q 2066 3103 1784 3103 
Q 1356 3103 1142 2972 
Q 928 2841 928 2578 
Q 928 2378 1081 2264 
Q 1234 2150 1697 2047 
L 1894 2003 
Q 2506 1872 2764 1633 
Q 3022 1394 3022 966 
Q 3022 478 2636 193 
Q 2250 -91 1575 -91 
Q 1294 -91 989 -36 
Q 684 19 347 128 
L 347 722 
Q 666 556 975 473 
Q 1284 391 1588 391 
Q 1994 391 2212 530 
Q 2431 669 2431 922 
Q 2431 1156 2273 1281 
Q 2116 1406 1581 1522 
L 1381 1569 
Q 847 1681 609 1914 
Q 372 2147 372 2553 
Q 372 3047 722 3315 
Q 1072 3584 1716 3584 
Q 2034 3584 2315 3537 
Q 2597 3491 2834 3397 
z
" transform="scale(0.015625)"/>
        <path id="DejaVuSans-6f" d="M 1959 3097 
Q 1497 3097 1228 2736 
Q 959 2375 959 1747 
Q 959 1119 1226 758 
Q 1494 397 1959 397 
Q 2419 397 2687 759 
Q 2956 1122 2956 1747 
Q 2956 2369 2687 2733 
Q 2419 3097 1959 3097 
z
M 1959 3584 
Q 2709 3584 3137 3096 
Q 3566 2609 3566 1747 
Q 3566 888 3137 398 
Q 2709 -91 1959 -91 
Q 1206 -91 779 398 
Q 353 888 353 1747 
Q 353 2609 779 3096 
Q 1206 3584 1959 3584 
z
" transform="scale(0.015625)"/>
        <path id="DejaVuSans-77" d="M 269 3500 
L 844 3500 
L 1563 769 
L 2278 3500 
L 2956 3500 
L 3675 769 
L 4391 3500 
L 4966 3500 
L 4050 0 
L 3372 0 
L 2619 2869 
L 1863 0 
L 1184 0 
L 269 3500 
z
" transform="scale(0.015625)"/>
        <path id="DejaVuSans-61" d="M 2194 1759 
Q 1497 1759 1228 1600 
Q 959 1441 959 1056 
Q 959 750 1161 570 
Q 1363 391 1709 391 
Q 2188 391 2477 730 
Q 2766 1069 2766 1631 
L 2766 1759 
L 2194 1759 
z
M 3341 1997 
L 3341 0 
L 2766 0 
L 2766 531 
Q 2569 213 2275 61 
Q 1981 -91 1556 -91 
Q 1019 -91 701 211 
Q 384 513 384 1019 
Q 384 1609 779 1909 
Q 1175 2209 1959 2209 
L 2766 2209 
L 2766 2266 
Q 2766 2663 2505 2880 
Q 2244 3097 1772 3097 
Q 1472 3097 1187 3025 
Q 903 2953 641 2809 
L 641 3341 
Q 956 3463 1253 3523 
Q 1550 3584 1831 3584 
Q 2591 3584 2966 3190 
Q 3341 2797 3341 1997 
z
" transform="scale(0.015625)"/>
        <path id="DejaVuSans-64" d="M 2906 2969 
L 2906 4863 
L 3481 4863 
L 3481 0 
L 2906 0 
L 2906 525 
Q 2725 213 2448 61 
Q 2172 -91 1784 -91 
Q 1150 -91 751 415 
Q 353 922 353 1747 
Q 353 2572 751 3078 
Q 1150 3584 1784 3584 
Q 2172 3584 2448 3432 
Q 2725 3281 2906 2969 
z
M 947 1747 
Q 947 1113 1208 752 
Q 1469 391 1925 391 
Q 2381 391 2643 752 
Q 2906 1113 2906 1747 
Q 2906 2381 2643 2742 
Q 2381 3103 1925 3103 
Q 1469 3103 1208 2742 
Q 947 2381 947 1747 
z
" transform="scale(0.015625)"/>
       </defs>
       <use xlink:href="#DejaVuSans-73"/>
       <use xlink:href="#DejaVuSans-6e" x="52.099609"/>
       <use xlink:href="#DejaVuSans-6f" x="115.478516"/>
       <use xlink:href="#DejaVuSans-77" x="176.660156"/>
       <use xlink:href="#DejaVuSans-62" x="258.447266"/>
       <use xlink:href="#DejaVuSans-6f" x="321.923828"/>
       <use xlink:href="#DejaVuSans-61" x="383.105469"/>
       <use xlink:href="#DejaVuSans-72" x="444.384766"/>
       <use xlink:href="#DejaVuSans-64" x="483.748047"/>
       <use xlink:href="#DejaVuSans-69" x="547.224609"/>
       <use xlink:href="#DejaVuSans-6e" x="575.007812"/>
       <use xlink:href="#DejaVuSans-67" x="638.386719"/>
      </g>
     </g>
    </g>
    <g id="xtick_9">
     <g id="line2d_9">
      <g>
       <use xlink:href="#mba46c4a6a1" x="216.83135" y="227.81" style="stroke: #000000; stroke-width: 0.8"/>
      </g>
     </g>
     <g id="text_9">
      <!-- tennis -->
      <g transform="translate(219.590725 265.545937) rotate(-90) scale(0.1 -0.1)">
       <defs>
        <path id="DejaVuSans-74" d="M 1172 4494 
L 1172 3500 
L 2356 3500 
L 2356 3053 
L 1172 3053 
L 1172 1153 
Q 1172 725 1289 603 
Q 1406 481 1766 481 
L 2356 481 
L 2356 0 
L 1766 0 
Q 1100 0 847 248 
Q 594 497 594 1153 
L 594 3053 
L 172 3053 
L 172 3500 
L 594 3500 
L 594 4494 
L 1172 4494 
z
" transform="scale(0.015625)"/>
        <path id="DejaVuSans-65" d="M 3597 1894 
L 3597 1613 
L 953 1613 
Q 991 1019 1311 708 
Q 1631 397 2203 397 
Q 2534 397 2845 478 
Q 3156 559 3463 722 
L 3463 178 
Q 3153 47 2828 -22 
Q 2503 -91 2169 -91 
Q 1331 -91 842 396 
Q 353 884 353 1716 
Q 353 2575 817 3079 
Q 1281 3584 2069 3584 
Q 2775 3584 3186 3129 
Q 3597 2675 3597 1894 
z
M 3022 2063 
Q 3016 2534 2758 2815 
Q 2500 3097 2075 3097 
Q 1594 3097 1305 2825 
Q 1016 2553 972 2059 
L 3022 2063 
z
" transform="scale(0.015625)"/>
       </defs>
       <use xlink:href="#DejaVuSans-74"/>
       <use xlink:href="#DejaVuSans-65" x="39.208984"/>
       <use xlink:href="#DejaVuSans-6e" x="100.732422"/>
       <use xlink:href="#DejaVuSans-6e" x="164.111328"/>
       <use xlink:href="#DejaVuSans-69" x="227.490234"/>
       <use xlink:href="#DejaVuSans-73" x="255.273438"/>
      </g>
     </g>
    </g>
    <g id="xtick_10">
     <g id="line2d_10">
      <g>
       <use xlink:href="#mba46c4a6a1" x="235.65045" y="227.81" style="stroke: #000000; stroke-width: 0.8"/>
      </g>
     </g>
     <g id="text_10">
      <!-- elliptical -->
      <g transform="translate(238.409825 276.749062) rotate(-90) scale(0.1 -0.1)">
       <defs>
        <path id="DejaVuSans-70" d="M 1159 525 
L 1159 -1331 
L 581 -1331 
L 581 3500 
L 1159 3500 
L 1159 2969 
Q 1341 3281 1617 3432 
Q 1894 3584 2278 3584 
Q 2916 3584 3314 3078 
Q 3713 2572 3713 1747 
Q 3713 922 3314 415 
Q 2916 -91 2278 -91 
Q 1894 -91 1617 61 
Q 1341 213 1159 525 
z
M 3116 1747 
Q 3116 2381 2855 2742 
Q 2594 3103 2138 3103 
Q 1681 3103 1420 2742 
Q 1159 2381 1159 1747 
Q 1159 1113 1420 752 
Q 1681 391 2138 391 
Q 2594 391 2855 752 
Q 3116 1113 3116 1747 
z
" transform="scale(0.015625)"/>
       </defs>
       <use xlink:href="#DejaVuSans-65"/>
       <use xlink:href="#DejaVuSans-6c" x="61.523438"/>
       <use xlink:href="#DejaVuSans-6c" x="89.306641"/>
       <use xlink:href="#DejaVuSans-69" x="117.089844"/>
       <use xlink:href="#DejaVuSans-70" x="144.873047"/>
       <use xlink:href="#DejaVuSans-74" x="208.349609"/>
       <use xlink:href="#DejaVuSans-69" x="247.558594"/>
       <use xlink:href="#DejaVuSans-63" x="275.341797"/>
       <use xlink:href="#DejaVuSans-61" x="330.322266"/>
       <use xlink:href="#DejaVuSans-6c" x="391.601562"/>
      </g>
     </g>
    </g>
    <g id="xtick_11">
     <g id="line2d_11">
      <g>
       <use xlink:href="#mba46c4a6a1" x="254.46955" y="227.81" style="stroke: #000000; stroke-width: 0.8"/>
      </g>
     </g>
     <g id="text_11">
      <!-- swimming -->
      <g transform="translate(257.228925 285.920937) rotate(-90) scale(0.1 -0.1)">
       <use xlink:href="#DejaVuSans-73"/>
       <use xlink:href="#DejaVuSans-77" x="52.099609"/>
       <use xlink:href="#DejaVuSans-69" x="133.886719"/>
       <use xlink:href="#DejaVuSans-6d" x="161.669922"/>
       <use xlink:href="#DejaVuSans-6d" x="259.082031"/>
       <use xlink:href="#DejaVuSans-69" x="356.494141"/>
       <use xlink:href="#DejaVuSans-6e" x="384.277344"/>
       <use xlink:href="#DejaVuSans-67" x="447.65625"/>
      </g>
     </g>
    </g>
    <g id="xtick_12">
     <g id="line2d_12">
      <g>
       <use xlink:href="#mba46c4a6a1" x="273.28865" y="227.81" style="stroke: #000000; stroke-width: 0.8"/>
      </g>
     </g>
     <g id="text_12">
      <!-- volleyball -->
      <g transform="translate(276.048025 282.508437) rotate(-90) scale(0.1 -0.1)">
       <defs>
        <path id="DejaVuSans-76" d="M 191 3500 
L 800 3500 
L 1894 563 
L 2988 3500 
L 3597 3500 
L 2284 0 
L 1503 0 
L 191 3500 
z
" transform="scale(0.015625)"/>
       </defs>
       <use xlink:href="#DejaVuSans-76"/>
       <use xlink:href="#DejaVuSans-6f" x="59.179688"/>
       <use xlink:href="#DejaVuSans-6c" x="120.361328"/>
       <use xlink:href="#DejaVuSans-6c" x="148.144531"/>
       <use xlink:href="#DejaVuSans-65" x="175.927734"/>
       <use xlink:href="#DejaVuSans-79" x="237.451172"/>
       <use xlink:href="#DejaVuSans-62" x="296.630859"/>
       <use xlink:href="#DejaVuSans-61" x="360.107422"/>
       <use xlink:href="#DejaVuSans-6c" x="421.386719"/>
       <use xlink:href="#DejaVuSans-6c" x="449.169922"/>
      </g>
     </g>
    </g>
    <g id="xtick_13">
     <g id="line2d_13">
      <g>
       <use xlink:href="#mba46c4a6a1" x="292.10775" y="227.81" style="stroke: #000000; stroke-width: 0.8"/>
      </g>
     </g>
     <g id="text_13">
      <!-- cross-country skiing -->
      <g transform="translate(294.867125 335.002187) rotate(-90) scale(0.1 -0.1)">
       <defs>
        <path id="DejaVuSans-2d" d="M 313 2009 
L 1997 2009 
L 1997 1497 
L 313 1497 
L 313 2009 
z
" transform="scale(0.015625)"/>
       </defs>
       <use xlink:href="#DejaVuSans-63"/>
       <use xlink:href="#DejaVuSans-72" x="54.980469"/>
       <use xlink:href="#DejaVuSans-6f" x="93.84375"/>
       <use xlink:href="#DejaVuSans-73" x="155.025391"/>
       <use xlink:href="#DejaVuSans-73" x="207.125"/>
       <use xlink:href="#DejaVuSans-2d" x="259.224609"/>
       <use xlink:href="#DejaVuSans-63" x="295.308594"/>
       <use xlink:href="#DejaVuSans-6f" x="350.289062"/>
       <use xlink:href="#DejaVuSans-75" x="411.470703"/>
       <use xlink:href="#DejaVuSans-6e" x="474.849609"/>
       <use xlink:href="#DejaVuSans-74" x="538.228516"/>
       <use xlink:href="#DejaVuSans-72" x="577.4375"/>
       <use xlink:href="#DejaVuSans-79" x="618.550781"/>
       <use xlink:href="#DejaVuSans-20" x="677.730469"/>
       <use xlink:href="#DejaVuSans-73" x="709.517578"/>
       <use xlink:href="#DejaVuSans-6b" x="761.617188"/>
       <use xlink:href="#DejaVuSans-69" x="819.527344"/>
       <use xlink:href="#DejaVuSans-69" x="847.310547"/>
       <use xlink:href="#DejaVuSans-6e" x="875.09375"/>
       <use xlink:href="#DejaVuSans-67" x="938.472656"/>
      </g>
     </g>
    </g>
    <g id="xtick_14">
     <g id="line2d_14">
      <g>
       <use xlink:href="#mba46c4a6a1" x="310.92685" y="227.81" style="stroke: #000000; stroke-width: 0.8"/>
      </g>
     </g>
     <g id="text_14">
      <!-- padel -->
      <g transform="translate(313.686225 262.56625) rotate(-90) scale(0.1 -0.1)">
       <use xlink:href="#DejaVuSans-70"/>
       <use xlink:href="#DejaVuSans-61" x="63.476562"/>
       <use xlink:href="#DejaVuSans-64" x="124.755859"/>
       <use xlink:href="#DejaVuSans-65" x="188.232422"/>
       <use xlink:href="#DejaVuSans-6c" x="249.755859"/>
      </g>
     </g>
    </g>
    <g id="xtick_15">
     <g id="line2d_15">
      <g>
       <use xlink:href="#mba46c4a6a1" x="329.74595" y="227.81" style="stroke: #000000; stroke-width: 0.8"/>
      </g>
     </g>
     <g id="text_15">
      <!-- via ferrata -->
      <g transform="translate(332.505325 286.71) rotate(-90) scale(0.1 -0.1)">
       <defs>
        <path id="DejaVuSans-66" d="M 2375 4863 
L 2375 4384 
L 1825 4384 
Q 1516 4384 1395 4259 
Q 1275 4134 1275 3809 
L 1275 3500 
L 2222 3500 
L 2222 3053 
L 1275 3053 
L 1275 0 
L 697 0 
L 697 3053 
L 147 3053 
L 147 3500 
L 697 3500 
L 697 3744 
Q 697 4328 969 4595 
Q 1241 4863 1831 4863 
L 2375 4863 
z
" transform="scale(0.015625)"/>
       </defs>
       <use xlink:href="#DejaVuSans-76"/>
       <use xlink:href="#DejaVuSans-69" x="59.179688"/>
       <use xlink:href="#DejaVuSans-61" x="86.962891"/>
       <use xlink:href="#DejaVuSans-20" x="148.242188"/>
       <use xlink:href="#DejaVuSans-66" x="180.029297"/>
       <use xlink:href="#DejaVuSans-65" x="215.234375"/>
       <use xlink:href="#DejaVuSans-72" x="276.757812"/>
       <use xlink:href="#DejaVuSans-72" x="316.121094"/>
       <use xlink:href="#DejaVuSans-61" x="357.234375"/>
       <use xlink:href="#DejaVuSans-74" x="418.513672"/>
       <use xlink:href="#DejaVuSans-61" x="457.722656"/>
      </g>
     </g>
    </g>
    <g id="xtick_16">
     <g id="line2d_16">
      <g>
       <use xlink:href="#mba46c4a6a1" x="348.565051" y="227.81" style="stroke: #000000; stroke-width: 0.8"/>
      </g>
     </g>
     <g id="text_16">
      <!-- yoga -->
      <g transform="translate(351.324426 259.324062) rotate(-90) scale(0.1 -0.1)">
       <use xlink:href="#DejaVuSans-79"/>
       <use xlink:href="#DejaVuSans-6f" x="59.179688"/>
       <use xlink:href="#DejaVuSans-67" x="120.361328"/>
       <use xlink:href="#DejaVuSans-61" x="183.837891"/>
      </g>
     </g>
    </g>
    <g id="xtick_17">
     <g id="line2d_17">
      <g>
       <use xlink:href="#mba46c4a6a1" x="367.384151" y="227.81" style="stroke: #000000; stroke-width: 0.8"/>
      </g>
     </g>
     <g id="text_17">
      <!-- gym -->
      <g transform="translate(370.143526 256.817812) rotate(-90) scale(0.1 -0.1)">
       <use xlink:href="#DejaVuSans-67"/>
       <use xlink:href="#DejaVuSans-79" x="63.476562"/>
       <use xlink:href="#DejaVuSans-6d" x="122.65625"/>
      </g>
     </g>
    </g>
    <g id="xtick_18">
     <g id="line2d_18">
      <g>
       <use xlink:href="#mba46c4a6a1" x="386.203251" y="227.81" style="stroke: #000000; stroke-width: 0.8"/>
      </g>
     </g>
     <g id="text_18">
      <!-- inline skating -->
      <g transform="translate(388.962626 301.488125) rotate(-90) scale(0.1 -0.1)">
       <use xlink:href="#DejaVuSans-69"/>
       <use xlink:href="#DejaVuSans-6e" x="27.783203"/>
       <use xlink:href="#DejaVuSans-6c" x="91.162109"/>
       <use xlink:href="#DejaVuSans-69" x="118.945312"/>
       <use xlink:href="#DejaVuSans-6e" x="146.728516"/>
       <use xlink:href="#DejaVuSans-65" x="210.107422"/>
       <use xlink:href="#DejaVuSans-20" x="271.630859"/>
       <use xlink:href="#DejaVuSans-73" x="303.417969"/>
       <use xlink:href="#DejaVuSans-6b" x="355.517578"/>
       <use xlink:href="#DejaVuSans-61" x="411.677734"/>
       <use xlink:href="#DejaVuSans-74" x="472.957031"/>
       <use xlink:href="#DejaVuSans-69" x="512.166016"/>
       <use xlink:href="#DejaVuSans-6e" x="539.949219"/>
       <use xlink:href="#DejaVuSans-67" x="603.328125"/>
      </g>
     </g>
    </g>
    <g id="xtick_19">
     <g id="line2d_19">
      <g>
       <use xlink:href="#mba46c4a6a1" x="405.022351" y="227.81" style="stroke: #000000; stroke-width: 0.8"/>
      </g>
     </g>
     <g id="text_19">
      <!-- kayaking -->
      <g transform="translate(407.781726 279.855312) rotate(-90) scale(0.1 -0.1)">
       <use xlink:href="#DejaVuSans-6b"/>
       <use xlink:href="#DejaVuSans-61" x="56.160156"/>
       <use xlink:href="#DejaVuSans-79" x="117.439453"/>
       <use xlink:href="#DejaVuSans-61" x="176.619141"/>
       <use xlink:href="#DejaVuSans-6b" x="237.898438"/>
       <use xlink:href="#DejaVuSans-69" x="295.808594"/>
       <use xlink:href="#DejaVuSans-6e" x="323.591797"/>
       <use xlink:href="#DejaVuSans-67" x="386.970703"/>
      </g>
     </g>
    </g>
    <g id="xtick_20">
     <g id="line2d_20">
      <g>
       <use xlink:href="#mba46c4a6a1" x="423.841451" y="227.81" style="stroke: #000000; stroke-width: 0.8"/>
      </g>
     </g>
     <g id="text_20">
      <!-- snowshoe hiking -->
      <g transform="translate(426.600826 318.020937) rotate(-90) scale(0.1 -0.1)">
       <use xlink:href="#DejaVuSans-73"/>
       <use xlink:href="#DejaVuSans-6e" x="52.099609"/>
       <use xlink:href="#DejaVuSans-6f" x="115.478516"/>
       <use xlink:href="#DejaVuSans-77" x="176.660156"/>
       <use xlink:href="#DejaVuSans-73" x="258.447266"/>
       <use xlink:href="#DejaVuSans-68" x="310.546875"/>
       <use xlink:href="#DejaVuSans-6f" x="373.925781"/>
       <use xlink:href="#DejaVuSans-65" x="435.107422"/>
       <use xlink:href="#DejaVuSans-20" x="496.630859"/>
       <use xlink:href="#DejaVuSans-68" x="528.417969"/>
       <use xlink:href="#DejaVuSans-69" x="591.796875"/>
       <use xlink:href="#DejaVuSans-6b" x="619.580078"/>
       <use xlink:href="#DejaVuSans-69" x="677.490234"/>
       <use xlink:href="#DejaVuSans-6e" x="705.273438"/>
       <use xlink:href="#DejaVuSans-67" x="768.652344"/>
      </g>
     </g>
    </g>
   </g>
   <g id="matplotlib.axis_2">
    <g id="ytick_1">
     <g id="line2d_21">
      <defs>
       <path id="m0fa7730724" d="M 0 0 
L -3.5 0 
" style="stroke: #000000; stroke-width: 0.8"/>
      </defs>
      <g>
       <use xlink:href="#m0fa7730724" x="40.12" y="227.81" style="stroke: #000000; stroke-width: 0.8"/>
      </g>
     </g>
     <g id="text_21">
      <!-- 0.00 -->
      <g transform="translate(10.854375 231.609219) scale(0.1 -0.1)">
       <defs>
        <path id="DejaVuSans-30" d="M 2034 4250 
Q 1547 4250 1301 3770 
Q 1056 3291 1056 2328 
Q 1056 1369 1301 889 
Q 1547 409 2034 409 
Q 2525 409 2770 889 
Q 3016 1369 3016 2328 
Q 3016 3291 2770 3770 
Q 2525 4250 2034 4250 
z
M 2034 4750 
Q 2819 4750 3233 4129 
Q 3647 3509 3647 2328 
Q 3647 1150 3233 529 
Q 2819 -91 2034 -91 
Q 1250 -91 836 529 
Q 422 1150 422 2328 
Q 422 3509 836 4129 
Q 1250 4750 2034 4750 
z
" transform="scale(0.015625)"/>
        <path id="DejaVuSans-2e" d="M 684 794 
L 1344 794 
L 1344 0 
L 684 0 
L 684 794 
z
" transform="scale(0.015625)"/>
       </defs>
       <use xlink:href="#DejaVuSans-30"/>
       <use xlink:href="#DejaVuSans-2e" x="63.623047"/>
       <use xlink:href="#DejaVuSans-30" x="95.410156"/>
       <use xlink:href="#DejaVuSans-30" x="159.033203"/>
      </g>
     </g>
    </g>
    <g id="ytick_2">
     <g id="line2d_22">
      <g>
       <use xlink:href="#m0fa7730724" x="40.12" y="201.792253" style="stroke: #000000; stroke-width: 0.8"/>
      </g>
     </g>
     <g id="text_22">
      <!-- 0.05 -->
      <g transform="translate(10.854375 205.591471) scale(0.1 -0.1)">
       <defs>
        <path id="DejaVuSans-35" d="M 691 4666 
L 3169 4666 
L 3169 4134 
L 1269 4134 
L 1269 2991 
Q 1406 3038 1543 3061 
Q 1681 3084 1819 3084 
Q 2600 3084 3056 2656 
Q 3513 2228 3513 1497 
Q 3513 744 3044 326 
Q 2575 -91 1722 -91 
Q 1428 -91 1123 -41 
Q 819 9 494 109 
L 494 744 
Q 775 591 1075 516 
Q 1375 441 1709 441 
Q 2250 441 2565 725 
Q 2881 1009 2881 1497 
Q 2881 1984 2565 2268 
Q 2250 2553 1709 2553 
Q 1456 2553 1204 2497 
Q 953 2441 691 2322 
L 691 4666 
z
" transform="scale(0.015625)"/>
       </defs>
       <use xlink:href="#DejaVuSans-30"/>
       <use xlink:href="#DejaVuSans-2e" x="63.623047"/>
       <use xlink:href="#DejaVuSans-30" x="95.410156"/>
       <use xlink:href="#DejaVuSans-35" x="159.033203"/>
      </g>
     </g>
    </g>
    <g id="ytick_3">
     <g id="line2d_23">
      <g>
       <use xlink:href="#m0fa7730724" x="40.12" y="175.774505" style="stroke: #000000; stroke-width: 0.8"/>
      </g>
     </g>
     <g id="text_23">
      <!-- 0.10 -->
      <g transform="translate(10.854375 179.573724) scale(0.1 -0.1)">
       <defs>
        <path id="DejaVuSans-31" d="M 794 531 
L 1825 531 
L 1825 4091 
L 703 3866 
L 703 4441 
L 1819 4666 
L 2450 4666 
L 2450 531 
L 3481 531 
L 3481 0 
L 794 0 
L 794 531 
z
" transform="scale(0.015625)"/>
       </defs>
       <use xlink:href="#DejaVuSans-30"/>
       <use xlink:href="#DejaVuSans-2e" x="63.623047"/>
       <use xlink:href="#DejaVuSans-31" x="95.410156"/>
       <use xlink:href="#DejaVuSans-30" x="159.033203"/>
      </g>
     </g>
    </g>
    <g id="ytick_4">
     <g id="line2d_24">
      <g>
       <use xlink:href="#m0fa7730724" x="40.12" y="149.756758" style="stroke: #000000; stroke-width: 0.8"/>
      </g>
     </g>
     <g id="text_24">
      <!-- 0.15 -->
      <g transform="translate(10.854375 153.555977) scale(0.1 -0.1)">
       <use xlink:href="#DejaVuSans-30"/>
       <use xlink:href="#DejaVuSans-2e" x="63.623047"/>
       <use xlink:href="#DejaVuSans-31" x="95.410156"/>
       <use xlink:href="#DejaVuSans-35" x="159.033203"/>
      </g>
     </g>
    </g>
    <g id="ytick_5">
     <g id="line2d_25">
      <g>
       <use xlink:href="#m0fa7730724" x="40.12" y="123.73901" style="stroke: #000000; stroke-width: 0.8"/>
      </g>
     </g>
     <g id="text_25">
      <!-- 0.20 -->
      <g transform="translate(10.854375 127.538229) scale(0.1 -0.1)">
       <defs>
        <path id="DejaVuSans-32" d="M 1228 531 
L 3431 531 
L 3431 0 
L 469 0 
L 469 531 
Q 828 903 1448 1529 
Q 2069 2156 2228 2338 
Q 2531 2678 2651 2914 
Q 2772 3150 2772 3378 
Q 2772 3750 2511 3984 
Q 2250 4219 1831 4219 
Q 1534 4219 1204 4116 
Q 875 4013 500 3803 
L 500 4441 
Q 881 4594 1212 4672 
Q 1544 4750 1819 4750 
Q 2544 4750 2975 4387 
Q 3406 4025 3406 3419 
Q 3406 3131 3298 2873 
Q 3191 2616 2906 2266 
Q 2828 2175 2409 1742 
Q 1991 1309 1228 531 
z
" transform="scale(0.015625)"/>
       </defs>
       <use xlink:href="#DejaVuSans-30"/>
       <use xlink:href="#DejaVuSans-2e" x="63.623047"/>
       <use xlink:href="#DejaVuSans-32" x="95.410156"/>
       <use xlink:href="#DejaVuSans-30" x="159.033203"/>
      </g>
     </g>
    </g>
    <g id="ytick_6">
     <g id="line2d_26">
      <g>
       <use xlink:href="#m0fa7730724" x="40.12" y="97.721263" style="stroke: #000000; stroke-width: 0.8"/>
      </g>
     </g>
     <g id="text_26">
      <!-- 0.25 -->
      <g transform="translate(10.854375 101.520482) scale(0.1 -0.1)">
       <use xlink:href="#DejaVuSans-30"/>
       <use xlink:href="#DejaVuSans-2e" x="63.623047"/>
       <use xlink:href="#DejaVuSans-32" x="95.410156"/>
       <use xlink:href="#DejaVuSans-35" x="159.033203"/>
      </g>
     </g>
    </g>
    <g id="ytick_7">
     <g id="line2d_27">
      <g>
       <use xlink:href="#m0fa7730724" x="40.12" y="71.703516" style="stroke: #000000; stroke-width: 0.8"/>
      </g>
     </g>
     <g id="text_27">
      <!-- 0.30 -->
      <g transform="translate(10.854375 75.502734) scale(0.1 -0.1)">
       <defs>
        <path id="DejaVuSans-33" d="M 2597 2516 
Q 3050 2419 3304 2112 
Q 3559 1806 3559 1356 
Q 3559 666 3084 287 
Q 2609 -91 1734 -91 
Q 1441 -91 1130 -33 
Q 819 25 488 141 
L 488 750 
Q 750 597 1062 519 
Q 1375 441 1716 441 
Q 2309 441 2620 675 
Q 2931 909 2931 1356 
Q 2931 1769 2642 2001 
Q 2353 2234 1838 2234 
L 1294 2234 
L 1294 2753 
L 1863 2753 
Q 2328 2753 2575 2939 
Q 2822 3125 2822 3475 
Q 2822 3834 2567 4026 
Q 2313 4219 1838 4219 
Q 1578 4219 1281 4162 
Q 984 4106 628 3988 
L 628 4550 
Q 988 4650 1302 4700 
Q 1616 4750 1894 4750 
Q 2613 4750 3031 4423 
Q 3450 4097 3450 3541 
Q 3450 3153 3228 2886 
Q 3006 2619 2597 2516 
z
" transform="scale(0.015625)"/>
       </defs>
       <use xlink:href="#DejaVuSans-30"/>
       <use xlink:href="#DejaVuSans-2e" x="63.623047"/>
       <use xlink:href="#DejaVuSans-33" x="95.410156"/>
       <use xlink:href="#DejaVuSans-30" x="159.033203"/>
      </g>
     </g>
    </g>
    <g id="ytick_8">
     <g id="line2d_28">
      <g>
       <use xlink:href="#m0fa7730724" x="40.12" y="45.685768" style="stroke: #000000; stroke-width: 0.8"/>
      </g>
     </g>
     <g id="text_28">
      <!-- 0.35 -->
      <g transform="translate(10.854375 49.484987) scale(0.1 -0.1)">
       <use xlink:href="#DejaVuSans-30"/>
       <use xlink:href="#DejaVuSans-2e" x="63.623047"/>
       <use xlink:href="#DejaVuSans-33" x="95.410156"/>
       <use xlink:href="#DejaVuSans-35" x="159.033203"/>
      </g>
     </g>
    </g>
    <g id="ytick_9">
     <g id="line2d_29">
      <g>
       <use xlink:href="#m0fa7730724" x="40.12" y="19.668021" style="stroke: #000000; stroke-width: 0.8"/>
      </g>
     </g>
     <g id="text_29">
      <!-- 0.40 -->
      <g transform="translate(10.854375 23.46724) scale(0.1 -0.1)">
       <defs>
        <path id="DejaVuSans-34" d="M 2419 4116 
L 825 1625 
L 2419 1625 
L 2419 4116 
z
M 2253 4666 
L 3047 4666 
L 3047 1625 
L 3713 1625 
L 3713 1100 
L 3047 1100 
L 3047 0 
L 2419 0 
L 2419 1100 
L 313 1100 
L 313 1709 
L 2253 4666 
z
" transform="scale(0.015625)"/>
       </defs>
       <use xlink:href="#DejaVuSans-30"/>
       <use xlink:href="#DejaVuSans-2e" x="63.623047"/>
       <use xlink:href="#DejaVuSans-34" x="95.410156"/>
       <use xlink:href="#DejaVuSans-30" x="159.033203"/>
      </g>
     </g>
    </g>
   </g>
   <g id="patch_43">
    <path d="M 40.12 227.81 
L 40.12 10.8 
" style="fill: none; stroke: #000000; stroke-width: 0.8; stroke-linejoin: miter; stroke-linecap: square"/>
   </g>
   <g id="patch_44">
    <path d="M 450 227.81 
L 450 10.8 
" style="fill: none; stroke: #000000; stroke-width: 0.8; stroke-linejoin: miter; stroke-linecap: square"/>
   </g>
   <g id="patch_45">
    <path d="M 40.12 227.81 
L 450 227.81 
" style="fill: none; stroke: #000000; stroke-width: 0.8; stroke-linejoin: miter; stroke-linecap: square"/>
   </g>
   <g id="patch_46">
    <path d="M 40.12 10.8 
L 450 10.8 
" style="fill: none; stroke: #000000; stroke-width: 0.8; stroke-linejoin: miter; stroke-linecap: square"/>
   </g>
   <g id="legend_1">
    <g id="patch_47">
     <path d="M 385.55 48.15625 
L 443 48.15625 
Q 445 48.15625 445 46.15625 
L 445 17.8 
Q 445 15.8 443 15.8 
L 385.55 15.8 
Q 383.55 15.8 383.55 17.8 
L 383.55 46.15625 
Q 383.55 48.15625 385.55 48.15625 
z
" style="fill: #ffffff; opacity: 0.8; stroke: #cccccc; stroke-linejoin: miter"/>
    </g>
    <g id="patch_48">
     <path d="M 387.55 27.398438 
L 407.55 27.398438 
L 407.55 20.398438 
L 387.55 20.398438 
z
" style="fill: #1f77b4; opacity: 0.3"/>
    </g>
    <g id="text_30">
     <!-- 2023 -->
     <g transform="translate(415.55 27.398438) scale(0.1 -0.1)">
      <use xlink:href="#DejaVuSans-32"/>
      <use xlink:href="#DejaVuSans-30" x="63.623047"/>
      <use xlink:href="#DejaVuSans-32" x="127.246094"/>
      <use xlink:href="#DejaVuSans-33" x="190.869141"/>
     </g>
    </g>
    <g id="patch_49">
     <path d="M 387.55 42.076563 
L 407.55 42.076563 
L 407.55 35.076563 
L 387.55 35.076563 
z
" style="fill: #ff7f0e; opacity: 0.3"/>
    </g>
    <g id="text_31">
     <!-- 2022 -->
     <g transform="translate(415.55 42.076563) scale(0.1 -0.1)">
      <use xlink:href="#DejaVuSans-32"/>
      <use xlink:href="#DejaVuSans-30" x="63.623047"/>
      <use xlink:href="#DejaVuSans-32" x="127.246094"/>
      <use xlink:href="#DejaVuSans-32" x="190.869141"/>
     </g>
    </g>
   </g>
  </g>
 </g>
 <defs>
  <clipPath id="p280d5404fe">
   <rect x="40.12" y="10.8" width="409.88" height="217.01"/>
  </clipPath>
 </defs>
</svg>
